<!-- Generated by IcoMoon.io -->
<svg version="1.1" xmlns="http://www.w3.org/2000/svg" viewBox="0 0 1024 1024">
<title></title>
<g id="icomoon-ignore">
</g>
<path fill="#fff" d="M373 565q0-10-7-16.5t-16-6.5h-81q-10 0-16.5 6.5t-6.5 16.5v81q0 10 6.5 16.5t16.5 6.5h81q9 0 16-6.5t7-16.5v-81zM576 565q0-10-7-16.5t-16-6.5h-82q-9 0-16 6.5t-7 16.5v81q0 10 7 16.5t16 6.5h82q9 0 16-6.5t7-16.5v-81zM778 565q0-10-6.5-16.5t-16.5-6.5h-81q-9 0-16 6.5t-7 16.5v81q0 10 7 16.5t16 6.5h81q10 0 16.5-6.5t6.5-16.5v-81zM373 768q0-10-7-17t-16-7h-81q-10 0-16.5 7t-6.5 17v81q0 9 6.5 16t16.5 7h81q9 0 16-7t7-16v-81zM576 768q0-10-7-17t-16-7h-82q-9 0-16 7t-7 17v81q0 9 7 16t16 7h82q9 0 16-7t7-16v-81zM778 768q0-10-6.5-17t-16.5-7h-81q-9 0-16 7t-7 17v81q0 9 7 16t16 7h81q10 0 16.5-7t6.5-16v-81zM924 114v124q0 42-30 71.5t-72 29.5h-64q-42 0-72-29.5t-30-71.5v-124h-288v124q0 42-30 71.5t-72 29.5h-64q-42 0-72-29.5t-30-71.5v-124q-36 1-62.5 27.5t-26.5 64.5v726q0 38 27 65t65 27h818q38 0 65-27t27-65v-726q0-38-26.5-64.5t-62.5-27.5v0zM894 886q0 17-11.5 28.5t-28.5 11.5h-686q-16 0-28-11.5t-12-28.5v-375q0-16 12-27.5t28-11.5h686q17 0 28.5 11.5t11.5 27.5v375zM202 273h63q14 0 24.5-10.5t10.5-24.5v-203q0-15-10.5-25t-24.5-10h-63q-15 0-25 10t-10 25v203q0 14 10 24.5t25 10.5v0zM757 273h64q14 0 24-10.5t10-24.5v-203q0-15-10-25t-24-10h-64q-14 0-24 10t-10 25v203q0 14 10 24.5t24 10.5z"></path>
</svg>
