<!-- Generated by IcoMoon.io -->
<svg version="1.1" xmlns="http://www.w3.org/2000/svg" viewBox="0 0 1024 1024">
<title></title>
<g id="icomoon-ignore">
</g>
<path fill="#d4d4d4" d="M512 48q-96 0-180 37-85 36-148 99t-99 148q-37 84-37 180t37 180q36 85 99 148t148 99q84 37 180 37t180-37q85-36 148-99t99-148q37-84 37-180t-37-180q-36-85-99-148t-148-99q-84-37-180-37zM512 877q-76 0-142-28-67-29-116.5-78.5t-78.5-116.5q-28-66-28-142t28-142q29-67 78.5-116.5t116.5-78.5q66-28 142-28t142 28q67 29 116.5 78.5t78.5 116.5q28 66 28 142t-28 142q-29 67-78.5 116.5t-116.5 78.5q-66 28-142 28zM754 498h-209v-251q0-16-11-27t-27-11-27 11-11 27v289q0 16 11 27t27 11h247q16 0 27-11t11-27-11-27-27-11v0z"></path>
</svg>
