<!-- Generated by IcoMoon.io -->
<svg version="1.1" xmlns="http://www.w3.org/2000/svg" viewBox="0 0 1040 1024">
<title></title>
<g id="icomoon-ignore">
</g>
<path fill="#d4d4d4" d="M856 255q-3-10-7.5-21t-8.5-20q-25-59-63-100-37-41-81-66t-91-37q-46-11-90-11-58 0-116 20-59 19-107.5 58.5t-82.5 99.5q-33 59-42 140v43q0 2 0.5 11.5t1.5 15.5q5 38 21 77t38 78.5 47 79.5q25 39 47 77 24 41 49 82 25 40 49.5 80.5t49.5 80.5q25 41 50 81 31-53 61.5-105.5t60.5-103.5q8-15 17-30l18-30q5-9 13.5-18.5t13.5-18.5q24-44 54-89 29-44 54.5-88.5t42.5-88.5q18-45 18-89v-48q0-10-8-34t-9-26v0zM518 474q-34 0-67.5-19t-52.5-66q-3-8-3-19.5v-40.5q0-60 41.5-88.5t85.5-28.5q55 0 92 38.5t37 92.5q0 55-39 93t-94 38v0z"></path>
</svg>
