<!-- Generated by IcoMoon.io -->
<svg version="1.1" xmlns="http://www.w3.org/2000/svg" viewBox="0 0 1024 1024">
<title></title>
<g id="icomoon-ignore">
</g>
<path fill="#3a3a3a" d="M896 680q-43 0-86.5-7t-86.5-22q-11-3-24 0t-24 10l-105 105q-51-25-96-59-46-33-86-73.5t-74-87.5q-34-46-61-96l105-106q11-11 14-24t-4-24q-11-40-17.5-82.5t-6.5-85.5q0-22-13-35t-35-13h-168q-22 0-35 13t-13 35q0 169 64 318 64 148 174.5 259t259.5 175 318 64q22 0 35-13t13-35v-168q0-22-13-35t-35-13v0zM848 512h96q0-90-34-169-33-79-91.5-137.5t-137.5-91.5q-79-34-169-34v96q70 0 131 26 62 26 107.5 71.5t71.5 107.5q26 61 26 131zM656 512h96q0-50-19-94-18-44-50.5-76.5t-76.5-50.5q-44-19-94-19v96q61 0 102.5 41.5t41.5 102.5v0z"></path>
</svg>
