<svg width="1024" height="1024" viewBox="0 0 1024 1024" fill="none" xmlns="http://www.w3.org/2000/svg">
<rect width="1024" height="1024" fill="#F7F7F7"/>
<path d="M512 48C448 48 388 60.3333 332 85C275.333 109 226 142 184 184C142 226 109 275.333 85 332C60.3333 388 48 448 48 512C48 576 60.3333 636 85 692C109 748.667 142 798 184 840C226 882 275.333 915 332 939C388 963.667 448 976 512 976C576 976 636 963.667 692 939C748.667 915 798 882 840 840C882 798 915 748.667 939 692C963.667 636 976 576 976 512C976 448 963.667 388 939 332C915 275.333 882 226 840 184C798 142 748.667 109 692 85C636 60.3333 576 48 512 48ZM512 877C461.333 877 414 867.667 370 849C325.333 829.667 286.5 803.5 253.5 770.5C220.5 737.5 194.333 698.667 175 654C156.333 610 147 562.667 147 512C147 461.333 156.333 414 175 370C194.333 325.333 220.5 286.5 253.5 253.5C286.5 220.5 325.333 194.333 370 175C414 156.333 461.333 147 512 147C562.667 147 610 156.333 654 175C698.667 194.333 737.5 220.5 770.5 253.5C803.5 286.5 829.667 325.333 849 370C867.667 414 877 461.333 877 512C877 562.667 867.667 610 849 654C829.667 698.667 803.5 737.5 770.5 770.5C737.5 803.5 698.667 829.667 654 849C610 867.667 562.667 877 512 877ZM754 498H545V247C545 236.333 541.333 227.333 534 220C526.667 212.667 517.667 209 507 209C496.333 209 487.333 212.667 480 220C472.667 227.333 469 236.333 469 247V536C469 546.667 472.667 555.667 480 563C487.333 570.333 496.333 574 507 574H754C764.667 574 773.667 570.333 781 563C788.333 555.667 792 546.667 792 536C792 525.333 788.333 516.333 781 509C773.667 501.667 764.667 498 754 498Z" fill="#999999"/>
</svg>
