<?xml version="1.0" encoding="utf-8"?><svg xmlns="http://www.w3.org/2000/svg" xmlns:xlink="http://www.w3.org/1999/xlink"><symbol viewBox="0 0 16 16" id="close" xmlns="http://www.w3.org/2000/svg"><path d="M8.884 8.001l6.933-6.933a.625.625 0 10-.884-.884L8 7.117 1.067.184a.625.625 0 10-.884.884L7.116 8 .183 14.934a.625.625 0 10.884.884L8 8.885l6.933 6.933a.623.623 0 00.884 0 .625.625 0 000-.884L8.884 8.001z"/></symbol><symbol viewBox="0 0 26 26" id="double-arrow" xmlns="http://www.w3.org/2000/svg"><path d="M.046 24.418l2.084 2.084 10.837-10.836 10.836 10.836 2.084-2.084-12.92-12.92z"/><path d="M.046 13.418l2.084 2.084L12.967 4.666l10.836 10.836 2.084-2.084L12.967.498z"/></symbol><symbol viewBox="0 0 512 512" id="heart-regular" xmlns="http://www.w3.org/2000/svg"><!--! Font Awesome Pro 6.1.1 by @fontawesome - https://fontawesome.com License - https://fontawesome.com/license (Commercial License) Copyright 2022 Fonticons, Inc.--><path d="M244 84l11.1 12 12-11.98C300.6 51.37 347 36.51 392.6 44.1c68.9 11.48 119.4 71.1 119.4 141v5.8c0 41.5-17.2 81.2-47.6 109.5L283.7 469.1c-7.5 7-17.4 10.9-27.7 10.9s-20.2-3.9-27.7-10.9L47.59 300.4C17.23 272.1 0 232.4 0 190.9v-5.8c0-69.9 50.52-129.52 119.4-141 44.7-7.59 92 7.27 124.6 39.9-.9 0 0 .01 0 0zm11.1 79.9l-45-46.8c-21.7-20.82-52.5-30.7-82.8-25.66C81.55 99.07 48 138.7 48 185.1v5.8c0 28.2 11.71 55.2 32.34 74.4L256 429.3l175.7-164c20.6-19.2 32.3-46.2 32.3-74.4v-5.8c0-46.4-33.6-86.03-79.3-93.66-30.3-5.04-61.1 4.84-82.8 25.66l-46.8 46.8z"/></symbol><symbol viewBox="0 0 512 512" id="heart-solid" xmlns="http://www.w3.org/2000/svg"><!--! Font Awesome Pro 6.1.1 by @fontawesome - https://fontawesome.com License - https://fontawesome.com/license (Commercial License) Copyright 2022 Fonticons, Inc.--><path d="M0 190.9v-5.8c0-69.9 50.52-129.52 119.4-141 44.7-7.59 92 7.27 124.6 39.92L256 96l11.1-11.98C300.6 51.37 347 36.51 392.6 44.1c68.9 11.48 119.4 71.1 119.4 141v5.8c0 41.5-17.2 81.2-47.6 109.5L283.7 469.1c-7.5 7-17.4 10.9-27.7 10.9s-20.2-3.9-27.7-10.9L47.59 300.4C17.23 272.1 0 232.4 0 190.9z"/></symbol></svg>