<svg width="64" height="65" fill="none" xmlns="http://www.w3.org/2000/svg"><path d="M60.8 61.9V22.434c0-.59-.478-1.067-1.067-1.067H49.067c-.59 0-1.067.477-1.067 1.067V61.9h-2.133V37.367c0-.59-.478-1.067-1.067-1.067H34.133c-.589 0-1.066.478-1.066 1.067V61.9h-2.134V26.7c0-.589-.477-1.066-1.066-1.066H19.2c-.59 0-1.067.477-1.067 1.066v35.2H16V41.634c0-.59-.478-1.067-1.067-1.067H4.267c-.59 0-1.067.477-1.067 1.067V61.9H0v2.134h64V61.9h-3.2zm-46.933 0H5.333V42.7h8.534v19.2zm14.933 0h-8.533V27.767H28.8V61.9zm14.933 0H35.2V38.434h8.533V61.9zm14.934 0h-8.534V23.5h8.534v38.4z" fill="url(#paint0_linear)"/><path d="M6.658 29.016a5.333 5.333 0 007.391-7.39l7.55-7.55a5.279 5.279 0 003.86.809 5.296 5.296 0 002.707-1.353l6.329 4.865a5.333 5.333 0 109.42-1.039l7.548-7.547a5.35 5.35 0 10-1.508-1.509l-7.548 7.548a5.333 5.333 0 00-6.711.678c-.02.02-.032.043-.051.062l-6.237-4.793a5.333 5.333 0 10-9.32.773l-7.547 7.548a5.333 5.333 0 10-5.883 8.898zM54.4 2.166a3.2 3.2 0 110 6.4 3.2 3.2 0 010-6.4zM37.203 18.039a3.2 3.2 0 114.526 4.526 3.279 3.279 0 01-4.525 0 3.2 3.2 0 01-.001-4.526zm-15.29-10.24a3.18 3.18 0 012.627-1.364A3.2 3.2 0 1121.913 7.8zM7.335 22.305l.002-.002a3.2 3.2 0 114.524 4.527 3.28 3.28 0 01-4.524 0 3.2 3.2 0 01-.002-4.525z" fill="url(#paint1_linear)"/><defs><linearGradient id="paint0_linear" x1="-32" y1="42.7" x2="7.385" y2="101.777" gradientUnits="userSpaceOnUse"><stop stop-color="#F0CD46"/><stop offset="1" stop-color="#EE5768"/></linearGradient><linearGradient id="paint1_linear" x1="-23.484" y1="14.95" x2="1.485" y2="61.298" gradientUnits="userSpaceOnUse"><stop stop-color="#F0CD46"/><stop offset="1" stop-color="#EE5768"/></linearGradient></defs></svg>