<svg width="64" height="66" fill="none" xmlns="http://www.w3.org/2000/svg"><g clip-path="url(#clip0)"><path d="M29.532 44.765a1.318 1.318 0 000-1.824 1.23 1.23 0 00-1.771 0 1.319 1.319 0 000 1.824 1.23 1.23 0 001.771 0z" fill="url(#paint0_linear)"/><path d="M23.602 14.176c0 7.816 6.178 14.176 13.773 14.176 7.594 0 13.773-6.36 13.773-14.176C51.148 6.359 44.969 0 37.375 0 29.78 0 23.602 6.36 23.602 14.176zm25.042 0c0 6.395-5.056 11.598-11.27 11.598-6.213 0-11.269-5.203-11.269-11.598 0-6.395 5.056-11.598 11.27-11.598 6.213 0 11.269 5.203 11.269 11.598z" fill="url(#paint1_linear)"/><path d="M14.486 65.619a1.228 1.228 0 001.768.01l6.07-6.155c1.031-1.061 1.345-2.633.891-4l1.306-1.295a3.678 3.678 0 012.607-1.084h16.646c2.953 0 5.744-1.168 7.86-3.287.087-.087-.661.82 11.355-13.962 1.783-2.17 1.516-5.43-.594-7.266a4.922 4.922 0 00-7.027.575l-7.388 7.816c-.933-1.181-2.356-1.918-3.893-1.918H30.124a15.757 15.757 0 00-6.27-1.289c-6.029 0-11.294 2.866-14.119 8.24a3.672 3.672 0 00-3.349 1.068L.43 49.221a1.316 1.316 0 00-.002 1.818l14.058 14.58zm9.368-29.278c1.918 0 3.772.398 5.512 1.181.159.072.33.108.502.108h14.219c1.357 0 2.504 1.14 2.504 2.578 0 1.421-1.123 2.577-2.504 2.577H33.87c-.691 0-1.252.577-1.252 1.289s.56 1.288 1.252 1.288h10.216c2.762 0 5.008-2.312 5.008-5.154 0-.227-.015-.452-.044-.674 7.147-7.562 8.155-8.624 8.198-8.677a2.464 2.464 0 013.53-.307c1.055.918 1.189 2.547.294 3.637l-11.23 13.818c-1.64 1.62-3.793 2.512-6.07 2.512H27.129a6.133 6.133 0 00-4.346 1.807l-1.064 1.057-9.81-10.095c2.293-4.427 6.595-6.945 11.946-6.945zM8.158 44.894a1.223 1.223 0 011.55-.182c.217.136-.405-.447 10.846 11.116.5.515.473 1.336.006 1.817l-5.175 5.247-12.303-12.76 5.076-5.238z" fill="url(#paint2_linear)"/><path d="M35.873 6.444v1.51c-1.457.532-2.504 1.964-2.504 3.645 0 2.131 1.685 3.866 3.757 3.866.69 0 1.251.578 1.251 1.288 0 .71-.561 1.289-1.252 1.289-.534 0-1.112-.346-1.625-.975a1.228 1.228 0 00-1.764-.157 1.315 1.315 0 00-.153 1.816c.67.819 1.456 1.39 2.29 1.678v1.504c0 .712.561 1.289 1.253 1.289.69 0 1.251-.577 1.251-1.289v-1.51c1.458-.532 2.505-1.965 2.505-3.645 0-2.132-1.685-3.866-3.756-3.866-.69 0-1.252-.578-1.252-1.288 0-.71.561-1.29 1.252-1.29.443 0 .911.234 1.354.674.497.495 1.29.482 1.77-.03a1.316 1.316 0 00-.029-1.822c-.635-.633-1.271-.99-1.844-1.186V6.444c0-.712-.56-1.29-1.252-1.29-.69 0-1.252.578-1.252 1.29z" fill="url(#paint3_linear)"/></g><defs><linearGradient id="paint0_linear" x1="26.142" y1="43.853" x2="28.719" y2="46.356" gradientUnits="userSpaceOnUse"><stop stop-color="#F0CD46"/><stop offset="1" stop-color="#EE5768"/></linearGradient><linearGradient id="paint1_linear" x1="9.829" y1="14.176" x2="38.169" y2="41.711" gradientUnits="userSpaceOnUse"><stop stop-color="#F0CD46"/><stop offset="1" stop-color="#EE5768"/></linearGradient><linearGradient id="paint2_linear" x1="-31.988" y1="46.684" x2="2.167" y2="103.363" gradientUnits="userSpaceOnUse"><stop stop-color="#F0CD46"/><stop offset="1" stop-color="#EE5768"/></linearGradient><linearGradient id="paint3_linear" x1="29.493" y1="14.176" x2="42.393" y2="19.605" gradientUnits="userSpaceOnUse"><stop stop-color="#F0CD46"/><stop offset="1" stop-color="#EE5768"/></linearGradient><clipPath id="clip0"><path fill="#fff" d="M0 0h64v66H0z"/></clipPath></defs></svg>