<svg width="64" height="64" fill="none" xmlns="http://www.w3.org/2000/svg"><path fill-rule="evenodd" clip-rule="evenodd" d="M61.206 50.568c.047.03.092.063.135.1 3.178 2.68 3.464 7.287 1.089 10.314-2.967 3.783-8.594 3.849-11.656.236a1.339 1.339 0 01-.1-.134l-3.76-5.884c-2.47-3.862-6.563-8.538-9.825-11.828A23.552 23.552 0 0123.8 47.44C10.677 47.44 0 36.791 0 23.703 0 10.633 10.654 0 23.75 0c13.123 0 23.8 10.648 23.8 23.736a23.42 23.42 0 01-4.195 13.439c3.265 3.214 7.898 7.059 11.694 9.475l6.157 3.918zM23.8 44.944c4.604 0 8.988-1.452 12.678-4.198 5.158-3.84 8.571-9.99 8.571-17.01 0-11.713-9.554-21.24-21.3-21.24C12.034 2.495 2.5 12.008 2.5 23.702c0 11.713 9.555 21.241 21.3 21.241zm15.297-3.093a23.942 23.942 0 002.718-2.689 83.923 83.923 0 004.093 3.72l-3.036 3.028a100.686 100.686 0 00-3.775-4.059zm13.637 17.816c2.07 2.367 5.773 2.27 7.727-.223 1.612-2.054 1.306-5.096-.673-6.82l-6.083-3.87c-1.767-1.125-3.779-2.59-5.866-4.272l-3.336 3.33c1.829 2.193 3.38 4.267 4.517 6.046l3.714 5.81zM23.75 7.485c-6.132 0-11.68 3.397-14.48 8.863a1.251 1.251 0 01-1.682.543 1.247 1.247 0 01-.544-1.678C10.175 9.097 16.528 4.99 23.75 4.99a1.249 1.249 0 110 2.495zM6.25 20.99a.937.937 0 10.002-1.873.937.937 0 00-.002 1.873zm30 11.572H35V11.353c0-.69-.56-1.248-1.25-1.248h-7.5c-.69 0-1.25.559-1.25 1.248v6.238h-6.25c-.69 0-1.25.558-1.25 1.247v6.238h-6.25c-.69 0-1.25.558-1.25 1.248v6.237H8.75a1.249 1.249 0 100 2.495h27.5a1.249 1.249 0 100-2.495zm-18.75 0h-5v-4.99h5v4.99zm2.5 0h5V20.086h-5V32.56zm12.5 0h-5V12.6h5v19.96z" fill="url(#paint0_linear)"/><defs><linearGradient id="paint0_linear" x1="-32" y1="31.937" x2="31.874" y2="95.937" gradientUnits="userSpaceOnUse"><stop stop-color="#F0CD46"/><stop offset="1" stop-color="#EE5768"/></linearGradient></defs></svg>