<svg width="64" height="64" fill="none" xmlns="http://www.w3.org/2000/svg"><path fill-rule="evenodd" clip-rule="evenodd" d="M63.386.366c.25.25.383.597.363.951-.159 2.858-1.107 8.238-2.333 12.137-2.357 7.863-5.97 14.273-10.737 19.05a76.28 76.28 0 01-6.587 5.874c1.526 7.78-.87 15.711-6.485 21.337a23.717 23.717 0 01-5.299 4c-1.076.595-2.3-.592-1.692-1.695a21.23 21.23 0 001.75-16.29 27.19 27.19 0 01-3.113 1.165 3.609 3.609 0 01-2.972-.428c-.29.364-.602.715-.936 1.05-3.205 3.211-11.017 3.863-11.348 3.89a1.247 1.247 0 01-1.339-1.342c.027-.332.678-8.158 3.883-11.369.321-.322.657-.623 1.005-.903-.697-.935-.928-2.128-.597-3.228.292-.98.683-2.024 1.163-3.118A21.115 21.115 0 001.852 33.2c-1.086.602-2.294-.6-1.69-1.695a23.772 23.772 0 013.991-5.31c5.615-5.625 13.53-8.027 21.296-6.497a76.325 76.325 0 015.861-6.6C40.996 3.395 56.11.357 62.438.003a1.24 1.24 0 01.95.364zM5.914 27.96c-.41.41-.801.835-1.175 1.275a23.622 23.622 0 0114.465-.062c1.203-2.311 2.747-4.77 4.54-7.23-6.548-.901-13.102 1.279-17.83 6.017zm17.67 17.793c-1.712 1.715-5.73 2.62-8.268 2.99.368-2.542 1.27-6.564 2.986-8.283.313-.313.642-.602.985-.865l5.16 5.17c-.262.344-.55.674-.863.988zm3.787-1.587c.321.323.779.456 1.166.34a24.94 24.94 0 002.98-1.128 21.048 21.048 0 00-4.474-6.598 21.003 21.003 0 00-6.585-4.483 24.981 24.981 0 00-1.124 2.984c-.117.39.015.849.337 1.17l7.7 7.715zm8.476 13.785c-.41.41-.835.802-1.274 1.176a23.753 23.753 0 00.063-14.493c2.306-1.205 4.76-2.752 7.215-4.548a21.124 21.124 0 01-6.005 17.864zm-2.092-15.672c5.386-2.863 10.867-7.235 15.163-11.539 4.334-4.343 7.663-10.163 9.9-17.31l-8.47-8.488c-7.133 2.243-12.943 5.578-17.277 9.92-4.295 4.304-8.659 9.797-11.517 15.193a23.474 23.474 0 017.25 4.96 23.528 23.528 0 014.951 7.264zm25.85-31.59l-6.522-6.535a58.715 58.715 0 018.044-1.525 58.942 58.942 0 01-1.522 8.06zM41.876 13.1a6.24 6.24 0 000 8.819 6.21 6.21 0 008.803 0 6.241 6.241 0 000-8.82 6.212 6.212 0 00-8.803 0zm7.042 7.055a3.724 3.724 0 01-5.282 0 3.742 3.742 0 010-5.291 3.727 3.727 0 015.282 0 3.745 3.745 0 010 5.291zm-14.085-3.528a1.247 1.247 0 000 1.764 1.242 1.242 0 001.76 0 1.25 1.25 0 000-1.764 1.242 1.242 0 00-1.76 0zm-1.695 3.595a1.243 1.243 0 00-1.756.134c-1.38 1.611-3.916 4.652-5.391 6.913a1.248 1.248 0 00.36 1.727 1.244 1.244 0 001.724-.362c1.45-2.223 4.117-5.393 5.197-6.653a1.25 1.25 0 00-.134-1.76zM2.132 63.505l7.782-7.799a1.249 1.249 0 000-1.764 1.244 1.244 0 00-1.76 0L.37 61.74a1.25 1.25 0 000 1.765 1.244 1.244 0 001.76 0zm20.232-7.799l-7.782 7.799a1.245 1.245 0 01-1.761 0 1.25 1.25 0 010-1.765l7.782-7.798a1.245 1.245 0 011.761 0 1.25 1.25 0 010 1.764zM.372 51.03a1.244 1.244 0 001.76 0l7.783-7.798a1.249 1.249 0 000-1.764 1.243 1.243 0 00-1.76 0L.37 49.266a1.249 1.249 0 000 1.764z" fill="url(#paint0_linear)"/><defs><linearGradient id="paint0_linear" x1="-31.876" y1="31.937" x2="31.998" y2="95.688" gradientUnits="userSpaceOnUse"><stop stop-color="#F0CD46"/><stop offset="1" stop-color="#EE5768"/></linearGradient></defs></svg>