<svg width="19" height="19" fill="none" xmlns="http://www.w3.org/2000/svg"><g clip-path="url(#clip0)"><path d="M18.95 7.288a1.008 1.008 0 00-.869-.695l-5.484-.498L10.43 1.02a1.01 1.01 0 00-1.858 0L6.403 6.096l-5.485.498A1.01 1.01 0 00.345 8.36l4.145 3.636-1.222 5.384a1.01 1.01 0 001.502 1.091l4.73-2.827 4.729 2.827a1.01 1.01 0 001.503-1.09l-1.223-5.385 4.145-3.635a1.01 1.01 0 00.297-1.073z" fill="#FFC107"/></g><defs><clipPath id="clip0"><path fill="#fff" d="M0 0h19v19H0z"/></clipPath></defs></svg>