<svg width="85" height="96" fill="none" xmlns="http://www.w3.org/2000/svg"><path d="M28.792 49.78c-7.644 0-13.82 6.175-13.707 13.743.076 4.858 2.75 9.075 6.684 11.428a13.303 13.303 0 01-2.165-7.097c-.113-7.57 6.062-13.744 13.706-13.744 1.506 0 2.956.244 4.312.677V39.632a29.805 29.805 0 00-4.312-.32h-.207v11.145a14.155 14.155 0 00-4.311-.678zM61.834 4.33h-4.029a23.15 23.15 0 008.754 13.951 23.32 23.32 0 01-4.725-13.95z" fill="#F00044"/><path d="M84.879 27.394c-1.488 0-2.919-.151-4.33-.415v10.864c-5.122 0-10.092-.998-14.761-2.994a38.561 38.561 0 01-8.397-4.895l.075 33.494c-.038 7.53-3.012 14.59-8.397 19.919-4.387 4.33-9.94 7.098-15.965 7.983-1.412.207-2.862.32-4.312.32-6.439 0-12.576-2.09-17.565-5.95a25.507 25.507 0 001.826 1.977C18.475 93.044 25.667 96 33.33 96c1.45 0 2.9-.113 4.311-.32 6.025-.885 11.579-3.653 15.966-7.983 5.384-5.328 8.359-12.388 8.397-19.92l-.283-33.493a36.983 36.983 0 008.397 4.895 37.814 37.814 0 0014.76 2.994" fill="#F00044"/><path d="M12.997 47.652c5.366-5.328 12.501-8.284 20.108-8.34v-4.01a29.802 29.802 0 00-4.312-.32c-7.681 0-14.892 2.955-20.314 8.34C3.15 48.611.1 55.841.119 63.353c0 7.568 2.994 14.666 8.397 20.032a28.56 28.56 0 002.693 2.353c-4.255-5.064-6.571-11.39-6.59-18.055a28.386 28.386 0 018.378-20.032zM80.55 26.98v-4.03h-.038a22.977 22.977 0 01-13.932-4.668 23 23 0 0013.97 8.698z" fill="#08FFF9"/><path d="M32.539 81.183c1.788.094 3.502-.15 5.083-.659 5.46-1.789 9.395-6.872 9.395-12.859l.019-22.404V4.33h10.769A23.46 23.46 0 0157.353 0H42.517v40.911l-.019 22.405c0 5.987-3.935 11.07-9.395 12.859a13.36 13.36 0 01-5.083.659 13.812 13.812 0 01-6.25-1.902 13.734 13.734 0 0010.769 6.25z" fill="#08FFF9"/><path d="M33.104 91.35c6.024-.885 11.578-3.653 15.965-7.983 5.385-5.328 8.36-12.389 8.397-19.92l-.075-33.493a36.982 36.982 0 008.397 4.895 37.816 37.816 0 0014.76 2.994V26.979a23 23 0 01-13.97-8.698c-4.443-3.351-7.644-8.284-8.754-13.95H47.036v40.91l-.02 22.405c0 5.987-3.934 11.07-9.394 12.86a13.362 13.362 0 01-5.083.658 13.736 13.736 0 01-10.77-6.232c-3.934-2.334-6.608-6.57-6.683-11.428-.113-7.568 6.062-13.744 13.706-13.744 1.506 0 2.956.245 4.312.678V39.292c-7.607.057-14.742 3.013-20.108 8.34-5.328 5.291-8.378 12.52-8.36 20.014 0 6.665 2.317 12.99 6.59 18.055 5.008 3.86 11.127 5.95 17.566 5.95 1.45.019 2.9-.094 4.312-.301z" fill="#000"/></svg>