<svg width="20" height="20" fill="none" xmlns="http://www.w3.org/2000/svg"><g clip-path="url(#clip0)"><path d="M19.588 5.2a2.505 2.505 0 00-1.763-1.764C16.26 3.008 10 3.008 10 3.008s-6.26 0-7.825.412c-.84.23-1.533.922-1.763 1.78C0 6.763 0 10.01 0 10.01s0 3.261.412 4.81c.23.857.906 1.532 1.763 1.763 1.581.428 7.825.428 7.825.428s6.26 0 7.825-.412a2.506 2.506 0 001.763-1.763c.412-1.565.412-4.81.412-4.81s.016-3.262-.412-4.827z" fill="red"/><path d="M8.006 13.008l5.206-2.999-5.206-2.998v5.997z" fill="#fff"/></g><defs><clipPath id="clip0"><path fill="#fff" d="M0 0h20v20H0z"/></clipPath></defs></svg>