<svg width="107" height="107" fill="none" xmlns="http://www.w3.org/2000/svg"><path d="M104.795 27.815a13.404 13.404 0 00-9.43-9.432c-8.373-2.291-41.866-2.291-41.866-2.291s-33.492 0-41.865 2.204c-4.495 1.234-8.197 4.936-9.43 9.519C0 36.187 0 53.55 0 53.55S0 71 2.203 79.287a13.408 13.408 0 009.431 9.43C20.096 91.01 53.5 91.01 53.5 91.01s33.492 0 41.865-2.204a13.405 13.405 0 009.431-9.43C107 71.002 107 53.639 107 53.639s.088-17.452-2.205-25.824z" fill="red"/><path d="M42.836 69.592L70.687 53.55 42.836 37.51v32.082z" fill="#fff"/></svg>