<?xml version="1.0" encoding="utf-8"?><svg xmlns="http://www.w3.org/2000/svg" xmlns:xlink="http://www.w3.org/1999/xlink"><symbol viewBox="0 0 512 512" id="arrow-thin" xmlns="http://www.w3.org/2000/svg"><path d="M160 128.4L192.3 96 352 256 192.3 416 160 383.6 287.3 256z"/></symbol><symbol viewBox="0 0 16 16" id="close" xmlns="http://www.w3.org/2000/svg"><path d="M8.884 8.001l6.933-6.933a.625.625 0 10-.884-.884L8 7.117 1.067.184a.625.625 0 10-.884.884L7.116 8 .183 14.934a.625.625 0 10.884.884L8 8.885l6.933 6.933a.623.623 0 00.884 0 .625.625 0 000-.884L8.884 8.001z"/></symbol><symbol viewBox="0 0 26 26" id="double-arrow" xmlns="http://www.w3.org/2000/svg"><path d="M.046 24.418l2.084 2.084 10.837-10.836 10.836 10.836 2.084-2.084-12.92-12.92z"/><path d="M.046 13.418l2.084 2.084L12.967 4.666l10.836 10.836 2.084-2.084L12.967.498z"/></symbol><symbol viewBox="0 0 512 512" id="home" xmlns="http://www.w3.org/2000/svg"><path d="M506.555 208.064L263.859 30.367a13.3 13.3 0 00-15.716 0L5.445 208.064c-5.928 4.341-7.216 12.665-2.875 18.593s12.666 7.214 18.593 2.875L256 57.588l234.837 171.943a13.236 13.236 0 007.848 2.57c4.096 0 8.138-1.885 10.744-5.445 4.342-5.927 3.054-14.251-2.874-18.592z"/><path d="M442.246 232.543c-7.346 0-13.303 5.956-13.303 13.303v211.749H322.521V342.009c0-36.68-29.842-66.52-66.52-66.52s-66.52 29.842-66.52 66.52v115.587H83.058V245.847c0-7.347-5.957-13.303-13.303-13.303s-13.303 5.956-13.303 13.303V470.9c0 7.347 5.957 13.303 13.303 13.303h133.029c6.996 0 12.721-5.405 13.251-12.267.032-.311.052-.651.052-1.036V342.01c0-22.009 17.905-39.914 39.914-39.914s39.914 17.906 39.914 39.914V470.9c0 .383.02.717.052 1.024.524 6.867 6.251 12.279 13.251 12.279h133.029c7.347 0 13.303-5.956 13.303-13.303V245.847c-.001-7.348-5.957-13.304-13.304-13.304z"/></symbol><symbol viewBox="0 0 183.65 94.25" id="insert" xmlns="http://www.w3.org/2000/svg"><path d="M91.09 56.6a85.11 85.11 0 01-11.46 18.94C74.9 81.22 69 86.33 61.79 89l-.35.12-.36-.1a94.32 94.32 0 01-19.57-8.41 103.85 103.85 0 01-17.4-12.2A79.92 79.92 0 019.94 52.54a75 75 0 01-9.32-19L0 31.65l1.52 1.26a77.47 77.47 0 0111.56 12.18A88.38 88.38 0 0122 59.33a119.53 119.53 0 016.52 15.48A153.64 153.64 0 0133 91l-2.12-.46a68.21 68.21 0 007.2-16 89.35 89.35 0 003.69-17.26 97.16 97.16 0 00.28-17.64c-.06-3-.61-5.86-.93-8.79s-1.11-5.8-1.65-8.7l3.07-.79A124.3 124.3 0 0050 41.22a108 108 0 0010.85 18.23 119.15 119.15 0 0013.86 16.18A108.76 108.76 0 0091.2 89.24l-.15.26a102.79 102.79 0 01-17.4-12.74 115.94 115.94 0 01-14.72-15.88 111.78 111.78 0 01-11.57-18.37c-3.45-6.41-5.75-13.34-7.88-20.28l3.07-.79c.58 3 1.3 5.94 1.76 8.94s.92 6 1 9.07a95.66 95.66 0 01-.52 18.22 91.55 91.55 0 01-4.06 17.77 69.39 69.39 0 01-7.93 16.49l-1.56 2.32-.56-2.77a159 159 0 00-3.87-16.13 116 116 0 00-5.92-15.49 83.55 83.55 0 00-8.59-14.18A67.09 67.09 0 00.8 33.79l.9-.61a66.49 66.49 0 009.74 18.29 84.58 84.58 0 0014.35 14.94 119.87 119.87 0 0017.05 11.81 91.91 91.91 0 0018.87 8.48H61c6.71-2.33 12.6-6.83 17.41-12.24a97.84 97.84 0 0012.4-18z"/><path d="M150.25 91.21a125 125 0 013.55-16.39 104.37 104.37 0 015.93-15.76 87.65 87.65 0 018.72-14.51 68.79 68.79 0 0111.86-12.13l3.34-2.63-1.42 3.93a71.07 71.07 0 01-10.17 18.65 92.49 92.49 0 01-14.43 15.42 125.28 125.28 0 01-17.12 12.41 88.54 88.54 0 01-19.3 9l-.39.12-.43-.14c-8.57-2.94-15.45-9.18-20.84-16.06a96.79 96.79 0 01-12.73-22.93 64.69 64.69 0 01-4.29-25.81 49.48 49.48 0 012.39-12.89A41.64 41.64 0 0191 0l.25.18a45.55 45.55 0 00-6.59 24.26 64.76 64.76 0 005 24.63 95.5 95.5 0 0012.43 22c5 6.7 11.39 12.6 19.15 15.47h-.81a97.66 97.66 0 0019.13-7.92A100.15 100.15 0 00157 67a73.89 73.89 0 0014.1-15.34A70.48 70.48 0 00179.93 33l1.92 1.3a75.91 75.91 0 00-11.2 11.95 84.07 84.07 0 00-8.76 13.9 133.76 133.76 0 00-6.51 15.21c-1.87 5.21-3.37 10.55-4.83 15.93z"/><path d="M91.12.09a35.12 35.12 0 017.19 13.13 45.65 45.65 0 011.86 15A56.36 56.36 0 0191 56.53c3.24-9.38 5.79-18.79 6.14-28.41A55.36 55.36 0 0091.12.09zm0 89.28a114.41 114.41 0 0016.4-13.76 116.46 116.46 0 0013.82-16.2 112.24 112.24 0 0010.93-18.18c3.23-6.32 5.37-13.08 7.52-19.81l2.9.74c-.58 2.9-1.29 5.77-1.75 8.69s-.93 5.84-1 8.8l-.28 4.42v4.43c-.08 3 .21 5.91.41 8.86a92.84 92.84 0 003.43 17.43 72.36 72.36 0 006.91 16.45 65.45 65.45 0 01-8.23-16 87.55 87.55 0 01-4.32-17.6 86.08 86.08 0 01-.66-18.15c.05-3 .6-6 .92-9.06s1.12-6 1.66-8.95l2.9.74a108 108 0 01-7.81 20.3 107.81 107.81 0 01-11.5 18.42 119.12 119.12 0 01-14.75 15.86 97.72 97.72 0 01-17.5 12.57z"/></symbol><symbol viewBox="0 0 848.6 372.57" id="logo" xmlns="http://www.w3.org/2000/svg"><path class="fa" d="M29.79 173.08H0v83.34h13.37v-39.7h16.42c19.15 0 30.58-8.07 30.58-21.59s-11.72-22.05-30.58-22.05zm-16.42 2.54h14.41c12.84 0 18.69 10.12 18.69 19.51 0 13.15-9.45 19-18.82 19H13.37zm127.25 46.83l6.81 34h13.67L155.3 228c-1.36-7.29-6.76-12.54-14.53-14.44 11.86-2.77 18.55-9.81 18.55-19.77 0-12.36-13-20.66-32.46-20.66h-28v83.34h13.37v-41.61h17.57c5.3 0 10.05 3.33 10.82 7.59zm-28.44-46.83h14.28c13 0 19 9.39 19 18.12 0 7.46-5.09 18.58-19.09 18.58h-14.19zm149.69 78.25H215.4v-38.43h27.38v-2.54H215.4v-37.27h46.47v-2.55h-59.84v83.34h59.84v-2.55zm94.54-21.48c0-18.82-15.37-22.14-30.23-25.36l-1.25-.27c-14.47-3.18-25.54-6.42-25.54-16.62 0-9.18 10.67-16.38 24.3-16.38 9 0 17.74 3.59 22.75 9.36l.53.61 2-1.76-.55-.62c-5.73-6.34-15-10.13-24.91-10.13-16.87 0-30.59 10.78-30.59 24 0 17.63 14.51 20.88 28.62 24s27.2 5.91 27.2 18.58c0 10-11.2 17.88-25.5 17.88-9.86 0-19.67-4.12-25-10.5l-.52-.64-2 1.77.53.61c6.15 7.08 16.36 11.31 27.32 11.31 18.1.05 32.84-11.56 32.84-25.84zm41.11-59.31h13.37v83.35h-13.37zm85.6 0h-26.45v83.34h26.45c27.21 0 46.21-17.13 46.21-41.67s-19-41.67-46.21-41.67zM470 175.62h12.28c19.48 0 32.57 15.73 32.57 39.13s-13.09 39.12-32.57 39.12H470zm98.43 80.8h59.84v-2.55H581.8v-38.43h27.38v-2.54H581.8v-37.27h46.47v-2.55h-59.84v83.34zm165.58-18.94l-53.59-64.11-.24-.29h-13.47v83.34h2.95v-75.91l64.41 76.32.24.29h2.66v-84.04h-2.96v64.4zm38.99-64.4v2.55h31.11v80.79h13.37v-80.79h31.12v-2.55H773zM137.53 288.99h31.12v80.8h13.37v-80.8h31.11v-2.55h-75.6v2.55zm153.59 37.88c11.86-2.77 18.55-9.81 18.55-19.77 0-12.36-13-20.66-32.46-20.66h-28v83.35h13.38v-41.57h17.61c5.3 0 10.05 3.33 10.83 7.6l6.8 34h13.67l-5.79-28.48c-1.41-7.34-6.82-12.56-14.59-14.47zM262.54 289h14.28c13 0 18.95 9.38 18.95 18.11 0 7.47-5.08 18.58-19.09 18.58h-14.14zm119.89-4.42h-2.26l-37.57 85.21h3.11l11.88-26.94h36.33l11.76 26.94H420l-37.36-84.73zm-23.72 55.72l16.66-37.73 17.29 37.73zm120.94 14.16l-28.24-67.53-.21-.49h-14.17l35.86 85.64.21.49h2.14l36.07-86.13h-3.09l-28.57 68.02zm66.75 15.33h59.84v-2.55h-46.47v-38.43h27.37v-2.55h-27.37v-37.27h46.47v-2.55H546.4v83.35zm111.65-83.35h-13.37v83.35h59.84v-2.55h-46.47v-80.8z"/></symbol><symbol viewBox="0 0 636.9 17.32" id="luxury" xmlns="http://www.w3.org/2000/svg"><path class="ga" d="M253.65 15.17h7.41v2h-9.72V0h2.31zm23.79.11a4.77 4.77 0 001.9-.36 4 4 0 001.42-1 4.4 4.4 0 00.88-1.54 6.21 6.21 0 00.31-2V0h2.3v10.41a7.88 7.88 0 01-.47 2.74 6.56 6.56 0 01-1.35 2.2 6.28 6.28 0 01-2.15 1.45 8 8 0 01-5.68 0 6.28 6.28 0 01-2.15-1.45 6.42 6.42 0 01-1.36-2.2 7.88 7.88 0 01-.47-2.74V0h2.3v10.39a6.23 6.23 0 00.31 2 4.49 4.49 0 00.88 1.54 4.12 4.12 0 001.43 1 4.77 4.77 0 001.9.35zm21.93-6.95L293.72 0H296a.61.61 0 01.37.09.81.81 0 01.22.23l4.46 6.86a3.67 3.67 0 01.25-.55l4.25-6.26a1.25 1.25 0 01.23-.27.48.48 0 01.31-.1h2.21l-5.68 8.22 5.87 8.9h-2.29a.56.56 0 01-.42-.14 1.13 1.13 0 01-.24-.3L301 9.5a3.33 3.33 0 01-.21.48l-4.47 6.7a1.81 1.81 0 01-.25.3.49.49 0 01-.39.14h-2.15zm25.21 6.95a4.77 4.77 0 001.9-.36 4 4 0 001.42-1 4.4 4.4 0 00.88-1.54 6.21 6.21 0 00.31-2V0h2.3v10.41a7.88 7.88 0 01-.47 2.74 6.56 6.56 0 01-1.35 2.2 6.28 6.28 0 01-2.15 1.45 8 8 0 01-5.68 0 6.28 6.28 0 01-2.15-1.45 6.42 6.42 0 01-1.36-2.2 7.88 7.88 0 01-.47-2.74V0h2.3v10.39a6.23 6.23 0 00.31 2 4.49 4.49 0 00.88 1.54 4.12 4.12 0 001.43 1 4.77 4.77 0 001.9.35zm20.5-5.28v7.14h-2.3V0h4.84a10.49 10.49 0 012.8.33 5.51 5.51 0 012 1 3.8 3.8 0 011.14 1.5 5.12 5.12 0 01.37 2 5 5 0 01-.29 1.69 4.5 4.5 0 01-.83 1.42 5.25 5.25 0 01-1.33 1.07 6.63 6.63 0 01-1.77.66 2.39 2.39 0 01.76.73l5 6.8h-2.06a1 1 0 01-.93-.49l-4.48-6.2a1.51 1.51 0 00-.44-.41 1.67 1.67 0 00-.72-.12zm0-1.69h2.43a6 6 0 001.78-.24 3.62 3.62 0 001.29-.7 2.8 2.8 0 00.79-1.07 3.56 3.56 0 00.26-1.37 2.72 2.72 0 00-1-2.3 4.84 4.84 0 00-3-.78h-2.54zm26.61 2v6.81h-2.31v-6.81L363.11 0h2a.69.69 0 01.49.16 1.47 1.47 0 01.31.38l3.92 6.65c.16.28.29.55.4.79s.2.49.29.73c.09-.25.18-.49.29-.74a5.67 5.67 0 01.39-.78l3.94-6.65a1.62 1.62 0 01.29-.37.73.73 0 01.49-.17H378zm197.06-.35H399v-.73h237.9l-68.15.73zm-343.52 0H55.26L0 9.23h225.23v.73z"/></symbol><symbol viewBox="0 0 578.106 578.106" id="phone" xmlns="http://www.w3.org/2000/svg"><path d="M577.83 456.128c1.225 9.385-1.635 17.545-8.568 24.48l-81.396 80.781c-3.672 4.08-8.465 7.551-14.381 10.404-5.916 2.857-11.729 4.693-17.439 5.508-.408 0-1.635.105-3.676.309-2.037.203-4.689.307-7.953.307-7.754 0-20.301-1.326-37.641-3.979s-38.555-9.182-63.645-19.584c-25.096-10.404-53.553-26.012-85.376-46.818-31.823-20.805-65.688-49.367-101.592-85.68-28.56-28.152-52.224-55.08-70.992-80.783-18.768-25.705-33.864-49.471-45.288-71.299-11.425-21.828-19.993-41.616-25.705-59.364S4.59 177.362 2.55 164.51-.306 141.56.102 134.216c.408-7.344.612-11.424.612-12.24.816-5.712 2.652-11.526 5.508-17.442s6.324-10.71 10.404-14.382L98.022 8.756c5.712-5.712 12.24-8.568 19.584-8.568 5.304 0 9.996 1.53 14.076 4.59s7.548 6.834 10.404 11.322l65.484 124.236c3.672 6.528 4.692 13.668 3.06 21.42-1.632 7.752-5.1 14.28-10.404 19.584l-29.988 29.988c-.816.816-1.53 2.142-2.142 3.978s-.918 3.366-.918 4.59c1.632 8.568 5.304 18.36 11.016 29.376 4.896 9.792 12.444 21.726 22.644 35.802s24.684 30.293 43.452 48.653c18.36 18.77 34.68 33.354 48.96 43.76 14.277 10.4 26.215 18.053 35.803 22.949 9.588 4.896 16.932 7.854 22.031 8.871l7.648 1.531c.816 0 2.145-.307 3.979-.918 1.836-.613 3.162-1.326 3.979-2.143l34.883-35.496c7.348-6.527 15.912-9.791 25.705-9.791 6.938 0 12.443 1.223 16.523 3.672h.611l118.115 69.768c8.571 5.308 13.67 12.038 15.303 20.198z"/></symbol><symbol viewBox="0 0 848.6 87.06" id="president" xmlns="http://www.w3.org/2000/svg"><path class="ia" d="M29.79 1.86H0V85.2h13.37V45.5h16.42c19.15 0 30.58-8.07 30.58-21.59S48.65 1.86 29.79 1.86zM13.37 4.41h14.41c12.84 0 18.69 10.11 18.69 19.5 0 13.16-9.45 19-18.82 19H13.37zm127.25 46.83l6.81 34h13.67l-5.8-28.47c-1.36-7.29-6.76-12.53-14.53-14.44 11.86-2.77 18.55-9.81 18.55-19.77 0-12.36-13-20.66-32.46-20.66h-28v83.3h13.37V43.64h17.57c5.3 0 10.05 3.36 10.82 7.6zM112.18 4.41h14.28c13 0 19 9.38 19 18.11 0 7.47-5.09 18.58-19.09 18.58h-14.19zm149.69 78.25H215.4V44.23h27.38v-2.55H215.4V4.41h46.47V1.86h-59.84V85.2h59.84v-2.54zm94.54-21.48c0-18.82-15.37-22.15-30.23-25.37l-1.25-.27c-14.47-3.18-25.54-6.42-25.54-16.62 0-9.18 10.67-16.37 24.3-16.37 9 0 17.74 3.58 22.75 9.36l.53.61 2-1.77-.55-.61C342.73 3.79 333.42 0 323.55 0 306.68 0 293 10.78 293 24c0 17.62 14.51 20.87 28.62 24s27.2 5.91 27.2 18.58c0 10-11.2 17.89-25.5 17.89-9.86 0-19.67-4.13-25-10.51l-.52-.64-2 1.77.53.61c6.15 7.08 16.36 11.31 27.32 11.31 18.02.05 32.76-11.56 32.76-25.83zm41.11-59.32h13.37v83.35h-13.37zm85.6 0h-26.45V85.2h26.45c27.21 0 46.21-17.13 46.21-41.67s-19-41.67-46.21-41.67zM470 4.41h12.28c19.48 0 32.57 15.72 32.57 39.12s-13.05 39.13-32.53 39.13H470zm98.43 80.79h59.84v-2.54H581.8V44.23h27.38v-2.55H581.8V4.41h46.47V1.86h-59.84V85.2zm165.58-18.94L680.42 2.15l-.24-.29h-13.47V85.2h2.95V9.29l64.41 76.32.24.29h2.66V1.86h-2.96v64.4zM773 1.86v2.55h31.11V85.2h13.37V4.41h31.12V1.86H773z"/></symbol><symbol viewBox="0 0 14 14" id="search" xmlns="http://www.w3.org/2000/svg"><path d="M11.184 10.025a5.67 5.67 0 001.16-3.478c0-3.23-2.568-5.88-5.797-5.88-3.23 0-5.88 2.65-5.88 5.88s2.65 5.88 5.88 5.88c1.325 0 2.567-.415 3.478-1.16l2.484 2.485a.895.895 0 00.58.248.895.895 0 00.58-.248.8.8 0 000-1.16l-2.485-2.567zm-4.637.662c-2.32 0-4.224-1.822-4.224-4.14a4.241 4.241 0 014.224-4.224c2.318 0 4.223 1.905 4.223 4.224 0 2.318-1.905 4.14-4.223 4.14z"/></symbol><symbol viewBox="0 0 566.99 87.99" id="travel" xmlns="http://www.w3.org/2000/svg"><path class="ka" d="M0 4.41h31.11V85.2h13.37V4.41H75.6V1.86H0v2.55zm153.59 37.88c11.86-2.77 18.55-9.81 18.55-19.77 0-12.36-13-20.66-32.46-20.66h-28.05V85.2H125V43.64h17.62c5.3 0 10 3.33 10.82 7.6l6.81 34h13.67l-5.8-28.47c-1.36-7.33-6.76-12.57-14.53-14.48zM125 4.41h14.28c13 0 19 9.38 19 18.11 0 7.47-5.09 18.58-19.09 18.58H125zM244.9 0h-2.26l-37.57 85.2h3.11l11.88-26.93h36.33l11.75 26.93h14.33L245.11.48zm-23.72 55.72L237.84 18l17.28 37.73zm120.94 14.16L313.88 2.35l-.21-.49H299.5l35.86 85.64.21.49h2.14l36.07-86.13h-3.09l-28.57 68.02zm66.75 15.32h59.84v-2.54h-46.47V44.23h27.37v-2.55h-27.37V4.41h46.47V1.86h-59.84V85.2zM520.52 1.86h-13.37V85.2h59.84v-2.54h-46.47V1.86z"/></symbol><symbol viewBox="0 0 433.58 17.5" id="worldwide" xmlns="http://www.w3.org/2000/svg"><path class="la" d="M13.4.19v2H7.87v15.12H5.55V2.14H0V.19zm12.15 9.98v7.14h-2.3V.19h4.84a10.49 10.49 0 012.8.33 5.51 5.51 0 012 1A3.88 3.88 0 0134 3a5.12 5.12 0 01.37 2 4.92 4.92 0 01-.29 1.69 4.5 4.5 0 01-.83 1.42 5.08 5.08 0 01-1.33 1.07 6.63 6.63 0 01-1.77.66 2.52 2.52 0 01.77.73l5 6.8h-2.08a1 1 0 01-.93-.49l-4.44-6.11a1.33 1.33 0 00-.44-.42 1.67 1.67 0 00-.72-.12zm0-1.69H28a5.94 5.94 0 001.78-.24 3.75 3.75 0 001.3-.7 2.92 2.92 0 00.78-1.06 3.65 3.65 0 00.24-1.38 2.72 2.72 0 00-1-2.3 4.84 4.84 0 00-3-.78h-2.55zm34.1 8.83h-1.79a.81.81 0 01-.51-.15 1 1 0 01-.28-.4l-1.6-4.13h-7.68l-1.6 4.13a1 1 0 01-.29.38.78.78 0 01-.5.17h-1.8L50.45.19h2.35zM48.43 11h6.39l-2.69-7a14.89 14.89 0 01-.51-1.61c-.09.32-.17.63-.26.9s-.16.52-.24.72zM65.37.19h1.85a.82.82 0 01.51.16.93.93 0 01.27.39l4.84 12.08a8.22 8.22 0 01.3.88c.1.32.19.65.27 1 .08-.35.15-.68.24-1a6.48 6.48 0 01.29-.88L78.76.74a1.1 1.1 0 01.29-.38.78.78 0 01.5-.17h1.87l-7 17.12h-2.07zm35.95 0v1.89H93.1v5.69h6.65v1.81H93.1v5.84h8.22v1.89H90.77V.19zm12.82 15.18h7.4v1.94h-9.72V.19h2.32zm19.45 0H141v1.94h-9.72V.19h2.32zm19.87 1.94h-2.31V.19h2.31zM166.87.27a1.21 1.21 0 01.35.32l9.91 12.9V.19h2v17.12h-1.17a.92.92 0 01-.46-.1 1.15 1.15 0 01-.36-.32L167.2 4v13.31h-2V.19h1.19a1.05 1.05 0 01.48.08zm31.22 15.36a12.3 12.3 0 001.27-.07 8.82 8.82 0 001.09-.19 9.18 9.18 0 001-.32c.3-.13.6-.27.91-.43v-3.77h-2.66a.53.53 0 01-.36-.13.45.45 0 01-.14-.33V9.08h5.26v6.57a9.28 9.28 0 01-1.35.81 8.54 8.54 0 01-1.49.58 10.87 10.87 0 01-1.7.35 15.18 15.18 0 01-2 .11 8.83 8.83 0 01-3.42-.64 7.84 7.84 0 01-2.68-1.79 8.34 8.34 0 01-1.75-2.76 9.91 9.91 0 01-.62-3.55 9.91 9.91 0 01.61-3.57 7.86 7.86 0 011.76-2.77 7.77 7.77 0 012.76-1.78A9.72 9.72 0 01198.2 0a11.14 11.14 0 011.89.15 8.73 8.73 0 011.62.43 7.38 7.38 0 011.38.68 8.75 8.75 0 011.18.9l-.65 1a.61.61 0 01-.53.33.92.92 0 01-.42-.13L202 3a5.34 5.34 0 00-.9-.46 7.46 7.46 0 00-1.25-.38 8.67 8.67 0 00-1.72-.16 7 7 0 00-2.61.47 5.49 5.49 0 00-2 1.35A5.79 5.79 0 00192.26 6a8.18 8.18 0 00-.45 2.8 8.59 8.59 0 00.46 2.89 6.14 6.14 0 001.3 2.16 5.63 5.63 0 002 1.35 6.72 6.72 0 002.52.43zM225 .19h2a.86.86 0 01.51.16.73.73 0 01.28.39l3.53 11.9a7 7 0 01.17.69q.09.38.15.78c.06-.27.12-.53.17-.78s.12-.48.19-.69l4-11.9a1 1 0 01.28-.38.8.8 0 01.51-.17h.67a.83.83 0 01.79.55l4 11.9a12 12 0 01.38 1.42c0-.26.09-.51.13-.75a4.38 4.38 0 01.16-.67l3.52-11.9a.75.75 0 01.27-.38.8.8 0 01.51-.17H249l-5.34 17.12h-2.07l-4.34-13a6.68 6.68 0 01-.24-.87c0 .16-.08.32-.11.46s-.08.29-.12.41l-4.36 13.05h-2.08zm49.35 8.57a9.8 9.8 0 01-.61 3.53 8 8 0 01-1.74 2.76 7.5 7.5 0 01-2.67 1.8 9.59 9.59 0 01-6.89 0 7.55 7.55 0 01-2.66-1.8 8.11 8.11 0 01-1.72-2.76 9.8 9.8 0 01-.61-3.53 9.8 9.8 0 01.61-3.53 8.16 8.16 0 011.72-2.77 7.71 7.71 0 012.68-1.81 9.45 9.45 0 016.89 0A7.66 7.66 0 01272 2.46a8 8 0 011.72 2.77 9.8 9.8 0 01.63 3.53zm-2.38 0a8.58 8.58 0 00-.43-2.83 6 6 0 00-1.21-2.13 5.43 5.43 0 00-1.92-1.33 7 7 0 00-5 0 5.43 5.43 0 00-1.92 1.33 5.86 5.86 0 00-1.22 2.13 8.58 8.58 0 00-.43 2.83 8.52 8.52 0 00.43 2.82 5.82 5.82 0 001.22 2.12 5.16 5.16 0 001.92 1.3 7 7 0 005 0 5.16 5.16 0 001.92-1.32 6 6 0 001.21-2.12 8.52 8.52 0 00.46-2.8zm15.26 1.41v7.14h-2.31V.19h4.84a10.57 10.57 0 012.81.33 5.38 5.38 0 011.95 1A3.69 3.69 0 01295.66 3a4.94 4.94 0 01.37 2 4.91 4.91 0 01-.28 1.69 4.5 4.5 0 01-.83 1.42 5.44 5.44 0 01-1.33 1.07 6.63 6.63 0 01-1.77.66 2.5 2.5 0 01.76.73l5 6.8h-2.06a1 1 0 01-.93-.49l-4.44-6.11a1.35 1.35 0 00-.45-.42 1.65 1.65 0 00-.71-.12zm0-1.69h2.42a6 6 0 001.79-.24 3.71 3.71 0 001.29-.7 2.71 2.71 0 00.78-1.06 3.47 3.47 0 00.27-1.38 2.72 2.72 0 00-1-2.3 4.89 4.89 0 00-3-.78h-2.53zm22.33 6.89H317v1.94h-9.73V.19h2.32zm31.97-6.61a9.78 9.78 0 01-.61 3.5A7.85 7.85 0 01339.2 15a7.63 7.63 0 01-2.67 1.74 9.24 9.24 0 01-3.44.61h-6.4V.19h6.4a9.24 9.24 0 013.44.62 7.63 7.63 0 012.67 1.74 7.9 7.9 0 011.72 2.71 9.78 9.78 0 01.61 3.5zm-2.38 0a8.52 8.52 0 00-.43-2.82 5.87 5.87 0 00-1.22-2.1 5 5 0 00-1.91-1.32 6.66 6.66 0 00-2.5-.45H329v13.37h4.07a6.47 6.47 0 002.5-.46 5.23 5.23 0 001.91-1.3 6 6 0 001.22-2.1 8.52 8.52 0 00.45-2.82zM349.94.19h1.92a.87.87 0 01.52.16.77.77 0 01.27.39l3.54 11.9c.06.22.12.45.17.69s.1.51.15.78c.05-.27.11-.53.16-.78a5.67 5.67 0 01.2-.69l4-11.9a1 1 0 01.28-.38.8.8 0 01.51-.17h.67a.82.82 0 01.51.16.85.85 0 01.28.39l4 11.9a12 12 0 01.38 1.42c.05-.26.09-.51.13-.75a6 6 0 01.16-.67l3.57-11.9a.75.75 0 01.27-.38.8.8 0 01.5-.17h1.81l-5.34 17.12h-2.08l-4.34-13q-.12-.37-.24-.87c0 .16-.07.32-.11.46s-.07.29-.11.41l-4.36 13.05h-2.08zm36.17 17.12h-2.32V.19h2.32zm26.6-8.55a9.78 9.78 0 01-.61 3.5 7.85 7.85 0 01-1.72 2.7 7.72 7.72 0 01-2.67 1.74 9.24 9.24 0 01-3.44.61h-6.4V.19h6.4a9.24 9.24 0 013.44.62 7.72 7.72 0 012.67 1.74 7.9 7.9 0 011.72 2.71 9.78 9.78 0 01.61 3.5zm-2.38 0a8.79 8.79 0 00-.43-2.82 6 6 0 00-1.22-2.1 5.12 5.12 0 00-1.91-1.32 6.66 6.66 0 00-2.5-.45h-4.07v13.37h4.07a6.47 6.47 0 002.5-.46 5.32 5.32 0 001.91-1.3 6.11 6.11 0 001.22-2.1 8.79 8.79 0 00.43-2.82zM433.58.19v1.89h-8.22v5.69H432v1.81h-6.65v5.84h8.22v1.89H423V.19z"/></symbol></svg>