<?xml version="1.0"?>
<svg xmlns="http://www.w3.org/2000/svg" height="512px" viewBox="0 -70 406 406" width="512px"><path d="m331.152344 222.921875c12.34375.023437 23.582031-7.101563 28.820312-18.277344 5.242188-11.171875 3.539063-24.371093-4.367187-33.84375-7.910157-9.476562-20.589844-13.515625-32.519531-10.359375 15.785156 17.433594 15.785156 43.992188 0 61.425782 2.632812.695312 5.34375 1.050781 8.066406 1.054687zm0 0" fill="#ef4060"/><path d="m289.152344 222.921875c17.546875 0 31.769531-14.222656 31.769531-31.769531 0-17.542969-14.222656-31.765625-31.769531-31.765625-17.542969 0-31.765625 14.222656-31.765625 31.765625-.042969 8.441406 3.292969 16.542968 9.257812 22.511718 5.96875 5.964844 14.070313 9.300782 22.507813 9.257813zm0 0" fill="#ef4060"/><path d="m0 233c.0195312 18.214844 14.785156 32.980469 33 33h340c18.214844-.019531 32.980469-14.785156 33-33v-127.460938h-406zm289.152344-87.613281c7.308594-.007813 14.511718 1.746093 21 5.105469 19.257812-9.949219 42.851562-5.027344 56.523437 11.792968 13.671875 16.816406 13.671875 40.921875 0 57.738282-13.671875 16.820312-37.265625 21.742187-56.523437 11.792968-16.863282 8.710938-37.351563 6.109375-51.5-6.539062-14.152344-12.648438-19.027344-32.71875-12.257813-50.449219s23.78125-29.445313 42.757813-29.441406zm0 0" fill="#ef4060"/><path d="m0 62.460938h406v29.078124h-406zm0 0" fill="#ef4060"/><path d="m373 0h-340c-18.214844.0195312-32.9804688 14.785156-33 33v15.460938h406v-15.460938c-.019531-18.214844-14.785156-32.9804688-33-33zm0 0" fill="#ef4060"/></svg>
