<?xml version="1.0" encoding="iso-8859-1"?>
<!-- Generator: Adobe Illustrator 19.0.0, SVG Export Plug-In . SVG Version: 6.00 Build 0)  -->
<svg xmlns="http://www.w3.org/2000/svg" xmlns:xlink="http://www.w3.org/1999/xlink" version="1.1" id="Capa_1" x="0px" y="0px" viewBox="0 0 56.48 56.48" style="enable-background:new 0 0 56.48 56.48;" xml:space="preserve" width="512px" height="512px">
<g>
	<g>
		<path d="M31.634,22.062h-6.607c-0.422,0.799-0.702,1.403-0.781,1.553h8.014C32.079,23.081,31.871,22.564,31.634,22.062z" fill="#ef4060"/>
	</g>
</g>
<g>
	<g>
		<path d="M21.678,25.909c-0.635,0-1.188,0.081-2.048,0.299l-0.225,1.279l0.143-0.037l0.246-0.062    c0.368-0.098,0.921-0.157,1.413-0.157c0.798,0,1.106,0.14,1.106,0.515c0,0.104-0.021,0.182-0.062,0.369    c-0.266-0.028-0.512-0.044-0.696-0.044c-1.904,0-3.01,0.809-3.01,2.189c0,0.918,0.635,1.551,1.557,1.551    c0.778,0,1.373-0.219,1.802-0.686l-0.041,0.588h1.433l0.02-0.154l0.021-0.195l0.041-0.288l0.061-0.36l0.369-2.018    c0.103-0.632,0.123-0.845,0.123-1.125C23.931,26.487,23.153,25.909,21.678,25.909z M20.819,30.607    c-0.389,0-0.614-0.228-0.614-0.579c0-0.574,0.492-0.864,1.454-0.864c0.123,0,0.205,0.003,0.39,0.022    C22.007,30.026,21.515,30.607,20.819,30.607z" fill="#ef4060"/>
	</g>
</g>
<g>
	<g>
		<polygon points="16.293,24.732 14.388,29.057 14.265,24.732 11.582,24.732 10.25,31.716 11.806,31.716 12.83,26.38 13.117,31.716     14.674,31.716 17.029,26.346 16.005,31.716 17.725,31.716 19.077,24.732   " fill="#ef4060"/>
	</g>
</g>
<g>
	<g>
		<path d="M47.568,31.193c-0.001-0.038-0.021-0.077-0.041-0.098c-0.041-0.02-0.082-0.022-0.102-0.022h-0.164v0.392h0.082v-0.153    h0.061l0.062,0.153h0.102l-0.061-0.17C47.548,31.278,47.568,31.236,47.568,31.193z M47.445,31.237    c-0.02,0.008-0.041,0.008-0.041,0.008h-0.062v-0.102h0.043c0.02,0,0.061,0,0.061,0.009c0.021,0.008,0.021,0.024,0.021,0.039    C47.467,31.208,47.465,31.228,47.445,31.237z" fill="#ef4060"/>
	</g>
</g>
<g>
	<g>
		<path d="M51.164,36.187c-0.002-0.039-0.021-0.078-0.042-0.098c-0.041-0.02-0.082-0.022-0.103-0.022h-0.163v0.392h0.082v-0.154    h0.061l0.062,0.154h0.103l-0.062-0.171C51.143,36.273,51.164,36.231,51.164,36.187z M51.04,36.231    c-0.021,0.008-0.041,0.008-0.041,0.008h-0.062v-0.101h0.041c0.021,0,0.062,0,0.062,0.008c0.021,0.008,0.021,0.025,0.021,0.039    C51.061,36.203,51.061,36.221,51.04,36.231z" fill="#ef4060"/>
	</g>
</g>
<g>
	<g>
		<path d="M55.026,9.939H1.454C0.65,9.939,0,10.59,0,11.393v33.695c0,0.803,0.65,1.454,1.454,1.454h53.572    c0.804,0,1.454-0.651,1.454-1.454V11.393C56.48,10.59,55.83,9.939,55.026,9.939z M51.409,36.518    c-0.042,0.076-0.099,0.134-0.173,0.175c-0.074,0.041-0.152,0.062-0.232,0.062c-0.082,0-0.16-0.021-0.234-0.062    c-0.073-0.041-0.131-0.099-0.174-0.175c-0.041-0.073-0.062-0.151-0.062-0.232s0.021-0.158,0.063-0.234    c0.041-0.076,0.101-0.133,0.175-0.174c0.075-0.039,0.151-0.06,0.231-0.06c0.079,0,0.155,0.021,0.229,0.06    c0.075,0.041,0.134,0.098,0.175,0.174c0.042,0.076,0.062,0.154,0.062,0.234S51.451,36.447,51.409,36.518z M52.457,28.241    c0.002,8.005-6.484,14.497-14.49,14.499c-3.744,0.001-7.158-1.418-9.73-3.749c-2.572,2.327-5.979,3.745-9.717,3.745    c-8.001,0-14.495-6.493-14.495-14.495c0-7.97,6.443-14.444,14.402-14.496c0.031,0,0.062,0,0.093,0    c3.738,0,7.146,1.418,9.718,3.745c2.571-2.328,5.981-3.747,9.722-3.748c8.006-0.003,14.497,6.486,14.499,14.492    C52.457,28.236,52.457,28.237,52.457,28.241z" fill="#ef4060"/>
	</g>
</g>
<g>
	<g>
		<path d="M29.673,18.987h-2.754c-0.37,0.5-0.718,1.032-1.033,1.552h4.913C30.458,19.997,30.081,19.479,29.673,18.987z" fill="#ef4060"/>
	</g>
</g>
<g>
	<g>
		<path d="M32.719,27.25c0.349,0,0.799,0.03,1.25,0.083l0.246-1.313c-0.451-0.062-1.127-0.112-1.537-0.112    c-1.924,0-2.602,0.874-2.601,1.919c0,0.716,0.41,1.211,1.331,1.583c0.695,0.283,0.799,0.367,0.799,0.627    c0,0.352-0.306,0.512-0.982,0.512c-0.534,0-1.004-0.07-1.558-0.224l-0.245,1.31l0.082,0.015l0.307,0.056    c0.102,0.02,0.266,0.037,0.471,0.051c0.409,0.03,0.715,0.047,0.941,0.047c1.844,0,2.684-0.599,2.684-1.894    c0-0.78-0.348-1.235-1.229-1.581c-0.717-0.287-0.799-0.352-0.799-0.618C31.879,27.406,32.165,27.25,32.719,27.25z" fill="#ef4060"/>
	</g>
</g>
<g>
	<g>
		<path d="M41.693,26.023c-0.083-0.02-0.145-0.031-0.145-0.034c-0.061-0.009-0.123-0.014-0.185-0.014    c-0.554,0-0.963,0.252-1.495,0.923l0.164-0.862h-1.557l-1.045,5.68h1.721c0.615-3.473,0.88-4.083,1.699-4.083    c0.062,0,0.123,0.005,0.205,0.014l0.205,0.042l0.617-1.604C41.734,26.03,41.713,26.03,41.693,26.023z" fill="#ef4060"/>
	</g>
</g>
<g>
	<g>
		<path d="M36.528,27.417h0.881l0.246-1.382h-0.88l0.246-1.304h-1.7l-0.799,4.336l-0.082,0.449l-0.103,0.559    c-0.021,0.18-0.041,0.35-0.041,0.509c0,0.806,0.471,1.248,1.352,1.248c0.389,0,0.758-0.056,1.229-0.185l0.225-1.26    c-0.121,0.037-0.265,0.055-0.45,0.055c-0.409,0-0.595-0.126-0.595-0.42c0-0.052,0-0.131,0.021-0.235L36.528,27.417z" fill="#ef4060"/>
	</g>
</g>
<g>
	<g>
		<path d="M47.404,30.828c-0.246,0-0.451,0.199-0.451,0.442c0,0.246,0.205,0.445,0.451,0.445c0.246,0,0.451-0.199,0.451-0.445    C47.855,31.028,47.65,30.828,47.404,30.828z M47.404,31.609c-0.184,0-0.348-0.151-0.348-0.339c0-0.186,0.164-0.336,0.348-0.336    c0.186,0,0.328,0.15,0.328,0.336C47.732,31.458,47.59,31.609,47.404,31.609z" fill="#ef4060"/>
	</g>
</g>
<g>
	<g>
		<path d="M44.537,25.874c-2.048,0-3.379,1.365-3.379,3.376c0,1.441,0.777,2.619,2.725,2.619c1.76,0,3.071-0.839,3.338-2.727    c0.041-0.33,0.041-0.353,0.041-0.705C47.262,26.995,46.32,25.874,44.537,25.874z M45.377,29.093    c-0.143,0.885-0.941,1.392-1.31,1.392c-0.615,0.012-0.983-0.507-0.983-1.278c0-0.912,0.532-1.947,1.413-1.947    c0.696,0,0.941,0.563,0.941,1.155C45.438,28.661,45.418,28.885,45.377,29.093z" fill="#ef4060"/>
	</g>
</g>
<g>
	<g>
		<path d="M29.337,29.361c0.145-0.576,0.207-0.984,0.207-1.404c0-1.259-0.902-2.062-2.314-2.062c-1.721,0-2.99,1.435-2.99,3.382    c-0.001,1.675,1.003,2.546,2.928,2.546c0.594,0,1.167-0.075,1.741-0.229l0.286-1.422c-0.614,0.25-1.167,0.361-1.782,0.361    c-0.983,0-1.495-0.335-1.495-0.993c0-0.053,0-0.092,0.021-0.179H29.337z M27.209,27.195c0.512,0,0.799,0.269,0.799,0.73    c0,0.076,0,0.17,0,0.292l-1.905-0.002C26.267,27.555,26.657,27.195,27.209,27.195z" fill="#ef4060"/>
	</g>
</g>
<g>
	<g>
		<path d="M24.818,34.362c0.251,0.538,0.544,1.051,0.856,1.552h5.143c0.312-0.499,0.594-1.016,0.844-1.552H24.818z" fill="#ef4060"/>
	</g>
</g>
<g>
	<g>
		<path d="M26.753,37.403c0.459,0.563,0.945,1.1,1.482,1.584c0.012-0.011,0.025-0.02,0.037-0.032h0.002    c0.528-0.481,1.021-0.999,1.472-1.552H26.753z" fill="#ef4060"/>
	</g>
</g>
<g>
</g>
<g>
</g>
<g>
</g>
<g>
</g>
<g>
</g>
<g>
</g>
<g>
</g>
<g>
</g>
<g>
</g>
<g>
</g>
<g>
</g>
<g>
</g>
<g>
</g>
<g>
</g>
<g>
</g>
</svg>
