<?xml version="1.0" encoding="utf-8"?><svg xmlns="http://www.w3.org/2000/svg" xmlns:xlink="http://www.w3.org/1999/xlink"><symbol viewBox="0 0 30 30" id="arrow-back-fill" xmlns="http://www.w3.org/2000/svg"><path d="M6.25 13.75h14.825L16.538 8.3a1.251 1.251 0 111.924-1.6l6.25 7.5c.043.06.08.122.113.188 0 .062 0 .1.088.162.056.143.086.296.087.45a1.25 1.25 0 01-.087.45c0 .063 0 .1-.088.163a1.43 1.43 0 01-.113.187l-6.25 7.5a1.25 1.25 0 01-.962.45 1.25 1.25 0 01-.962-2.05l4.537-5.45H6.25a1.25 1.25 0 010-2.5z"/></symbol><symbol viewBox="0 0 90 90" id="circles" xmlns="http://www.w3.org/2000/svg"><path d="M62.584 35.22l-2.077-1.392C55.87 30.835 50.538 29.234 45 29.234a27.978 27.978 0 00-15.507 4.664l-2.077 1.322-.07-2.714v-.766c0-11.972 6.508-22.83 17.032-28.26L45 3.202l.624.278c10.523 5.5 17.03 16.288 17.03 28.26v.696l-.069 2.785zM45 26.45a30.978 30.978 0 0114.885 3.829C59.33 20.186 53.723 11.206 45 6.334c-8.723 4.873-14.33 13.852-14.815 23.945A30.514 30.514 0 0145 26.45z"/><path d="M31.361 63.62a31.088 31.088 0 01-17.03-5.082l-.623-.417v-.766c.276-10.44 5.676-20.046 14.33-25.754l2.077-1.392.07 2.506c.276 10.58 6.23 20.115 15.507 24.918l2.354 1.253-2.354 1.253c-4.5 2.297-9.346 3.48-14.33 3.48zm-14.884-7.03c4.5 2.783 9.554 4.245 14.815 4.245 3.739 0 7.27-.696 10.662-2.088-8.031-5.22-13.362-13.852-14.4-23.457a29.319 29.319 0 00-11.077 21.3z"/><path d="M58.638 63.62c-5.054 0-9.83-1.184-14.33-3.48l-2.354-1.254 2.353-1.253c9.277-4.803 15.231-14.408 15.508-24.919l.07-2.505L61.96 31.6c8.654 5.708 13.985 15.313 14.262 25.754v.766l-.623.417a30.922 30.922 0 01-16.962 5.081zm-10.661-4.943a27.985 27.985 0 0010.661 2.089 27.795 27.795 0 0014.816-4.246c-.485-8.423-4.5-16.149-11.077-21.3-.97 9.675-6.3 18.307-14.4 23.457z"/><path d="M45 60.418l-.623-.348c-10.178-5.29-16.685-15.731-17.031-27.355v-.766l.623-.418a31.088 31.088 0 0117.03-5.08c6.024 0 11.908 1.74 17.031 5.08l.623.418v.766C62.307 44.339 55.8 54.78 45.623 60.07l-.623.348zM30.183 33.48C30.738 43.504 36.346 52.483 45 57.286c8.654-4.803 14.262-13.852 14.816-23.806A27.795 27.795 0 0045 29.234a27.795 27.795 0 00-14.815 4.246z"/><path d="M55.108 41.276h-2.354v-2.784h2.354v2.784zm-5.192 0h-2.77v-2.784h2.77v2.784zm-5.539 0h-2.77v-2.784h2.77v2.784zm-5.538 0h-2.77v-2.784h2.77v2.784z"/><path d="M31.361 63.62C14.055 63.62 0 49.35 0 31.81S14.054 0 31.361 0C48.67 0 62.724 14.27 62.724 31.81c-.07 17.54-14.123 31.81-31.361 31.81zm0-60.836C15.577 2.784 2.77 15.801 2.77 31.81s12.808 29.025 28.593 29.025c15.715 0 28.592-13.016 28.592-29.025C59.884 15.8 47.077 2.784 31.36 2.784z"/><path d="M58.638 63.62c-17.307 0-31.361-14.27-31.361-31.81C27.347 14.27 41.4 0 58.638 0 75.946 0 90 14.27 90 31.81S75.946 63.62 58.638 63.62zm0-60.836c-15.715 0-28.523 13.017-28.523 29.026s12.808 29.025 28.593 29.025C74.423 60.835 87.3 47.82 87.3 31.81 87.23 15.8 74.423 2.784 58.638 2.784z"/><path d="M45 90c-17.308 0-31.362-14.27-31.362-31.81 0-17.47 14.054-31.74 31.362-31.74 17.307 0 31.361 14.27 31.361 31.81S62.307 90 45 90zm0-60.766c-15.716 0-28.593 13.017-28.593 29.026 0 16.01 12.808 29.026 28.593 29.026 15.715 0 28.592-13.017 28.592-29.026 0-16.01-12.877-29.026-28.592-29.026z"/></symbol><symbol viewBox="0 0 82 90" id="circles-in-frame" xmlns="http://www.w3.org/2000/svg"><path d="M41 90l-2.929-.83C21.755 84.46 0 74.976 0 47.007V10.869L41 0l.349.07L82 10.87v36.069C82 74.977 60.245 84.462 43.929 89.1L41 90zM2.79 13.015v33.993c0 26.169 20.569 35.1 36.048 39.53l2.092.624 2.162-.624c15.48-4.43 36.05-13.361 36.05-39.53V13.015L41 2.838 2.79 13.015z"/><path d="M41 82.316l-.837-.208C11.157 73.8 7.461 58.985 7.461 46.938v-30.46L41 7.615l33.468 8.862v30.462c0 22.846-17.501 30.807-32.702 35.169l-.767.207zM10.25 18.623v28.385c0 11.008 3.486 24.715 30.68 32.469 14.294-4.085 30.68-11.492 30.68-32.47V18.624l-30.68-8.17-30.68 8.17z"/><path d="M41 66.877l-19.314-18.97c-2.51-2.492-3.905-5.745-3.905-9.276 0-3.531 1.394-6.785 3.905-9.277l.139-.139c2.51-2.492 5.857-3.807 9.413-3.807a13.52 13.52 0 019.413 3.807l.28.277.278-.277c2.51-2.492 5.857-3.807 9.414-3.807a13.52 13.52 0 019.413 3.807l.209.208c2.51 2.492 3.905 5.746 3.905 9.277 0 3.53-1.395 6.785-3.905 9.277L41 66.877zm-9.762-38.77c-2.789 0-5.508 1.108-7.46 3.047l-.14.138c-2.022 1.939-3.068 4.57-3.068 7.339s1.116 5.33 3.068 7.269L41 63l17.362-17.03c2.023-1.94 3.068-4.57 3.068-7.34 0-2.768-1.115-5.33-3.068-7.338l-.209-.138c-2.022-1.939-4.672-3.046-7.46-3.046-2.79 0-5.44 1.107-7.462 3.046l-2.23 2.215-2.302-2.215c-1.952-1.939-4.602-3.046-7.46-3.046z"/></symbol><symbol viewBox="0 0 16 16" id="close" xmlns="http://www.w3.org/2000/svg"><path d="M8.884 8.001l6.933-6.933a.625.625 0 10-.884-.884L8 7.117 1.067.184a.625.625 0 10-.884.884L7.116 8 .183 14.934a.625.625 0 10.884.884L8 8.885l6.933 6.933a.623.623 0 00.884 0 .625.625 0 000-.884L8.884 8.001z"/></symbol><symbol viewBox="0 0 90 79" id="hands-with-heart" xmlns="http://www.w3.org/2000/svg"><path d="M17.792 36.472h-2.77V24.705c-.415-2.271-2.007-4.68-4.291-4.68H8.723l-.139-2.752h2.077c3.877 0 6.439 3.578 7.062 7.088v12.111h.07z"/><path d="M36.97 62.072H34.2V54.57l-.623-9.634-12.738-12.8c-.347.344-.762.688-.762.688-1.454 1.376-2.146 4.129-.9 5.712l8.1 8.051-1.939 1.927-7.961-7.845-.277-.275-4.57-4.542-4.845-5.093V18.375c-.416-2.271-2.008-4.68-4.293-4.68H2.77l.208 19.682L18.97 60.215l-2.354 1.376L.277 34.132 0 11.08l1.315-.069h2.147c3.876 0 6.438 3.579 7.061 7.089v11.56l4.085 4.266 1.384 1.376a8.19 8.19 0 012.285-4.473c1.662-1.582 1.73-1.651 1.8-1.651l.97-.826 15.368 15.346.693 10.804v7.57h-.139z"/><path d="M42.785 79h-2.77V63.104H14.47V79H11.7V60.351h31.085V79zm32.192-42.528h-2.769V24.361c.554-3.51 3.185-7.088 7.061-7.088h2.078l-.139 2.752H79.2c-2.284 0-3.877 2.409-4.292 4.68v11.767h.07z"/><path d="M55.8 62.072h-2.77v-7.639l.693-10.735 15.37-15.346.968.826c.07.069.139.069 1.731 1.789 1.177 1.101 1.939 2.684 2.216 4.404l1.454-1.445 4.015-4.267V18.1c.554-3.51 3.184-7.088 7.061-7.088h2.077l1.247.137.138 1.239-.208 21.814L73.385 61.66l-2.354-1.377 15.992-26.838.208-19.68h-.623c-2.285 0-3.877 2.408-4.293 4.679V30.76l-4.846 5.093-4.569 4.542a.831.831 0 01-.346.344l-7.892 7.914-2.077-1.858.138-.207 8.1-8.051c1.108-1.583.416-4.267-.97-5.643 0 0-.345-.344-.691-.757l-12.739 12.73-.623 9.635v7.57z"/><path d="M78.3 79h-2.77V63.104H49.986V79h-2.77V60.351H78.3V79zM45.277 40.188L26.86 21.814c-4.915-4.954-4.915-13.006 0-17.96l.14-.138A12.66 12.66 0 0136 0a12.66 12.66 0 019 3.716l.208.206.207-.206a12.66 12.66 0 019-3.716 12.66 12.66 0 019 3.716l.139.138c4.915 4.954 4.915 13.006 0 17.892L45.277 40.188zM36 2.753a9.88 9.88 0 00-6.992 2.89l-.139.137c-3.877 3.854-3.877 10.185 0 14.039l16.408 16.378 16.338-16.31c3.877-3.853 3.877-10.184 0-14.038l-.138-.137a9.666 9.666 0 00-6.993-2.96 9.88 9.88 0 00-6.992 2.89l-2.215 2.203-2.216-2.202C41.192 3.785 38.7 2.753 36 2.753z"/></symbol></svg>