<svg width="22" height="26" fill="none" xmlns="http://www.w3.org/2000/svg"><path fill-rule="evenodd" clip-rule="evenodd" d="M16.17 21.581V2.003a1 1 0 112 0v19.581l1.13-1.129a.993.993 0 011.407.007 1 1 0 01.007 1.407l-2.842 2.842a.984.984 0 01-.697.289l-.008-.003a.985.985 0 01-.696-.286l-2.841-2.842a.993.993 0 01.006-1.407 1 1 0 011.408-.007l1.126 1.126zM5.83 4.42v19.578a1 1 0 11-2 0V4.416L2.7 5.545a.993.993 0 01-1.407-.007 1 1 0 01-.007-1.407l2.842-2.842A.984.984 0 014.825 1l.008.003c.254 0 .506.097.696.286L8.37 4.131a.993.993 0 01-.006 1.407 1 1 0 01-1.408.007L5.83 4.419z" fill="#1B3ACD" stroke="#1B3ACD"/></svg>