<svg width="27" height="26" fill="none" xmlns="http://www.w3.org/2000/svg"><path d="M22.465 17.652h0c-.877 3.966-4.642 6.86-8.966 6.86-4.323 0-8.088-2.894-8.965-6.859a.578.578 0 00-.565-.455h-.248a1.766 1.766 0 01-1.764-1.763c0-.971.792-1.763 1.764-1.763h.5a.58.58 0 00.55-.395c1.209-3.591 4.712-6.015 8.728-6.015.101 0 .202.003.305.006.17.025.346.043.529.043a.554.554 0 00.077-.005c3.627.335 6.7 2.654 7.818 5.971h0c.08.236.3.395.549.395h.501c.972 0 1.763.79 1.763 1.763 0 .972-.79 1.763-1.763 1.763h-.248a.58.58 0 00-.565.454zm.815-5.138h-.096c-1.443-3.737-5.096-6.25-9.283-6.402a2.398 2.398 0 01-1.964-2.353c0-.994.808-1.802 1.8-1.802.73 0 1.326.595 1.326 1.325 0 .52-.425.945-.945.945a.64.64 0 01-.639-.64.579.579 0 00-1.157 0c0 .991.805 1.797 1.796 1.797 1.16 0 2.102-.942 2.102-2.102A2.485 2.485 0 0013.738.8a2.962 2.962 0 00-2.958 2.959c0 .965.387 1.84 1.013 2.48-3.627.57-6.687 2.933-7.977 6.275h-.095s0 0 0 0A2.924 2.924 0 00.8 15.435c0 1.542 1.2 2.807 2.715 2.913 1.17 4.275 5.297 7.32 9.984 7.32 4.688 0 8.816-3.045 9.987-7.32a2.923 2.923 0 002.714-2.913 2.924 2.924 0 00-2.92-2.921z" fill="#1B3ACD" stroke="#1B3ACD" stroke-width=".4"/><path d="M16.673 18.061a1.165 1.165 0 100-2.33 1.165 1.165 0 000 2.33zm-5.998 0a1.165 1.165 0 100-2.33 1.165 1.165 0 000 2.33zm5.123 2.074h0l-.001.001-.147.091s0 0 0 0a4.075 4.075 0 01-4.299.001h0l-.149-.091h0a.63.63 0 00-.864.204h0a.63.63 0 00.204.865h0l.15.092s0 0 0 0c.865.533 1.835.8 2.807.8s1.944-.268 2.81-.8l.149-.092h0a.63.63 0 00.205-.866h0a.63.63 0 00-.865-.205z" fill="#1B3ACD" stroke="#1B3ACD" stroke-width=".5"/></svg>