<svg width="18" height="18" fill="none" xmlns="http://www.w3.org/2000/svg"><circle cx="9.279" cy="10.061" r="2.656" fill="#fff"/><path fill="#1B3ACD" d="M2.195 2.093h14.168v14.168H2.195z"/><path d="M9.212 4.68a4.313 4.313 0 00-4.31 4.312 4.313 4.313 0 004.31 4.31 4.313 4.313 0 004.311-4.31 4.312 4.312 0 00-4.31-4.311zm0 7.111a2.8 2.8 0 010-5.599 2.8 2.8 0 010 5.599zm5.492-7.284a1.01 1.01 0 01-1.007 1.008 1.01 1.01 0 01-1.008-1.008A1.01 1.01 0 0113.697 3.5a1.01 1.01 0 011.008 1.008zm2.856 1.025c-.04-.896-.185-1.506-.392-2.038a4.14 4.14 0 00-.969-1.49 4.092 4.092 0 00-1.489-.968c-.532-.207-1.142-.347-2.038-.392-.896-.04-1.181-.05-3.46-.05-2.278 0-2.564.01-3.46.05-.896.04-1.506.185-2.038.392a4.139 4.139 0 00-1.489.969 4.092 4.092 0 00-.968 1.489c-.208.532-.348 1.142-.392 2.038-.04.896-.05 1.181-.05 3.46 0 2.278.01 2.564.05 3.46.039.896.184 1.506.392 2.038a4.14 4.14 0 00.968 1.489c.465.465.935.756 1.49.968.531.207 1.141.348 2.037.392.896.04 1.182.05 3.46.05 2.279 0 2.564-.01 3.46-.05.896-.039 1.506-.184 2.038-.392a4.14 4.14 0 001.49-.968c.464-.465.755-.935.968-1.49.207-.531.347-1.142.392-2.037.039-.896.05-1.182.05-3.46 0-2.279-.011-2.564-.05-3.46zm-1.512 6.852c-.04.818-.173 1.266-.291 1.563a2.589 2.589 0 01-.627.963 2.52 2.52 0 01-.963.627c-.297.117-.739.252-1.562.29-.885.04-1.153.051-3.393.051-2.24 0-2.508-.011-3.393-.05-.817-.04-1.265-.174-1.562-.291a2.587 2.587 0 01-.963-.628 2.588 2.588 0 01-.627-.963c-.117-.296-.252-.739-.29-1.562-.04-.884-.051-1.153-.051-3.392 0-2.245.011-2.508.05-3.393.04-.817.174-1.265.291-1.562.152-.392.336-.672.627-.963.297-.291.571-.476.963-.627.297-.118.74-.252 1.562-.291.885-.04 1.154-.05 3.393-.05 2.245 0 2.508.01 3.393.05.817.039 1.265.173 1.562.29a2.6 2.6 0 01.963.628c.297.291.476.571.627.963.118.297.252.739.291 1.562.04.885.05 1.153.05 3.393 0 2.24-.01 2.508-.05 3.392z" fill="#fff"/></svg>