<svg width="31" height="31" fill="none" xmlns="http://www.w3.org/2000/svg"><path d="M29.726 21.182l-7.45-1.489c-.563-.113-1.348.126-1.755.531l-1.346 1.347c-.537.538-1.472.617-2.085.17-1.231-.903-2.92-2.12-4.314-3.515-1.395-1.396-2.612-3.085-3.516-4.316-.447-.612-.366-1.548.17-2.085l1.347-1.346c.406-.407.644-1.192.531-1.755L9.82 1.274C9.678.57 8.982 0 8.264 0H4.978C3.48 0 1.598 2.302.808 3.368c-.214.29-.452.814-.512 1.167-.378 2.227-1.754 9.308 7.553 18.617 9.308 9.308 16.39 7.93 18.617 7.554.353-.06.877-.3 1.166-.512C28.697 29.403 31 27.52 31 26.024v-3.285c0-.72-.571-1.417-1.274-1.557z" fill="#1B3ACD"/></svg>