<svg width="22" height="22" fill="none" xmlns="http://www.w3.org/2000/svg"><path d="M11 .85a10.15 10.15 0 100 20.3 10.15 10.15 0 000-20.3zm0 18.99A8.84 8.84 0 1119.84 11 8.865 8.865 0 0111 19.84z" fill="#1B3ACD" stroke="#1B3ACD" stroke-width=".3"/><path d="M13.701 13.085h0l-.01-.008-2.617-1.975V6.025a.655.655 0 00-1.31 0v5.404h0v.004a.68.68 0 00.26.518h0l.002.002 2.874 2.168c.055.048.12.085.188.108l.048-.142-.047.142a.55.55 0 00.217.027.681.681 0 00.514-.26l.005-.006.004-.007a.705.705 0 00-.128-.898z" fill="#1B3ACD" stroke="#1B3ACD" stroke-width=".3"/></svg>