<svg width="19" height="12" fill="none" xmlns="http://www.w3.org/2000/svg"><path d="M10.14 11.19c.449 0 .633-.3.627-.676-.022-1.414.527-2.176 1.52-1.183 1.098 1.098 1.325 1.859 2.658 1.859h2.362c.596 0 .83-.192.83-.493 0-.637-1.048-1.76-1.936-2.586-1.245-1.155-1.303-1.182-.231-2.572C17.299 3.813 19.037 1.6 17.5 1.6h-2.938c-.57 0-.611.321-.814.8-.734 1.731-2.13 3.975-2.66 3.631-.554-.357-.3-1.775-.258-3.882.011-.556.008-.937-.842-1.135a5.955 5.955 0 00-1.335-.15c-1.677 0-2.834.703-2.176.825 1.159.216 1.047 2.725.777 3.808-.47 1.886-2.24-1.494-2.977-3.177-.178-.404-.232-.719-.867-.719H1.008c-.363 0-.58.118-.58.381 0 .444 2.184 4.959 4.269 7.21 2.033 2.195 4.043 1.998 5.442 1.998z" fill="#1B3ACD"/></svg>