<?xml version="1.0" encoding="utf-8"?><svg xmlns="http://www.w3.org/2000/svg" xmlns:xlink="http://www.w3.org/1999/xlink"><symbol viewBox="0 0 56.48 56.48" id="american-express" xmlns="http://www.w3.org/2000/svg"><path d="M55.026 9.939H1.454C.65 9.939 0 10.59 0 11.393v33.694c0 .803.65 1.455 1.454 1.455h53.572c.804 0 1.454-.651 1.454-1.454V11.393c0-.803-.65-1.454-1.454-1.454zM13.894 26.663l-.168-.381v.021a.886.886 0 01-.886.886h-2.609a.887.887 0 01-.82-.549l-.267-.648H7.658l-.271.652a.885.885 0 01-.816.546H5.177a.888.888 0 01-.814-1.235l2.296-5.367a.887.887 0 01.815-.537h1.904c.355 0 .674.211.815.536l.481 1.122v-.771c0-.489.396-.886.886-.886h2.095c.344 0 .659.202.805.515l.839 1.822.762-1.796a.884.884 0 01.814-.541h2.138c.18 0 .337.067.478.159a.862.862 0 01.478-.159h4.284c.166 0 .313.058.444.137a.864.864 0 01.445-.137h2.95c.763 0 1.394.027 1.997.375.061.037.105.084.16.124a.882.882 0 01.789-.499h1.309c.443 0 .795.33.86.753.574-.497 1.356-.753 2.408-.753h1.241c.197 0 .382.065.529.176a.881.881 0 01.53-.176h1.921c.354 0 .673.212.814.537l.471 1.102v-.753c0-.489.397-.886.887-.886h1.953c.311 0 .598.162.758.428l.61 1.011v-.554c0-.489.398-.886.888-.886h1.312c.49 0 .886.397.886.886v5.367a.887.887 0 01-.886.886h-1.816a.887.887 0 01-.761-.428l-.787-1.305v.847a.887.887 0 01-.886.886h-2.611a.89.89 0 01-.818-.545l-.271-.652h-1.478l-.262.643a.882.882 0 01-.818.555h-1.502c-.571 0-1.593-.103-2.322-.714a.874.874 0 01-.852.714h-1.31a.875.875 0 01-.401-.107.853.853 0 01-.398.107h-1.294a.887.887 0 01-.887-.879l-.005-.677.002-.118c0-.072.002-.18-.004-.271a3.697 3.697 0 00-.249-.007h-.489v1.066a.886.886 0 01-.886.886H25.14a.867.867 0 01-.445-.137.855.855 0 01-.444.137h-4.284a.87.87 0 01-.478-.159.876.876 0 01-.478.159h-1.315a.885.885 0 01-.886-.885v-.022l-.17.38a.884.884 0 01-.81.528h-1.127a.885.885 0 01-.809-.529zm35.397 9.764h-2.498a.888.888 0 01-.815-.539c-.487.345-1.131.539-1.928.539h-2.498a.873.873 0 01-.385-.096.87.87 0 01-.384.096h-4.28a.848.848 0 01-.392-.1.871.871 0 01-.39.1h-1.287a.886.886 0 01-.887-.886v-.78a3.543 3.543 0 00-.004-.287 3.77 3.77 0 00-.26-.008h-.484v1.075c0 .49-.397.886-.886.886h-1.289a.886.886 0 01-.887-.886v-1.364c-.455.271-1.083.449-1.949.449h-.713v.915c0 .49-.397.886-.887.886h-2.493a.888.888 0 01-.663-.297l-.929-1.046-.979 1.06a.887.887 0 01-.65.285h-5.081a.887.887 0 01-.886-.887v-5.367c0-.491.397-.887.886-.887h5.158c.253 0 .492.106.659.294l.932 1.037.971-1.048a.885.885 0 01.65-.283h4.098c.898 0 1.53.199 1.979.493a.876.876 0 01.784-.493h2.962c.682 0 1.342.026 1.961.357.067.039.11.09.172.132a.875.875 0 01.781-.489h4.28c.332 0 .612.191.764.462.422-.286.982-.462 1.688-.462h2.57a.88.88 0 01.828.592c.44-.357 1.041-.592 1.842-.592h2.572c.489 0 .885.397.885.887v1.142c0 .313-.16.588-.405.746l.026.026c.44.452.64 1.01.64 1.76 0 1.614-1.083 2.58-2.899 2.578z"/><path d="M29.388 23.814c.334-.132.904-.575.904-1.43 0-.599-.244-.949-.648-1.189-.416-.24-.899-.257-1.554-.257h-2.95v5.367h1.284v-1.951h1.375c.462 0 .748.041.935.229.233.258.202.722.202 1.045l.006.677h1.294V25.25c0-.479-.031-.717-.213-.984-.114-.157-.354-.345-.635-.452zm-.772-.676c-.178.107-.386.11-.635.11h-1.559l.001-1.191h1.58c.222 0 .456.011.608.097.166.078.269.244.269.474 0 .234-.099.423-.264.51zm2.424-2.199h1.309v5.367H31.04zm15.177 0v3.738l-2.256-3.738h-1.953v5.076l-2.172-5.076h-1.921l-1.812 4.22h-.575c-.335 0-.697-.064-.894-.277-.241-.27-.353-.685-.353-1.259 0-.564.149-.99.368-1.216.254-.248.517-.318.988-.318h1.215v-1.15h-1.241c-.884 0-1.535.197-1.948.625-.55.575-.691 1.303-.691 2.099 0 .975.236 1.593.688 2.049.446.455 1.235.593 1.86.594h1.502l.482-1.197h2.664l.5 1.197h2.611v-4.028l2.434 4.028h1.816v-5.367h-1.312zm-8.254 3.05l.881-2.139.889 2.139h-1.77z"/><path d="M35.64 22.974c-.302-.001-.333.031-.37.066-.012.017-.102.21-.102.582 0 .368.059.545.102.625.045.012.128.026.252.026l.556-1.299h-.438zm5.142 8.31v-1.11h-4.28v5.368h4.28v-1.113l-3.004-.007v-1.066h2.93V32.26h-2.93v-.976zm-12.921-1.108h-4.098l-1.632 1.758-1.58-1.758h-5.158v5.367h5.081l1.642-1.777 1.58 1.777h2.493v-1.8h1.6c1.121 0 2.233-.308 2.233-1.799 0-1.486-1.143-1.77-2.161-1.768zm-8.036 4.25h-3.152v-1.068h2.815v-1.096h-2.815v-.976h3.215l1.403 1.563-1.466 1.577zm5.086.629l-1.97-2.188 1.97-2.116v4.304zm2.934-2.404h-1.656v-1.367h1.672c.464 0 .784.189.784.659 0 .465-.306.71-.8.708zm7.036.396c.336-.134.909-.57.911-1.429 0-.612-.255-.948-.658-1.192-.424-.225-.896-.252-1.545-.252h-2.961v5.367h1.288v-1.96h1.37c.468 0 .753.046.941.238.238.25.207.728.207 1.051v.671h1.287v-1.064c-.004-.473-.03-.717-.213-.979-.108-.155-.343-.347-.627-.451zm-.773-.667c-.172.102-.385.111-.635.111h-1.559v-1.206h1.58c.226 0 .456.005.612.097.166.087.265.254.265.483 0 .229-.099.416-.263.515zm11.576.328c-.295-.292-.773-.412-1.469-.428l-.689-.02c-.219 0-.363-.014-.5-.061a.412.412 0 01-.28-.4c0-.17.052-.299.194-.387.128-.087.279-.097.514-.097h2.352v-1.142h-2.57c-1.346 0-1.834.818-1.834 1.598 0 1.697 1.503 1.621 2.701 1.66.225 0 .359.037.457.119.09.076.156.198.156.355a.475.475 0 01-.15.35c-.108.102-.281.133-.523.133h-2.488v1.151h2.498c1.293 0 2.016-.539 2.016-1.694 0-.551-.135-.879-.385-1.137zm-28.81-11.771l-1.541 3.641-1.679-3.641H11.56v5.082l-2.183-5.082H7.473l-2.297 5.367h1.393l.498-1.197h2.67l.493 1.197h2.61v-4.207l1.863 4.206 1.129.001 1.86-4.203.005 4.203h1.315v-5.367h-2.138zm-9.35 3.052l.872-2.139.877 2.139H7.524zm16.726-1.934v-1.118h-4.284v5.368h4.284v-1.11h-3.002v-1.073h2.931v-1.099h-2.931v-.968zm26.674 10.653c-.293-.292-.772-.412-1.468-.428l-.69-.02c-.217 0-.362-.014-.5-.061a.414.414 0 01-.279-.4c0-.17.052-.299.193-.387.129-.087.281-.097.515-.097h2.353v-1.142h-2.572c-1.344 0-1.834.818-1.834 1.598 0 1.697 1.504 1.621 2.703 1.66.224 0 .357.037.457.119a.461.461 0 01.155.355.481.481 0 01-.149.35c-.109.102-.282.133-.524.133h-2.487v1.151h2.498c1.293 0 2.014-.539 2.014-1.694 0-.551-.133-.879-.385-1.137z"/></symbol><symbol class="absvg-inline--fa abfa-angle-right abfa-w-8" viewBox="0 0 256 512" id="arrow-right" xmlns="http://www.w3.org/2000/svg"><path d="M224.3 273l-136 136c-9.4 9.4-24.6 9.4-33.9 0l-22.6-22.6c-9.4-9.4-9.4-24.6 0-33.9l96.4-96.4-96.4-96.4c-9.4-9.4-9.4-24.6 0-33.9L54.3 103c9.4-9.4 24.6-9.4 33.9 0l136 136c9.5 9.4 9.5 24.6.1 34z"/></symbol><symbol viewBox="0 0 512 512" id="arrow-thin" xmlns="http://www.w3.org/2000/svg"><path d="M160 128.4L192.3 96 352 256 192.3 416 160 383.6 287.3 256z"/></symbol><symbol class="adsvg-inline--fa adfa-calendar-alt adfa-w-14" viewBox="0 0 448 512" id="calendar-alt-regular" xmlns="http://www.w3.org/2000/svg"><path d="M148 288h-40c-6.6 0-12-5.4-12-12v-40c0-6.6 5.4-12 12-12h40c6.6 0 12 5.4 12 12v40c0 6.6-5.4 12-12 12zm108-12v-40c0-6.6-5.4-12-12-12h-40c-6.6 0-12 5.4-12 12v40c0 6.6 5.4 12 12 12h40c6.6 0 12-5.4 12-12zm96 0v-40c0-6.6-5.4-12-12-12h-40c-6.6 0-12 5.4-12 12v40c0 6.6 5.4 12 12 12h40c6.6 0 12-5.4 12-12zm-96 96v-40c0-6.6-5.4-12-12-12h-40c-6.6 0-12 5.4-12 12v40c0 6.6 5.4 12 12 12h40c6.6 0 12-5.4 12-12zm-96 0v-40c0-6.6-5.4-12-12-12h-40c-6.6 0-12 5.4-12 12v40c0 6.6 5.4 12 12 12h40c6.6 0 12-5.4 12-12zm192 0v-40c0-6.6-5.4-12-12-12h-40c-6.6 0-12 5.4-12 12v40c0 6.6 5.4 12 12 12h40c6.6 0 12-5.4 12-12zm96-260v352c0 26.5-21.5 48-48 48H48c-26.5 0-48-21.5-48-48V112c0-26.5 21.5-48 48-48h48V12c0-6.6 5.4-12 12-12h40c6.6 0 12 5.4 12 12v52h128V12c0-6.6 5.4-12 12-12h40c6.6 0 12 5.4 12 12v52h48c26.5 0 48 21.5 48 48zm-48 346V160H48v298c0 3.3 2.7 6 6 6h340c3.3 0 6-2.7 6-6z"/></symbol><symbol viewBox="0 -36 512.001 512" id="cart" xmlns="http://www.w3.org/2000/svg"><path d="M256 219.988c5.52 0 10-4.48 10-10s-4.48-10-10-10-10 4.48-10 10 4.48 10 10 10zm0 0"/><path d="M472 139.988h-59.137L321.895 14.836c-8.172-14.004-26.172-18.988-40.47-11.07-14.491 8.05-19.702 26.304-11.648 40.8.23.41.485.805.77 1.18l71.351 94.242H170.102l71.351-94.242c.281-.375.54-.77.77-1.18 8.035-14.46 2.882-32.73-11.66-40.808-14.266-7.903-32.266-2.922-40.454 11.07l-90.972 125.16H40c-22.055 0-40 17.946-40 40 0 17.395 11.29 32.54 27.191 37.899a9.956 9.956 0 006.118 2.101c.46 0 .894.028 1.347.09a9.971 9.971 0 018.496 8.117l34.02 187.164c2.598 14.27 15.012 24.63 29.52 24.63h298.617c14.507 0 26.921-10.36 29.52-24.634L468.847 228.2a9.976 9.976 0 018.515-8.12c.438-.063.871-.09 1.328-.09a9.94 9.94 0 006.149-2.126c15.914-5.394 27.16-20.511 27.16-37.875 0-22.054-17.945-40-40-40zM286.988 34.328c-2.285-4.73-.511-10.492 4.137-13.07 4.84-2.684 10.941-.953 13.61 3.855.195.36.417.703.656 1.032l82.746 113.843H366.98zm-80.379-8.18c.239-.328.454-.668.653-1.02 2.676-4.812 8.781-6.546 13.601-3.878 4.657 2.586 6.438 8.34 4.149 13.078l-79.992 105.66h-21.157zM472 199.988H296c-5.523 0-10 4.477-10 10 0 5.524 4.477 9.899 10 9.899h154.398a30.359 30.359 0 00-1.226 4.633l-34.024 187.257a9.995 9.995 0 01-9.84 8.211H106.692a10 10 0 01-9.843-8.207l-34.02-187.164a30.19 30.19 0 00-1.226-4.629H216c5.523 0 10-4.476 10-10 0-5.523-4.477-10-10-10H40c-11.121 0-20-9.062-20-20 0-11.027 8.973-20 20-20h432c11.027 0 20 8.973 20 20 0 11.106-9.086 20-20 20zm0 0"/><path d="M256 249.988c-16.543 0-30 13.457-30 30v80c0 16.543 13.457 30 30 30s30-13.457 30-30v-80c0-16.574-13.426-30-30-30zm10 110c0 5.516-4.484 10-10 10s-10-4.484-10-10v-80c0-5.515 4.484-10 10-10 5.52 0 10 4.48 10 10zm90 30c16.543 0 30-13.457 30-30v-80c0-16.574-13.426-30-30-30-16.543 0-30 13.457-30 30v80c0 16.543 13.457 30 30 30zm-10-110c0-5.515 4.484-10 10-10 5.52 0 10 4.48 10 10v80c0 5.516-4.484 10-10 10s-10-4.484-10-10zm-190-30c-16.543 0-30 13.457-30 30v80c0 16.543 13.457 30 30 30s30-13.457 30-30v-80c0-16.574-13.426-30-30-30zm10 110c0 5.516-4.484 10-10 10s-10-4.484-10-10v-80c0-5.515 4.484-10 10-10 5.52 0 10 4.477 10 10zm0 0"/></symbol><symbol viewBox="0 -70 406 406" id="cash" xmlns="http://www.w3.org/2000/svg"><path d="M331.152 222.922a31.758 31.758 0 0028.82-18.277 31.764 31.764 0 00-4.367-33.844 31.775 31.775 0 00-32.52-10.36c15.786 17.434 15.786 43.993 0 61.426a31.77 31.77 0 008.067 1.055zm-42 0c17.547 0 31.77-14.223 31.77-31.77 0-17.543-14.223-31.765-31.77-31.765-17.543 0-31.765 14.222-31.765 31.765a31.617 31.617 0 009.258 22.512 31.615 31.615 0 0022.507 9.258zm0 0"/><path d="M0 233c.02 18.215 14.785 32.98 33 33h340c18.215-.02 32.98-14.785 33-33V105.54H0zm289.152-87.613a45.573 45.573 0 0121 5.105c19.258-9.949 42.852-5.027 56.524 11.793 13.672 16.817 13.672 40.922 0 57.738-13.672 16.82-37.266 21.743-56.524 11.793-16.863 8.711-37.351 6.11-51.5-6.539-14.152-12.648-19.027-32.718-12.257-50.449s23.78-29.445 42.757-29.441zM0 62.46h406v29.08H0zM373 0H33C14.785.02.02 14.785 0 33v15.46h406V33c-.02-18.215-14.785-32.98-33-33zm0 0"/></symbol><symbol class="agsvg-inline--fa agfa-check agfa-w-16" viewBox="0 0 512 512" id="check-white" xmlns="http://www.w3.org/2000/svg"><path d="M173.898 439.404l-166.4-166.4c-9.997-9.997-9.997-26.206 0-36.204l36.203-36.204c9.997-9.998 26.207-9.998 36.204 0L192 312.69 432.095 72.596c9.997-9.997 26.207-9.997 36.204 0l36.203 36.204c9.997 9.997 9.997 26.206 0 36.204l-294.4 294.401c-9.998 9.997-26.207 9.997-36.204-.001z"/></symbol><symbol class="ahsvg-inline--fa ahfa-chevron-down ahfa-w-14" viewBox="0 0 448 512" id="chevron-down-solid" xmlns="http://www.w3.org/2000/svg"><path d="M207.029 381.476L12.686 187.132c-9.373-9.373-9.373-24.569 0-33.941l22.667-22.667c9.357-9.357 24.522-9.375 33.901-.04L224 284.505l154.745-154.021c9.379-9.335 24.544-9.317 33.901.04l22.667 22.667c9.373 9.373 9.373 24.569 0 33.941L240.971 381.476c-9.373 9.372-24.569 9.372-33.942 0z"/></symbol><symbol class="aisvg-inline--fa aifa-clone aifa-w-16" viewBox="0 0 512 512" id="clone" xmlns="http://www.w3.org/2000/svg"><path d="M464 0H144c-26.51 0-48 21.49-48 48v48H48c-26.51 0-48 21.49-48 48v320c0 26.51 21.49 48 48 48h320c26.51 0 48-21.49 48-48v-48h48c26.51 0 48-21.49 48-48V48c0-26.51-21.49-48-48-48zM362 464H54a6 6 0 01-6-6V150a6 6 0 016-6h42v224c0 26.51 21.49 48 48 48h224v42a6 6 0 01-6 6zm96-96H150a6 6 0 01-6-6V54a6 6 0 016-6h308a6 6 0 016 6v308a6 6 0 01-6 6z"/></symbol><symbol class="ajsvg-inline--fa ajfa-times ajfa-w-11" viewBox="0 0 352 512" id="close" xmlns="http://www.w3.org/2000/svg"><path d="M242.72 256l100.07-100.07c12.28-12.28 12.28-32.19 0-44.48l-22.24-22.24c-12.28-12.28-32.19-12.28-44.48 0L176 189.28 75.93 89.21c-12.28-12.28-32.19-12.28-44.48 0L9.21 111.45c-12.28 12.28-12.28 32.19 0 44.48L109.28 256 9.21 356.07c-12.28 12.28-12.28 32.19 0 44.48l22.24 22.24c12.28 12.28 32.2 12.28 44.48 0L176 322.72l100.07 100.07c12.28 12.28 32.2 12.28 44.48 0l22.24-22.24c12.28-12.28 12.28-32.19 0-44.48L242.72 256z"/></symbol><symbol viewBox="0 0 480.3 480.3" id="compare" xmlns="http://www.w3.org/2000/svg"><path d="M254.15 234.1V13.5c0-7.5-6-13.5-13.5-13.5s-13.5 6-13.5 13.5v220.6c-31.3 6.3-55 34-55 67.2s23.7 60.9 55 67.2v98.2c0 7.5 6 13.5 13.5 13.5s13.5-6 13.5-13.5v-98.2c31.3-6.3 55-34 55-67.2 0-33.1-23.6-60.9-55-67.2zm-13.5 108.7c-22.9 0-41.5-18.6-41.5-41.5s18.6-41.5 41.5-41.5 41.5 18.6 41.5 41.5-18.6 41.5-41.5 41.5zM88.85 120.9V13.5c0-7.5-6-13.5-13.5-13.5s-13.5 6-13.5 13.5v107.4c-31.3 6.3-55 34-55 67.2s23.7 60.9 55 67.2v211.4c0 7.5 6 13.5 13.5 13.5s13.5-6 13.5-13.5V255.2c31.3-6.3 55-34 55-67.2s-23.7-60.8-55-67.1zm-13.5 108.7c-22.9 0-41.5-18.6-41.5-41.5s18.6-41.5 41.5-41.5 41.5 18.6 41.5 41.5-18.7 41.5-41.5 41.5zm343.1-108.7V13.5c0-7.5-6-13.5-13.5-13.5s-13.5 6-13.5 13.5v107.4c-31.3 6.3-55 34-55 67.2s23.7 60.9 55 67.2v211.5c0 7.5 6 13.5 13.5 13.5s13.5-6 13.5-13.5V255.2c31.3-6.3 55-34 55-67.2s-23.6-60.8-55-67.1zm-13.5 108.7c-22.9 0-41.5-18.6-41.5-41.5s18.6-41.5 41.5-41.5 41.5 18.6 41.5 41.5-18.6 41.5-41.5 41.5z"/></symbol><symbol viewBox="0 0 26 26" id="double-arrow" xmlns="http://www.w3.org/2000/svg"><path d="M.046 24.418l2.084 2.084 10.837-10.836 10.836 10.836 2.084-2.084-12.92-12.92z"/><path d="M.046 13.418l2.084 2.084L12.967 4.666l10.836 10.836 2.084-2.084L12.967.498z"/></symbol><symbol class="amsvg-inline--fa amfa-edit amfa-w-18" viewBox="0 0 576 512" id="edit-solid" xmlns="http://www.w3.org/2000/svg"><path d="M402.6 83.2l90.2 90.2c3.8 3.8 3.8 10 0 13.8L274.4 405.6l-92.8 10.3c-12.4 1.4-22.9-9.1-21.5-21.5l10.3-92.8L388.8 83.2c3.8-3.8 10-3.8 13.8 0zm162-22.9l-48.8-48.8c-15.2-15.2-39.9-15.2-55.2 0l-35.4 35.4c-3.8 3.8-3.8 10 0 13.8l90.2 90.2c3.8 3.8 10 3.8 13.8 0l35.4-35.4c15.2-15.3 15.2-40 0-55.2zM384 346.2V448H64V128h229.8c3.2 0 6.2-1.3 8.5-3.5l40-40c7.6-7.6 2.2-20.5-8.5-20.5H48C21.5 64 0 85.5 0 112v352c0 26.5 21.5 48 48 48h352c26.5 0 48-21.5 48-48V306.2c0-10.7-12.9-16-20.5-8.5l-40 40c-2.2 2.3-3.5 5.3-3.5 8.5z"/></symbol><symbol viewBox="0 0 512 512" id="email" xmlns="http://www.w3.org/2000/svg"><path d="M10.688 95.156C80.958 154.667 204.26 259.365 240.5 292.01c4.865 4.406 10.083 6.646 15.5 6.646 5.406 0 10.615-2.219 15.469-6.604 36.271-32.677 159.573-137.385 229.844-196.896 4.375-3.698 5.042-10.198 1.5-14.719C494.625 69.99 482.417 64 469.333 64H42.667c-13.083 0-25.292 5.99-33.479 16.438-3.542 4.52-2.875 11.02 1.5 14.718z"/><path d="M505.813 127.406a10.618 10.618 0 00-11.375 1.542C416.51 195.01 317.052 279.688 285.76 307.885c-17.563 15.854-41.938 15.854-59.542-.021-33.354-30.052-145.042-125-208.656-178.917a10.674 10.674 0 00-11.375-1.542A10.674 10.674 0 000 137.083v268.25C0 428.865 19.135 448 42.667 448h426.667C492.865 448 512 428.865 512 405.333v-268.25a10.66 10.66 0 00-6.187-9.677z"/></symbol><symbol viewBox="0 0 456.795 456.795" id="eye" xmlns="http://www.w3.org/2000/svg"><path d="M448.947 218.475c-.922-1.168-23.055-28.933-61-56.81-50.705-37.253-105.877-56.944-159.551-56.944-53.672 0-108.844 19.691-159.551 56.944-37.944 27.876-60.077 55.642-61 56.81L0 228.397l7.846 9.923c.923 1.168 23.056 28.934 61 56.811 50.707 37.252 105.879 56.943 159.551 56.943 53.673 0 108.845-19.691 159.55-56.943 37.945-27.877 60.078-55.643 61-56.811l7.848-9.923-7.848-9.922zm-220.551 96.564c-47.774 0-86.642-38.867-86.642-86.642 0-7.485.954-14.751 2.747-21.684l-19.781-3.329a106.44 106.44 0 00-2.966 25.013c0 30.86 13.182 58.696 34.204 78.187-27.061-9.996-50.072-24.023-67.439-36.709-21.516-15.715-37.641-31.609-46.834-41.478 9.197-9.872 25.32-25.764 46.834-41.478 17.367-12.686 40.379-26.713 67.439-36.71l13.27 14.958c15.498-14.512 36.312-23.412 59.168-23.412 47.774 0 86.641 38.867 86.641 86.642s-38.867 86.642-86.641 86.642zm139.877-45.164c-17.369 12.686-40.379 26.713-67.439 36.709 21.021-19.49 34.203-47.326 34.203-78.188s-13.182-58.697-34.203-78.188c27.061 9.997 50.07 24.024 67.439 36.71 21.516 15.715 37.641 31.609 46.834 41.477-9.197 9.874-25.32 25.767-46.834 41.48z"/><path d="M173.261 211.555a57.616 57.616 0 00-2.507 16.843c0 31.834 25.807 57.642 57.642 57.642 31.834 0 57.641-25.807 57.641-57.642s-25.807-57.642-57.641-57.642c-15.506 0-29.571 6.134-39.932 16.094l28.432 32.048-43.635-7.343z"/></symbol><symbol class="apsvg-inline--fa apfa-facebook-f apfa-w-10" viewBox="0 0 320 512" id="fb" xmlns="http://www.w3.org/2000/svg"><path d="M279.14 288l14.22-92.66h-88.91v-60.13c0-25.35 12.42-50.06 52.24-50.06h40.42V6.26S260.43 0 225.36 0c-73.22 0-121.08 44.38-121.08 124.72v70.62H22.89V288h81.39v224h100.17V288z"/></symbol><symbol viewBox="0 0 129 129" id="heart" xmlns="http://www.w3.org/2000/svg"><path d="M121.6 40.1c-3.3-16.6-15.1-27.3-30.3-27.3-8.5 0-17.7 3.5-26.7 10.1-9.1-6.8-18.3-10.3-26.9-10.3-15.2 0-27.1 10.8-30.3 27.6-4.8 24.9 10.6 58 55.7 76 .5.2 1 .3 1.5.3s1-.1 1.5-.3c45-18.4 60.3-51.4 55.5-76.1zm-57 67.9C25 91.6 11.3 63 15.4 41.7c2.4-12.7 11.2-21 22.3-21 7.5 0 15.9 3.6 24.3 10.5 1.5 1.2 3.6 1.2 5.1 0C75.5 24.5 83.8 21 91.3 21c11.1 0 19.8 8.1 22.3 20.7 4.1 21.1-9.5 49.6-49 66.3z"/></symbol><symbol class="arsvg-inline--fa arfa-link arfa-w-16" viewBox="0 0 512 512" id="link-solid" xmlns="http://www.w3.org/2000/svg"><path d="M326.612 185.391c59.747 59.809 58.927 155.698.36 214.59-.11.12-.24.25-.36.37l-67.2 67.2c-59.27 59.27-155.699 59.262-214.96 0-59.27-59.26-59.27-155.7 0-214.96l37.106-37.106c9.84-9.84 26.786-3.3 27.294 10.606.648 17.722 3.826 35.527 9.69 52.721 1.986 5.822.567 12.262-3.783 16.612l-13.087 13.087c-28.026 28.026-28.905 73.66-1.155 101.96 28.024 28.579 74.086 28.749 102.325.51l67.2-67.19c28.191-28.191 28.073-73.757 0-101.83-3.701-3.694-7.429-6.564-10.341-8.569a16.037 16.037 0 01-6.947-12.606c-.396-10.567 3.348-21.456 11.698-29.806l21.054-21.055c5.521-5.521 14.182-6.199 20.584-1.731a152.482 152.482 0 0120.522 17.197zM467.547 44.449c-59.261-59.262-155.69-59.27-214.96 0l-67.2 67.2c-.12.12-.25.25-.36.37-58.566 58.892-59.387 154.781.36 214.59a152.454 152.454 0 0020.521 17.196c6.402 4.468 15.064 3.789 20.584-1.731l21.054-21.055c8.35-8.35 12.094-19.239 11.698-29.806a16.037 16.037 0 00-6.947-12.606c-2.912-2.005-6.64-4.875-10.341-8.569-28.073-28.073-28.191-73.639 0-101.83l67.2-67.19c28.239-28.239 74.3-28.069 102.325.51 27.75 28.3 26.872 73.934-1.155 101.96l-13.087 13.087c-4.35 4.35-5.769 10.79-3.783 16.612 5.864 17.194 9.042 34.999 9.69 52.721.509 13.906 17.454 20.446 27.294 10.606l37.106-37.106c59.271-59.259 59.271-155.699.001-214.959z"/></symbol><symbol class="assvg-inline--fa asfa-linkedin-in asfa-w-14" viewBox="0 0 448 512" id="linkedin" xmlns="http://www.w3.org/2000/svg"><path d="M100.28 448H7.4V148.9h92.88zM53.79 108.1C24.09 108.1 0 83.5 0 53.8a53.79 53.79 0 01107.58 0c0 29.7-24.1 54.3-53.79 54.3zM447.9 448h-92.68V302.4c0-34.7-.7-79.2-48.29-79.2-48.29 0-55.69 37.7-55.69 76.7V448h-92.78V148.9h89.08v40.8h1.3c12.4-23.5 42.69-48.3 87.88-48.3 94 0 111.28 61.9 111.28 142.3V448z"/></symbol><symbol class="atsvg-inline--fa atfa-long-arrow-alt-right atfa-w-14" viewBox="0 0 448 512" id="long-arrow-alt-right-solid" xmlns="http://www.w3.org/2000/svg"><path d="M313.941 216H12c-6.627 0-12 5.373-12 12v56c0 6.627 5.373 12 12 12h301.941v46.059c0 21.382 25.851 32.09 40.971 16.971l86.059-86.059c9.373-9.373 9.373-24.569 0-33.941l-86.059-86.059c-15.119-15.119-40.971-4.411-40.971 16.971V216z"/></symbol><symbol viewBox="0 0 56.48 56.48" id="maestro" xmlns="http://www.w3.org/2000/svg"><path d="M31.634 22.062h-6.607c-.422.799-.702 1.403-.781 1.553h8.014a14.637 14.637 0 00-.626-1.553zm-9.956 3.847c-.635 0-1.188.081-2.048.299l-.225 1.279.143-.037.246-.062c.368-.098.921-.157 1.413-.157.798 0 1.106.14 1.106.515 0 .104-.021.182-.062.369a7.066 7.066 0 00-.696-.044c-1.904 0-3.01.809-3.01 2.189 0 .918.635 1.551 1.557 1.551.778 0 1.373-.219 1.802-.686l-.041.588h1.433l.02-.154.021-.195.041-.288.061-.36.369-2.018c.103-.632.123-.845.123-1.125 0-1.086-.778-1.664-2.253-1.664zm-.859 4.698c-.389 0-.614-.228-.614-.579 0-.574.492-.864 1.454-.864.123 0 .205.003.39.022-.042.84-.534 1.421-1.23 1.421zm-4.526-5.875l-1.905 4.325-.123-4.325h-2.683l-1.332 6.984h1.556l1.024-5.336.287 5.336h1.557l2.355-5.37-1.024 5.37h1.72l1.352-6.984zm31.275 6.461a.16.16 0 00-.041-.098.235.235 0 00-.102-.022h-.164v.392h.082v-.153h.061l.062.153h.102l-.061-.17c.041-.017.061-.059.061-.102zm-.123.044c-.02.008-.041.008-.041.008h-.062v-.102h.043c.02 0 .061 0 .061.009.021.008.021.024.021.039 0 .017-.002.037-.022.046zm3.719 4.95a.156.156 0 00-.042-.098.237.237 0 00-.103-.022h-.163v.392h.082v-.154h.061l.062.154h.103l-.062-.171c.041-.015.062-.057.062-.101zm-.124.044c-.021.008-.041.008-.041.008h-.062v-.101h.041c.021 0 .062 0 .062.008.021.008.021.025.021.039 0 .018 0 .036-.021.046z"/><path d="M55.026 9.939H1.454C.65 9.939 0 10.59 0 11.393v33.695c0 .803.65 1.454 1.454 1.454h53.572c.804 0 1.454-.651 1.454-1.454V11.393c0-.803-.65-1.454-1.454-1.454zm-3.617 26.579a.435.435 0 01-.173.175.475.475 0 01-.466 0 .469.469 0 01.002-.815.494.494 0 01.231-.06c.079 0 .155.021.229.06a.425.425 0 01.175.174.477.477 0 01.002.466zm1.048-8.277c.002 8.005-6.484 14.497-14.49 14.499a14.436 14.436 0 01-9.73-3.749 14.435 14.435 0 01-9.717 3.745c-8.001 0-14.495-6.493-14.495-14.495 0-7.97 6.443-14.444 14.402-14.496h.093c3.738 0 7.146 1.418 9.718 3.745a14.443 14.443 0 019.722-3.748c8.006-.003 14.497 6.486 14.499 14.492-.002.002-.002.003-.002.007z"/><path d="M29.673 18.987h-2.754c-.37.5-.718 1.032-1.033 1.552h4.913a14.676 14.676 0 00-1.126-1.552zm3.046 8.263c.349 0 .799.03 1.25.083l.246-1.313a13.455 13.455 0 00-1.537-.112c-1.924 0-2.602.874-2.601 1.919 0 .716.41 1.211 1.331 1.583.695.283.799.367.799.627 0 .352-.306.512-.982.512-.534 0-1.004-.07-1.558-.224l-.245 1.31.082.015.307.056c.102.02.266.037.471.051.409.03.715.047.941.047 1.844 0 2.684-.599 2.684-1.894 0-.78-.348-1.235-1.229-1.581-.717-.287-.799-.352-.799-.618 0-.305.286-.461.84-.461zm8.974-1.227c-.083-.02-.145-.031-.145-.034a1.27 1.27 0 00-.185-.014c-.554 0-.963.252-1.495.923l.164-.862h-1.557l-1.045 5.68h1.721c.615-3.473.88-4.083 1.699-4.083.062 0 .123.005.205.014l.205.042.617-1.604c-.143-.055-.164-.055-.184-.062zm-5.165 1.394h.881l.246-1.382h-.88l.246-1.304h-1.7l-.799 4.336-.082.449-.103.559c-.021.18-.041.35-.041.509 0 .806.471 1.248 1.352 1.248.389 0 .758-.056 1.229-.185l.225-1.26a1.534 1.534 0 01-.45.055c-.409 0-.595-.126-.595-.42 0-.052 0-.131.021-.235l.45-2.37zm10.876 3.411a.45.45 0 00-.451.442.45.45 0 00.451.445.45.45 0 00.451-.445.45.45 0 00-.451-.442zm0 .781a.348.348 0 01-.348-.339c0-.186.164-.336.348-.336.186 0 .328.15.328.336a.33.33 0 01-.328.339zm-2.867-5.735c-2.048 0-3.379 1.365-3.379 3.376 0 1.441.777 2.619 2.725 2.619 1.76 0 3.071-.839 3.338-2.727.041-.33.041-.353.041-.705 0-1.442-.942-2.563-2.725-2.563zm.84 3.219c-.143.885-.941 1.392-1.31 1.392-.615.012-.983-.507-.983-1.278 0-.912.532-1.947 1.413-1.947.696 0 .941.563.941 1.155 0 .246-.02.47-.061.678zm-16.04.268c.145-.576.207-.984.207-1.404 0-1.259-.902-2.062-2.314-2.062-1.721 0-2.99 1.435-2.99 3.382-.001 1.675 1.003 2.546 2.928 2.546.594 0 1.167-.075 1.741-.229l.286-1.422a4.538 4.538 0 01-1.782.361c-.983 0-1.495-.335-1.495-.993 0-.053 0-.092.021-.179h3.398zm-2.128-2.166c.512 0 .799.269.799.73v.292l-1.905-.002c.164-.66.554-1.02 1.106-1.02zm-2.391 7.167c.251.538.544 1.051.856 1.552h5.143c.312-.499.594-1.016.844-1.552h-6.843zm1.935 3.041c.459.563.945 1.1 1.482 1.584.012-.011.025-.02.037-.032h.002a14.488 14.488 0 001.472-1.552h-2.993z"/></symbol><symbol viewBox="0 0 413.099 413.099" id="marker" xmlns="http://www.w3.org/2000/svg"><path d="M206.549 0c-82.6 0-149.3 66.7-149.3 149.3 0 28.8 9.2 56.3 22 78.899l97.3 168.399c6.1 11 18.4 16.5 30 16.5 11.601 0 23.3-5.5 30-16.5l97.3-168.299c12.9-22.601 22-49.601 22-78.901C355.849 66.8 289.149 0 206.549 0zm0 193.4c-30 0-54.5-24.5-54.5-54.5s24.5-54.5 54.5-54.5 54.5 24.5 54.5 54.5c0 30.1-24.5 54.5-54.5 54.5z"/></symbol><symbol viewBox="0 0 511.999 511.999" id="paypal" xmlns="http://www.w3.org/2000/svg"><path d="M503.915 153.88a8.084 8.084 0 008.084-8.084v-31.459c0-20.619-16.774-37.394-37.393-37.394H37.393C16.775 76.942 0 93.716 0 114.336v283.325c0 20.62 16.775 37.395 37.393 37.395h437.214c20.619 0 37.393-16.775 37.392-37.395V172.023a8.084 8.084 0 00-8.084-8.084 8.082 8.082 0 00-8.084 8.084v225.636c0 11.705-9.522 21.227-21.225 21.227H37.393c-11.704 0-21.225-9.522-21.225-21.227V114.336c0-11.704 9.521-21.226 21.225-21.225h437.212c11.703 0 21.225 9.522 21.225 21.226v31.459a8.084 8.084 0 008.085 8.084z"/><path d="M365.176 214.484a5.914 5.914 0 00-.043-.122c-2.932-8.091-7.909-15.172-14.5-20.723.835-20.04-3.447-33.256-14.676-46.094-12.415-14.192-34.306-21.388-65.065-21.388h-77.613c-8.818 0-16.13 7.641-18.532 14.832a8.026 8.026 0 00-.324 1.342l-31.044 203.336a8.165 8.165 0 00-.093 1.22c0 8.737 6.409 15.845 14.289 15.845h38.589l-2.023 12.342a8.105 8.105 0 00-.108 1.31c0 8.411 5.877 14.285 14.29 14.285h38.69c9.418 0 16.644-5.974 18.859-15.589.04-.172.073-.347.102-.522l7.759-48.115c.03-.189.055-.378.071-.568.115-1.307.728-3.499 3.516-3.499h3.96c22.575 0 41.128-5.076 55.144-15.085 16.179-11.556 26.42-29.64 30.439-53.756 2.543-15.282 1.976-28.421-1.687-39.051zM198.822 346.565h-39.224l30.679-200.95c.763-1.707 2.361-3.099 3.089-3.288h77.525c25.526 0 43.816 5.486 52.896 15.864 6.761 7.731 10.003 15.356 10.656 26.275-8.893-3.046-17.37-3.808-22.212-3.967a8.041 8.041 0 00-.778-.038h-22.636c-.181 0-.36.006-.539.018h-46.914a9.49 9.49 0 00-.293.005c-9.441.343-16.533 6.505-18.505 16.081a7.869 7.869 0 00-.072.402l-12.365 80.35-11.307 69.248zm135.313-144.614c-.108.486-.227.958-.34 1.439-.089.385-.18.768-.273 1.15-.094.385-.179.779-.276 1.16-.136.533-.285 1.048-.427 1.572-.085.316-.17.632-.259.945-.114.41-.22.829-.337 1.233-.157.539-.329 1.061-.493 1.592l-.197.635c-.147.465-.285.94-.435 1.398-.18.545-.375 1.071-.563 1.608-.044.126-.088.252-.134.378-.178.503-.348 1.016-.534 1.512-.205.55-.425 1.08-.638 1.62l-.077.193c-.206.52-.404 1.048-.618 1.559-.231.551-.476 1.083-.716 1.624-.24.542-.473 1.093-.721 1.625-.249.532-.514 1.047-.772 1.569-.255.518-.504 1.046-.769 1.553-.271.52-.557 1.021-.838 1.53-.269.489-.53.988-.808 1.468-.292.504-.599.988-.901 1.482-.284.465-.558.938-.85 1.392-.315.49-.647.961-.971 1.441-.295.435-.582.881-.885 1.306-.34.479-.697.937-1.047 1.403-.305.406-.602.822-.914 1.22-.362.46-.742.901-1.113 1.349-.318.384-.628.776-.954 1.151-.385.442-.786.865-1.181 1.294-.331.36-.654.731-.993 1.082-.41.426-.838.832-1.258 1.245-.341.335-.674.68-1.022 1.007-.433.406-.884.792-1.327 1.186-.354.314-.7.638-1.061.943-.456.386-.929.752-1.397 1.125-.366.292-.723.595-1.096.88-.483.369-.983.716-1.477 1.07-.375.269-.742.55-1.124.812-.508.348-1.034.676-1.553 1.01-.386.249-.763.508-1.156.749-.539.331-1.096.641-1.647.958-.39.224-.772.46-1.168.678-.57.313-1.159.605-1.742.903-.396.203-.781.415-1.182.611-.589.287-1.196.553-1.798.826-.414.188-.817.386-1.236.567-.609.262-1.236.503-1.857.751-.429.171-.849.354-1.284.518-.63.238-1.277.455-1.919.679-.445.155-.881.321-1.332.47-.642.211-1.305.402-1.961.599-.468.141-.926.293-1.4.427-.661.187-1.34.352-2.012.525-.487.125-.964.261-1.457.379-.697.167-1.414.313-2.125.466-.486.105-.961.22-1.454.318-.723.143-1.466.266-2.202.396-.497.087-.985.185-1.489.266-.744.12-1.507.218-2.265.323-.513.071-1.015.154-1.535.219-.773.096-1.565.171-2.352.253-.521.054-1.031.12-1.559.167-.785.071-1.589.121-2.386.178-.547.039-1.082.089-1.635.122-.873.052-1.767.081-2.656.115-.494.019-.977.05-1.475.065-1.396.04-2.81.06-4.243.06h-23.285l-.485.013 9.95-64.654c.628-2.798 2.01-2.966 3.08-3.011h47.33c.181 0 .36-.006.539-.018h21.537c.115.009.233.014.349.017 3.393.084 12.169.654 20.545 4.095.623.276 1.397.646 2.268 1.112.017.031.03.065.048.097zm16.782 48.929c-6.204 37.228-28.981 55.326-69.634 55.326h-3.96c-13.006 0-18.794 10.58-19.589 17.901l-7.67 47.566c-.713 2.825-1.952 2.825-3.049 2.825H210.62l2.97-18.118c.031-.142.058-.286.082-.429l11.516-70.341c.018-.033.033-.07.051-.104.027-.05.05-.102.075-.153.023-.044.044-.089.067-.135.04-.083.085-.163.122-.247.102-.232.196-.47.277-.714.645-1.933 2.487-3.583 3.283-3.787h23.201c1.636 0 3.251-.026 4.848-.072.534-.015 1.055-.046 1.584-.068 1.056-.042 2.113-.083 3.152-.146.62-.037 1.227-.089 1.84-.134.93-.068 1.86-.134 2.777-.219.648-.059 1.285-.133 1.925-.201.863-.092 1.727-.184 2.577-.291.653-.082 1.298-.176 1.945-.267.818-.115 1.635-.234 2.441-.364.65-.105 1.291-.219 1.934-.333.785-.14 1.565-.285 2.338-.439a112.283 112.283 0 004.159-.913c.622-.149 1.242-.302 1.856-.46.736-.19 1.465-.39 2.19-.594.604-.17 1.206-.341 1.801-.52.718-.217 1.426-.445 2.132-.675.582-.19 1.166-.378 1.741-.578a90.736 90.736 0 002.091-.764c.554-.207 1.111-.41 1.657-.626.705-.279 1.395-.576 2.086-.87.515-.22 1.037-.431 1.545-.66.733-.329 1.448-.677 2.166-1.024.447-.216.903-.422 1.345-.645a83.788 83.788 0 004.006-2.172 83.549 83.549 0 002.611-1.555c.429-.269.844-.555 1.266-.832.632-.413 1.267-.822 1.884-1.253.455-.316.896-.649 1.343-.974.567-.413 1.135-.822 1.69-1.249.454-.349.897-.714 1.343-1.073.528-.426 1.055-.85 1.572-1.289.444-.377.878-.766 1.314-1.154.499-.444.996-.889 1.483-1.346.43-.403.852-.815 1.273-1.229.473-.465.943-.933 1.406-1.411.413-.427.82-.859 1.224-1.297a78.917 78.917 0 002.507-2.841c.432-.514.857-1.038 1.277-1.566.373-.467.744-.935 1.108-1.411.416-.545.821-1.102 1.226-1.66.348-.481.698-.96 1.038-1.451.403-.582.793-1.178 1.185-1.774.319-.488.644-.973.958-1.472.397-.633.779-1.283 1.163-1.93.287-.484.581-.961.86-1.454.412-.725.806-1.471 1.202-2.215.233-.437.474-.863.702-1.307.59-1.149 1.16-2.32 1.712-3.51.112-.243.218-.493.329-.736.475-1.048.943-2.105 1.39-3.185.197-.475.379-.967.571-1.448.329-.827.66-1.651.972-2.496.203-.549.393-1.112.59-1.669.282-.8.566-1.599.833-2.414.194-.591.377-1.195.564-1.795.181-.581.373-1.151.547-1.74a32.959 32.959 0 012.366 5.108c2.719 7.945 3.068 18.687 1.008 31.073z"/></symbol><symbol viewBox="0 0 405.333 405.333" id="phone" xmlns="http://www.w3.org/2000/svg"><path d="M373.333 266.88c-25.003 0-49.493-3.904-72.704-11.563-11.328-3.904-24.192-.896-31.637 6.699l-46.016 34.752c-52.8-28.181-86.592-61.952-114.389-114.368l33.813-44.928c8.512-8.512 11.563-20.971 7.915-32.64-7.723-23.36-11.648-47.872-11.648-72.832 0-17.643-14.357-32-32-32H32C14.357 0 0 14.357 0 32c0 205.845 167.488 373.333 373.333 373.333 17.643 0 32-14.357 32-32V298.88c0-17.643-14.357-32-32-32z"/></symbol><symbol class="aysvg-inline--fa ayfa-plus ayfa-w-14" viewBox="0 0 448 512" id="plus-solid" xmlns="http://www.w3.org/2000/svg"><path d="M416 208H272V64c0-17.67-14.33-32-32-32h-32c-17.67 0-32 14.33-32 32v144H32c-17.67 0-32 14.33-32 32v32c0 17.67 14.33 32 32 32h144v144c0 17.67 14.33 32 32 32h32c17.67 0 32-14.33 32-32V304h144c17.67 0 32-14.33 32-32v-32c0-17.67-14.33-32-32-32z"/></symbol><symbol class="azsvg-inline--fa azfa-rss azfa-w-14" viewBox="0 0 448 512" id="rss" xmlns="http://www.w3.org/2000/svg"><path d="M128.081 415.959c0 35.369-28.672 64.041-64.041 64.041S0 451.328 0 415.959s28.672-64.041 64.041-64.041 64.04 28.673 64.04 64.041zm175.66 47.25c-8.354-154.6-132.185-278.587-286.95-286.95C7.656 175.765 0 183.105 0 192.253v48.069c0 8.415 6.49 15.472 14.887 16.018 111.832 7.284 201.473 96.702 208.772 208.772.547 8.397 7.604 14.887 16.018 14.887h48.069c9.149.001 16.489-7.655 15.995-16.79zm144.249.288C439.596 229.677 251.465 40.445 16.503 32.01 7.473 31.686 0 38.981 0 48.016v48.068c0 8.625 6.835 15.645 15.453 15.999 191.179 7.839 344.627 161.316 352.465 352.465.353 8.618 7.373 15.453 15.999 15.453h48.068c9.034-.001 16.329-7.474 16.005-16.504z"/></symbol><symbol class="basvg-inline--fa bafa-twitter bafa-w-16" viewBox="0 0 512 512" id="twitter" xmlns="http://www.w3.org/2000/svg"><path d="M459.37 151.716c.325 4.548.325 9.097.325 13.645 0 138.72-105.583 298.558-298.558 298.558-59.452 0-114.68-17.219-161.137-47.106 8.447.974 16.568 1.299 25.34 1.299 49.055 0 94.213-16.568 130.274-44.832-46.132-.975-84.792-31.188-98.112-72.772 6.498.974 12.995 1.624 19.818 1.624 9.421 0 18.843-1.3 27.614-3.573-48.081-9.747-84.143-51.98-84.143-102.985v-1.299c13.969 7.797 30.214 12.67 47.431 13.319-28.264-18.843-46.781-51.005-46.781-87.391 0-19.492 5.197-37.36 14.294-52.954 51.655 63.675 129.3 105.258 216.365 109.807-1.624-7.797-2.599-15.918-2.599-24.04 0-57.828 46.782-104.934 104.934-104.934 30.213 0 57.502 12.67 76.67 33.137 23.715-4.548 46.456-13.32 66.599-25.34-7.798 24.366-24.366 44.833-46.132 57.827 21.117-2.273 41.584-8.122 60.426-16.243-14.292 20.791-32.161 39.308-52.628 54.253z"/></symbol><symbol viewBox="-42 0 512 512.001" id="user" xmlns="http://www.w3.org/2000/svg"><path d="M210.352 246.633c33.882 0 63.218-12.153 87.195-36.13 23.969-23.972 36.125-53.304 36.125-87.19 0-33.876-12.152-63.211-36.129-87.192C273.566 12.152 244.23 0 210.352 0c-33.887 0-63.22 12.152-87.192 36.125s-36.129 53.309-36.129 87.188c0 33.886 12.156 63.222 36.13 87.195 23.98 23.969 53.316 36.125 87.19 36.125zM144.379 57.34c18.394-18.395 39.973-27.336 65.973-27.336 25.996 0 47.578 8.941 65.976 27.336 18.395 18.398 27.34 39.98 27.34 65.972 0 26-8.945 47.579-27.34 65.977-18.398 18.399-39.98 27.34-65.976 27.34-25.993 0-47.57-8.945-65.973-27.34-18.399-18.394-27.344-39.976-27.344-65.976 0-25.993 8.945-47.575 27.344-65.973zm281.75 336.363c-.692-9.976-2.09-20.86-4.149-32.351-2.078-11.579-4.753-22.524-7.957-32.528-3.312-10.34-7.808-20.55-13.375-30.336-5.77-10.156-12.55-19-20.16-26.277-7.957-7.613-17.699-13.734-28.965-18.2-11.226-4.44-23.668-6.69-36.976-6.69-5.227 0-10.281 2.144-20.043 8.5a2711.03 2711.03 0 01-20.879 13.46c-6.707 4.274-15.793 8.278-27.016 11.903-10.949 3.543-22.066 5.34-33.043 5.34-10.968 0-22.086-1.797-33.043-5.34-11.21-3.622-20.3-7.625-26.996-11.899a2853.13 2853.13 0 01-20.898-13.469c-9.754-6.355-14.809-8.5-20.035-8.5-13.313 0-25.75 2.254-36.973 6.7-11.258 4.457-21.004 10.578-28.969 18.199-7.609 7.281-14.39 16.12-20.156 26.273-5.558 9.785-10.058 19.992-13.371 30.34-3.2 10.004-5.875 20.945-7.953 32.524-2.063 11.476-3.457 22.363-4.149 32.363C.343 403.492 0 413.668 0 423.949c0 26.727 8.496 48.363 25.25 64.32C41.797 504.017 63.688 512 90.316 512h246.532c26.62 0 48.511-7.984 65.062-23.73 16.758-15.946 25.254-37.59 25.254-64.325-.004-10.316-.351-20.492-1.035-30.242zm-44.906 72.828c-10.934 10.406-25.45 15.465-44.38 15.465H90.317c-18.933 0-33.449-5.059-44.379-15.46-10.722-10.208-15.933-24.141-15.933-42.587 0-9.594.316-19.066.95-28.16.616-8.922 1.878-18.723 3.75-29.137 1.847-10.285 4.198-19.937 6.995-28.675 2.684-8.38 6.344-16.676 10.883-24.668 4.332-7.618 9.316-14.153 14.816-19.418 5.145-4.926 11.63-8.957 19.27-11.98 7.066-2.798 15.008-4.329 23.629-4.56 1.05.56 2.922 1.626 5.953 3.602 6.168 4.02 13.277 8.606 21.137 13.625 8.86 5.649 20.273 10.75 33.91 15.152 13.941 4.508 28.16 6.797 42.273 6.797 14.114 0 28.336-2.289 42.27-6.793 13.648-4.41 25.058-9.507 33.93-15.164 8.043-5.14 14.953-9.593 21.12-13.617 3.032-1.973 4.903-3.043 5.954-3.601 8.625.23 16.566 1.761 23.636 4.558 7.637 3.024 14.122 7.059 19.266 11.98 5.5 5.262 10.484 11.798 14.816 19.423 4.543 7.988 8.208 16.289 10.887 24.66 2.801 8.75 5.156 18.398 7 28.675 1.867 10.434 3.133 20.239 3.75 29.145v.008c.637 9.058.957 18.527.961 28.148-.004 18.45-5.215 32.38-15.937 42.582zm0 0"/></symbol><symbol class="bcsvg-inline--fa bcfa-youtube bcfa-w-18" viewBox="0 0 576 512" id="youtube" xmlns="http://www.w3.org/2000/svg"><path d="M549.655 124.083c-6.281-23.65-24.787-42.276-48.284-48.597C458.781 64 288 64 288 64S117.22 64 74.629 75.486c-23.497 6.322-42.003 24.947-48.284 48.597-11.412 42.867-11.412 132.305-11.412 132.305s0 89.438 11.412 132.305c6.281 23.65 24.787 41.5 48.284 47.821C117.22 448 288 448 288 448s170.78 0 213.371-11.486c23.497-6.321 42.003-24.171 48.284-47.821 11.412-42.867 11.412-132.305 11.412-132.305s0-89.438-11.412-132.305zm-317.51 213.508V175.185l142.739 81.205-142.739 81.201z"/></symbol></svg>