<?xml version="1.0" encoding="utf-8"?><svg xmlns="http://www.w3.org/2000/svg" xmlns:xlink="http://www.w3.org/1999/xlink"><symbol viewBox="0 0 16 16" id="close" xmlns="http://www.w3.org/2000/svg"><path d="M8.884 8.001l6.933-6.933a.625.625 0 10-.884-.884L8 7.117 1.067.184a.625.625 0 10-.884.884L7.116 8 .183 14.934a.625.625 0 10.884.884L8 8.885l6.933 6.933a.623.623 0 00.884 0 .625.625 0 000-.884L8.884 8.001z"/></symbol><symbol viewBox="0 0 16 10" id="eye" xmlns="http://www.w3.org/2000/svg"><path d="M8 .232C4.943.232 2.17 1.904.125 4.62a.633.633 0 000 .756C2.171 8.097 4.943 9.769 8 9.769c3.057 0 5.83-1.672 7.875-4.389a.633.633 0 000-.756C13.829 1.904 11.057.232 8 .232zm.22 8.127A3.367 3.367 0 014.641 4.78 3.373 3.373 0 017.78 1.642a3.367 3.367 0 013.577 3.578A3.383 3.383 0 018.22 8.359zm-.102-1.552a1.81 1.81 0 01-1.925-1.924A1.82 1.82 0 017.885 3.19 1.81 1.81 0 019.81 5.115a1.82 1.82 0 01-1.692 1.692z"/></symbol><symbol viewBox="0 0 120 32" id="logo" xmlns="http://www.w3.org/2000/svg"><path d="M.28 31V1.8h6.56v23.44h11.44V31h-18zm35.719.76c-2.64 0-4.947-.453-6.92-1.36-1.947-.933-3.56-2.147-4.84-3.64-1.28-1.52-2.24-3.147-2.88-4.88-.614-1.76-.92-3.467-.92-5.12v-.88c0-1.813.32-3.6.96-5.36a15.004 15.004 0 012.96-4.8c1.306-1.467 2.933-2.627 4.88-3.48 1.946-.88 4.2-1.32 6.76-1.32 2.56 0 4.813.44 6.76 1.32 1.946.853 3.573 2.013 4.88 3.48a15.008 15.008 0 012.96 4.8c.666 1.76 1 3.547 1 5.36v.88c0 1.653-.32 3.36-.96 5.12-.64 1.733-1.6 3.36-2.88 4.88-1.28 1.493-2.907 2.707-4.88 3.64-1.947.907-4.24 1.36-6.88 1.36zm0-6.12c1.84 0 3.426-.413 4.76-1.24a8.235 8.235 0 003.12-3.36c.72-1.413 1.08-2.973 1.08-4.68 0-1.813-.374-3.413-1.12-4.8-.72-1.413-1.747-2.52-3.08-3.32-1.334-.8-2.92-1.2-4.76-1.2-1.84 0-3.427.4-4.76 1.2-1.334.8-2.36 1.907-3.08 3.32-.72 1.387-1.08 2.987-1.08 4.8 0 1.707.36 3.267 1.08 4.68a8.32 8.32 0 003.08 3.36c1.333.827 2.92 1.24 4.76 1.24zm34.41 6.12c-2.613 0-4.893-.427-6.84-1.28-1.947-.88-3.56-2.053-4.84-3.52a14.999 14.999 0 01-2.8-4.84 16.532 16.532 0 01-.92-5.4v-.88c0-1.84.307-3.64.92-5.4a14.913 14.913 0 012.76-4.8c1.253-1.44 2.8-2.587 4.64-3.44 1.867-.853 4.013-1.28 6.44-1.28 2.613 0 4.933.493 6.96 1.48s3.653 2.347 4.88 4.08c1.227 1.707 1.947 3.68 2.16 5.92h-6.56c-.267-1.6-1.08-2.893-2.44-3.88-1.36-.987-3.027-1.48-5-1.48-1.707 0-3.173.4-4.4 1.2-1.2.773-2.12 1.867-2.76 3.28-.64 1.387-.96 2.987-.96 4.8 0 2.853.76 5.147 2.28 6.88 1.547 1.733 3.707 2.6 6.48 2.6 1.493 0 2.827-.253 4-.76 1.173-.533 2.107-1.227 2.8-2.08v-2.44h-7.64V15.8h16.08v4.72h-2.4v4.96c-1.253 2.027-2.987 3.587-5.2 4.68-2.213 1.067-4.76 1.6-7.64 1.6zm33.402 0c-2.64 0-4.946-.453-6.92-1.36-1.946-.933-3.56-2.147-4.84-3.64-1.28-1.52-2.24-3.147-2.88-4.88-.613-1.76-.92-3.467-.92-5.12v-.88c0-1.813.32-3.6.96-5.36a15.004 15.004 0 012.96-4.8c1.307-1.467 2.934-2.627 4.88-3.48 1.947-.88 4.2-1.32 6.76-1.32 2.56 0 4.814.44 6.76 1.32 1.947.853 3.574 2.013 4.88 3.48a14.988 14.988 0 012.96 4.8c.667 1.76 1 3.547 1 5.36v.88c0 1.653-.32 3.36-.96 5.12-.64 1.733-1.6 3.36-2.88 4.88-1.28 1.493-2.906 2.707-4.88 3.64-1.946.907-4.24 1.36-6.88 1.36zm0-6.12c1.84 0 3.427-.413 4.76-1.24a8.235 8.235 0 003.12-3.36c.72-1.413 1.08-2.973 1.08-4.68 0-1.813-.373-3.413-1.12-4.8-.72-1.413-1.746-2.52-3.08-3.32-1.333-.8-2.92-1.2-4.76-1.2-1.84 0-3.426.4-4.76 1.2-1.333.8-2.36 1.907-3.08 3.32-.72 1.387-1.08 2.987-1.08 4.8 0 1.707.36 3.267 1.08 4.68a8.32 8.32 0 003.08 3.36c1.334.827 2.92 1.24 4.76 1.24z"/></symbol><symbol viewBox="0 0 15 15" id="man-user" xmlns="http://www.w3.org/2000/svg"><path d="M7.5 7.336c1.668 0 3.02-1.642 3.02-3.668C10.52 1.642 10.076 0 7.5 0S4.48 1.642 4.48 3.668c0 2.026 1.353 3.668 3.02 3.668zm5.703 5.697c.002-.034 0-.235 0 0zm-.007-.245c-.056-3.529-.517-4.534-4.044-5.17 0 0-.496.632-1.653.632s-1.654-.633-1.654-.633c-3.488.63-3.977 1.62-4.041 5.057-.006.28-.008.295-.01.262l.001.371S2.635 15 7.5 15s5.703-1.693 5.703-1.693v-.274a2.2 2.2 0 01-.006-.245z"/></symbol></svg>