<?xml version="1.0" encoding="utf-8"?><svg xmlns="http://www.w3.org/2000/svg" xmlns:xlink="http://www.w3.org/1999/xlink"><symbol viewBox="0 0 512 512" id="arr" xmlns="http://www.w3.org/2000/svg"><path d="M202.1 450a15 15 0 01-10.6-25.61L365.79 250.1 191.5 75.81a15 15 0 0121.21-21.21l184.9 184.9a15 15 0 010 21.21l-184.9 184.9A15 15 0 01202.1 450z" data-name="1"/></symbol><symbol viewBox="0 0 129 129" id="arrow-next" xmlns="http://www.w3.org/2000/svg"><path d="M40.4 121.3c-.8.8-1.8 1.2-2.9 1.2s-2.1-.4-2.9-1.2c-1.6-1.6-1.6-4.2 0-5.8l51-51-51-51c-1.6-1.6-1.6-4.2 0-5.8 1.6-1.6 4.2-1.6 5.8 0l53.9 53.9c1.6 1.6 1.6 4.2 0 5.8l-53.9 53.9z"/></symbol><symbol viewBox="0 0 791.966 791.967" id="arrow-prev" xmlns="http://www.w3.org/2000/svg"><path d="M245.454 396.017L617.077 56.579c12.973-12.94 12.973-33.934 0-46.874-12.973-12.94-34.033-12.94-47.006 0L174.615 370.896c-6.932 6.899-9.87 16.076-9.408 25.087-.462 9.045 2.476 18.188 9.408 25.088l395.456 361.19c12.973 12.94 34.033 12.94 47.006 0 12.973-12.939 12.973-33.934 0-46.873L245.454 396.017z"/></symbol><symbol class="dsvg-inline--fa dfa-chevron-down dfa-w-14" viewBox="0 0 448 512" id="chevron-down" xmlns="http://www.w3.org/2000/svg"><path d="M207.029 381.476L12.686 187.132c-9.373-9.373-9.373-24.569 0-33.941l22.667-22.667c9.357-9.357 24.522-9.375 33.901-.04L224 284.505l154.745-154.021c9.379-9.335 24.544-9.317 33.901.04l22.667 22.667c9.373 9.373 9.373 24.569 0 33.941L240.971 381.476c-9.373 9.372-24.569 9.372-33.942 0z"/></symbol><symbol viewBox="0 0 16 16" id="close" xmlns="http://www.w3.org/2000/svg"><path d="M8.884 8.001l6.933-6.933a.625.625 0 10-.884-.884L8 7.117 1.067.184a.625.625 0 10-.884.884L7.116 8 .183 14.934a.625.625 0 10.884.884L8 8.885l6.933 6.933a.623.623 0 00.884 0 .625.625 0 000-.884L8.884 8.001z"/></symbol><symbol viewBox="0 0 26 26" id="double-arrow" xmlns="http://www.w3.org/2000/svg"><path d="M.046 24.418l2.084 2.084 10.837-10.836 10.836 10.836 2.084-2.084-12.92-12.92z"/><path d="M.046 13.418l2.084 2.084L12.967 4.666l10.836 10.836 2.084-2.084L12.967.498z"/></symbol><symbol viewBox="0 0 500.933 500.933" id="fb" xmlns="http://www.w3.org/2000/svg"><path d="M401.532 45.9c0-26.917-18.7-45.9-45.617-45.9h-36.834c-9.917 0-17.85 0-25.217.283-32.3 1.133-61.2 12.183-83.867 31.733-22.95 19.833-37.683 47.317-42.5 79.333-2.267 15.3-2.55 30.033-2.55 44.2h-18.133c-6.233 0-22.667 0-35.133 12.75-12.467 12.467-12.467 28.9-12.467 35.133v60.917c0 7.083 0 23.233 13.033 35.983 12.467 12.183 28.9 12.183 35.7 12.183h17.283V333.2c0 39.667-.283 79.617-.283 119.283 0 7.65-.283 23.233 12.183 35.7 12.467 12.75 28.05 12.75 35.7 12.75h58.083c12.467 0 27.767 0 40.233-12.183 12.75-12.467 12.75-28.05 12.75-40.233V313.083h28.05c28.617 0 46.75-18.133 46.75-47.033v-62.617c0-6.233 0-22.383-12.75-34.85-12.467-12.183-28.333-12.467-34.567-12.467-5.1 0-10.483-.85-15.583-.85-3.683 0-7.65-.567-11.333-.567h-.283v-2.833c4.817 0 9.633.283 14.733.283s10.483.283 15.867 0c28.333-.567 46.183-18.133 46.467-45.9V62.332c.568-5.665.568-11.049.285-16.432zm-34 59.783c0 9.633-2.833 12.183-13.033 12.467-13.317.283-26.35 0-39.667.567-16.717.567-23.517 7.65-24.083 24.367-.567 15.583 0 31.45 0 48.45h23.233c7.367 0 15.017-.85 22.383-.85 5.1 0 10.2-.283 15.3-.283 11.05 0 13.6 2.267 13.6 13.317v62.333c0 10.2-2.833 13.033-13.033 13.033h-61.767v170c0 18.133-.567 18.417-18.983 18.417h-58.083c-12.183 0-13.883-1.983-13.883-14.45 0-54.117.283-108.517.283-162.633v-11.333h-51.284c-12.183 0-14.733-2.267-14.733-14.167v-60.633c0-11.617 2.55-14.167 13.883-14.167h51c.283-3.967.283-7.367.567-10.767.567-20.683-.567-41.933 2.55-62.333 7.367-49.017 44.2-80.467 93.783-82.167 7.933-.283 16.15-.283 24.083-.283 8.783 0 17.567.567 26.35.567 3.4 0 7.083.567 10.483.567h.283c7.933 0 11.617 3.4 11.617 11.333-.566 19.548-.566 38.815-.849 58.648z"/></symbol><symbol viewBox="0 0 18 18" id="icon-search" xmlns="http://www.w3.org/2000/svg"><path d="M17 15.586l-3.542-3.542A7.465 7.465 0 0015 7.5 7.5 7.5 0 107.5 15c1.71 0 3.282-.579 4.544-1.542L15.586 17 17 15.586zM2 7.5C2 4.467 4.467 2 7.5 2 10.532 2 13 4.467 13 7.5c0 3.032-2.468 5.5-5.5 5.5A5.506 5.506 0 012 7.5z"/></symbol><symbol viewBox="0 0 512 512" id="instagram" xmlns="http://www.w3.org/2000/svg"><path d="M505 257c0 34.8-.7 69.7.2 104.5 1.5 61.6-37.2 109.2-86.5 130.4-19.8 8.5-40.6 13-62.1 13-67.3.1-134.7 1-202-.3-50.7-1-92.4-22.2-122.3-64-15.7-22-23.2-47-23.2-74.1v-215c0-58.5 28.5-99.4 79.1-126C110.2 14 134.1 9.1 159 9c65.3 0 130.7-.4 196 .2 50.7.4 93 19.8 124.2 60.6 17.4 22.8 25.8 49 25.8 77.8V257zm-459 0v110c0 16.4 3.8 31.8 12.3 45.7 22.3 36.5 56 54.3 97.8 55 67.1 1 134.3.4 201.5.2 16.5 0 32.5-3.4 47.4-10.5 40.6-19.4 63.3-50.3 63.1-96.7-.4-71-.1-142-.1-213 0-20.1-5.7-38.5-17.6-54.7-23-31.1-54.8-46.4-92.8-46.8-67-.8-134-.3-201-.2-14.3 0-28.1 2.9-41.5 7.9-36.8 13.7-71 48.4-69.4 99.5 1.2 34.6.3 69.1.3 103.6z"/><path d="M257.6 363c-64.5 0-116.5-51.4-116.6-115.4-.1-63 52.3-114.6 116.4-114.6 64.3-.1 116.5 51.4 116.6 114.9 0 63.4-52.1 115-116.4 115.1zm0-37c43.9 0 79.5-35.1 79.4-78.3-.1-42.8-35.7-77.8-79.4-77.8-43.9 0-79.7 34.9-79.7 78 .1 43.2 35.8 78.2 79.7 78.1zM387.5 98c13.5 0 24.5 11.5 24.5 25.6-.1 14.1-11.2 25.5-24.7 25.4-13.3-.1-24.2-11.5-24.2-25.3C363 109.6 374 98 387.5 98z"/></symbol><symbol viewBox="0 0 512 512" id="pinterest" xmlns="http://www.w3.org/2000/svg"><path d="M258.9 507.2C120.4 507.8 6.6 392.6 9.9 252 12.9 118 124 7 262.4 8.7c136.5 1.7 249.4 115.4 245.7 256.1-3.4 133.4-113.5 243-249.2 242.4zM477.8 258c-1-125.2-102.2-221.4-221.5-220-116.6 1.4-216.1 96.4-215.9 220.3.2 125.2 102.2 221.3 221.5 219.7 116.4-1.5 214.9-96.3 215.9-220z"/><path d="M241.7 321.6c-2.5 10.8-5.4 21.5-7.6 32.3-5.3 26.7-14.9 51.6-30.1 74.2-2.6 3.8-5.2 7.7-8 11.4-.7.9-2.6 2.2-3 1.9-1.1-.7-2.3-2.2-2.3-3.4-.9-16.8-2.4-33.5-2.2-50.3.3-22.3 7.3-43.5 11.9-65.1 2.9-13.6 5.8-27.3 8.7-40.9 1.6-7.6 3.7-15.2 4.9-22.9.6-3.6.6-7.7-.5-11.1-6-18.8-6.1-37.3 1.8-55.5 3.9-9.1 9.8-16.8 19.4-20.9 16.9-7.2 33.6 2.8 35.5 21.3 1.4 13.1-1.8 25.4-5.2 37.8-3.9 14.6-8.6 29.1-11.1 43.9-3.8 22.6 15.3 39.3 37.6 34.3 15.4-3.4 25-13.9 32.6-26.5 9.8-16.5 15.2-34.6 16.8-53.6.9-10.9 1.8-21.9 1.5-32.9-.5-16.5-5.6-31.7-16.2-44.6-10.5-12.7-24.2-20.4-40.2-23.6-19.5-3.9-38.6-2.7-57.2 5.1-17.5 7.3-30.9 19.1-40.6 35.1-12.7 20.9-17.4 43.6-13.9 67.9 1.3 9.1 4.6 17.7 10.6 24.9 3.5 4.3 4.9 8.7 2.8 14.2-1.5 4-1.9 8.4-2.9 12.6-1.6 7.1-5.4 8.6-11.9 5.4-19.2-9.6-27.8-26.7-32.9-46.2-4.2-16.4-4.4-33.1-1.6-49.6 3.6-21.2 12.4-40.5 25.8-57.5 15.4-19.5 34.9-33.2 58.3-41.1 23.1-7.9 47-9.9 70.9-5.6 30.5 5.5 55.5 20.9 73.7 46.4 17.7 24.9 24.1 52.8 21.3 83-1.5 15.7-4 31.3-9.2 46.3-8.7 25.3-21.9 47.5-45 62.2-7.7 4.9-16.5 8.4-25.3 11-7 2.1-14.7 2.6-22.1 2.6-17.5-.2-32-7.2-42.6-21.4-.4-.5-.5-1.3-.7-1.9-.7.3-1.3.5-1.8.8z"/></symbol></svg>