<svg id="icons" enable-background="new 0 0 64 64" height="512" viewBox="0 0 64 64" width="512" xmlns="http://www.w3.org/2000/svg"><path d="m42.999 17.985 4 4.01h-12l-1-4.01z" fill="#f6bb42"/><path d="m33.999 17.985 1 4.01h-6-.02l1.02-4.01z" fill="#ccd1d9"/><path d="m29.999 17.985-1.02 4.01h-11.98l4-4.01z" fill="#f6bb42"/><path d="m28.999 21.995v5h.001l2.979-1 3.021 1v-5h12v23h-30v-23h11.979zm14 19v-3h-3v3zm-6 0v-3h-3v3z" fill="#ffce54"/><path d="m53.929 53.915c-8.12 8.109-19.61 10.79-29.95 8.03l.01-.021c-.8-.22-1.27-1.03-1.06-1.84.22-.8 1.04-1.271 1.84-1.061v.021c9.34 2.49 19.71.07 27.04-7.25 10.93-10.93 10.93-28.67 0-39.6l2.12-2.12c12.099 12.101 12.099 31.731 0 43.841z" fill="#ccd1d9"/><path d="m10.079 10.085c8.1-8.11 19.59-10.79 29.93-8.03v.01c.8.221 1.28 1.04 1.06 1.841-.21.8-1.02 1.27-1.83 1.06v-.02c-9.34-2.48-19.72-.07-27.04 7.26-10.93 10.93-10.93 28.66 0 39.59l-2.119 2.12c-12.111-12.111-12.111-31.731-.001-43.831z" fill="#ccd1d9"/><path d="m17.038 57.624c-.008-.038-.001-.076-.014-.114l-2.476-7.425c-.003-.01-.012-.017-.015-.026-.022-.062-.063-.115-.1-.173-.035-.058-.064-.118-.11-.166-.007-.008-.009-.018-.017-.025-.034-.034-.078-.049-.115-.076-.06-.045-.115-.092-.184-.122-.059-.026-.119-.036-.181-.051-.063-.015-.122-.033-.187-.036-.075-.003-.146.014-.221.027-.046.008-.091.001-.137.017-.01.003-.017.012-.026.015-.063.023-.116.064-.174.101-.057.035-.117.063-.164.108-.008.008-.019.01-.026.018l-4.95 4.949c-.008.008-.01.018-.017.025-.046.048-.075.108-.11.166s-.076.111-.1.173c-.003.01-.012.017-.015.026-.016.046-.009.092-.017.138-.014.073-.03.145-.027.219.003.063.021.121.035.183.015.063.025.126.053.187.029.065.074.12.117.178.029.039.045.085.08.12.008.008.018.01.025.018.048.045.108.073.165.108.058.036.111.077.174.101.01.003.017.012.026.015l7.426 2.476c.002.001.004 0 .005.001.1.032.204.051.312.051s.212-.019.312-.051c.002-.001.003 0 .005-.001.009-.003.015-.011.023-.014.104-.037.197-.093.282-.162.032-.025.058-.054.085-.082.055-.056.102-.116.143-.185.022-.039.043-.076.061-.117.012-.025.029-.046.038-.072.013-.038.006-.076.014-.114.015-.067.025-.132.025-.202s-.008-.139-.023-.206z" fill="#e6e9ed"/><path d="m56.299 8.966c.016-.046.009-.092.017-.138.014-.073.03-.145.027-.219-.003-.063-.021-.121-.035-.183-.015-.063-.025-.126-.053-.187-.029-.065-.074-.12-.117-.178-.029-.039-.045-.085-.08-.12-.008-.008-.019-.01-.026-.018-.047-.045-.107-.073-.164-.108-.058-.036-.111-.077-.174-.101-.01-.003-.017-.012-.026-.015l-7.426-2.475c-.036-.012-.071-.006-.107-.014-.069-.015-.137-.026-.209-.025-.072-.001-.14.011-.208.025-.036.008-.072.002-.108.014-.021.007-.036.023-.057.032-.067.027-.127.065-.188.107-.049.034-.097.065-.138.106-.045.045-.079.097-.115.15-.039.057-.074.111-.101.175-.009.022-.026.038-.034.061-.013.038-.006.076-.014.114-.015.067-.025.132-.025.202s.011.135.025.202c.008.038.001.076.014.114l2.476 7.425c.004.011.012.02.016.03.013.035.034.064.052.099.04.079.086.151.143.215.013.015.018.033.031.047.016.016.037.021.054.035.065.059.137.104.216.144.032.016.062.035.095.048.109.04.224.066.343.066.104 0 .211-.017.316-.052.01-.003.017-.012.026-.015.063-.023.116-.064.174-.1.057-.036.117-.064.165-.109.008-.008.018-.01.025-.018l4.95-4.95c.014-.014.019-.032.031-.047.057-.063.103-.136.143-.215.018-.034.039-.063.052-.099.002-.006.01-.014.014-.025z" fill="#e6e9ed"/><path d="m28.996 38.999h-8c-.553 0-1-.447-1-1s.447-1 1-1h8c.553 0 1 .447 1 1s-.447 1-1 1z" fill="#edab37"/><path d="m24.996 41.999h-4c-.553 0-1-.447-1-1s.447-1 1-1h4c.553 0 1 .447 1 1s-.447 1-1 1z" fill="#edab37"/><path d="m36.994 36.999h-3c-.553 0-1 .447-1 1v3c0 .553.447 1 1 1h3c.553 0 1-.447 1-1v-3c0-.553-.447-1-1-1z" fill="#656d78"/><path d="m43 36.999h-3c-.553 0-1 .447-1 1v3c0 .553.447 1 1 1h3c.553 0 1-.447 1-1v-3c0-.553-.447-1-1-1z" fill="#656d78"/><path d="m32.995 21.995h-1.999-2v5.006c0 .016.008.028.009.044.002.045.019.087.026.131.017.089.032.176.07.254.003.008.002.016.006.022.016.03.043.05.062.078.048.075.097.147.163.207.039.035.084.058.127.086.063.041.123.082.195.108.062.023.125.028.19.039.052.008.098.03.151.03.013 0 .022-.007.034-.007.069-.002.137-.024.205-.041.061-.016.122-.023.178-.049.013-.006.025-.005.038-.011l1.532-.774 1.567.777c.012.006.023.008.035.013.02.009.039.014.059.021.114.043.232.07.35.07h.001.002c.118-.001.231-.028.341-.069.032-.012.062-.024.092-.039.083-.041.16-.093.23-.155.017-.016.035-.026.052-.043.069-.072.132-.154.179-.249.004-.009.003-.019.007-.027.028-.061.038-.129.054-.196.015-.064.036-.127.038-.192 0-.01.006-.019.006-.028v-.007l.004.001v-5h-.004z" fill="#e6e9ed"/></svg>