<svg width="59" height="72" fill="none" xmlns="http://www.w3.org/2000/svg"><path fill-rule="evenodd" clip-rule="evenodd" d="M58.34 21.25a3.012 3.012 0 00-2.396-1.179h-38.67l-2.475-7.284H3.058c-1.657 0-3 1.325-3 2.96 0 1.634 1.343 2.958 3 2.958h7.424l13.5 39.733h25.159c1.657 0 3-1.324 3-2.959 0-1.634-1.343-2.958-3-2.958H28.299l-1.726-5.079h23.12a2.995 2.995 0 002.884-2.142l6.25-21.452c.26-.893.08-1.855-.487-2.598zm-7.781 9.548h-4.81V25.99h6.211l-1.401 4.81zM32.942 25.99v4.808h6.807V25.99h-6.807zm6.807 10.727v4.808h-6.807v-4.808h6.807zm-12.807-5.919V25.99h-7.657l1.634 4.808h6.023zm-4.013 5.92h4.013v4.807h-2.379l-1.634-4.808zm22.82 0v4.807h1.685l1.401-4.808h-3.086z" fill="#fff"/><path d="M27.406 71.877c3.193 0 5.781-2.553 5.781-5.702 0-3.15-2.588-5.702-5.781-5.702-3.193 0-5.781 2.553-5.781 5.702s2.588 5.702 5.781 5.702zM44.844 71.877c3.193 0 5.781-2.553 5.781-5.702 0-3.15-2.588-5.702-5.781-5.702-3.193 0-5.781 2.553-5.781 5.702s2.588 5.702 5.781 5.702zM29.335 10.553l7.547 5.416a2.007 2.007 0 002.818-.487 2.066 2.066 0 00-.48-2.855l-2.373-1.703 9.436-5.02 4.628 11.85h4.347L49.214 2.276a2.037 2.037 0 00-1.177-1.166 1.995 1.995 0 00-1.643.107l-13.248 7.05-3.022-2.17a2.004 2.004 0 00-2.742.385l-8.481 10.65c-.17.182-.307.392-.405.62h5.106l5.733-7.2z" fill="#fff"/></svg>