<svg width="78" height="63" fill="none" xmlns="http://www.w3.org/2000/svg"><path d="M25.983 63a7.5 7.5 0 100-15 7.5 7.5 0 000 15zM59.982 63a7.5 7.5 0 100-15 7.5 7.5 0 000 15z" fill="#fff"/><path fill-rule="evenodd" clip-rule="evenodd" d="M11.062 0H64s14 14.812 14 33.688v15.25s-.188 4.062-3.125 4.063h-1.709c-1.174-6.261-6.659-11-13.26-11-6.6 0-12.086 4.739-13.26 11h-7.404c-1.174-6.261-6.659-11-13.259-11-6.6 0-12.086 4.739-13.259 11h-2.099s-2.564-.624-2.564-3.812V33.574l14.751-.76s5.483-.603 6.29-3.756L5.446 27.804a3.375 3.375 0 110-6.75h9.056l8.31-.428s8.177-.608 8.938-3.805l-.196-.043-28.085-1.84a3.469 3.469 0 110-6.938h4.593V3.125S7.874 0 11.062 0zM52 8.938v15h15.812l-5.75-15H52z" fill="#fff"/></svg>