<svg width="73" height="62" viewBox="0 0 73 62" fill="none" xmlns="http://www.w3.org/2000/svg">
<path fill-rule="evenodd" clip-rule="evenodd" d="M0 52.3167C10.9338 46.9371 16.4006 40.6161 16.4006 33.3536C11.7403 32.8156 7.88662 30.9104 4.83951 27.6377C1.79239 24.3651 0.26886 20.577 0.26886 16.2733C0.26886 11.7006 1.74758 7.84528 4.70508 4.70716C7.66257 1.56904 11.3818 0 15.8628 0C20.8816 0 25.2282 2.03975 28.9026 6.11931C32.5771 10.1989 34.4143 15.1525 34.4143 20.9805C34.4143 38.4643 24.6457 52.1373 5.10837 62L0 52.3167ZM38.5857 52.3167C49.6091 46.9371 55.1207 40.6161 55.1207 33.3536C50.3708 32.8156 46.4723 30.9104 43.4252 27.6377C40.3781 24.3651 38.8546 20.577 38.8546 16.2733C38.8546 11.7006 40.3557 7.84528 43.358 4.70716C46.3603 1.56904 50.1019 0 54.583 0C59.6018 0 63.9259 2.03975 67.5556 6.11931C71.1852 10.1989 73 15.1525 73 20.9805C73 38.4643 63.2763 52.1373 43.8285 62L38.5857 52.3167Z" fill="#DFDFDF"/>
</svg>
