<svg width="73" height="62" fill="none" xmlns="http://www.w3.org/2000/svg"><path fill-rule="evenodd" clip-rule="evenodd" d="M0 52.317c10.934-5.38 16.4-11.7 16.4-18.963-4.66-.538-8.513-2.444-11.56-5.716C1.792 24.365.269 20.577.269 16.273c0-4.572 1.479-8.428 4.436-11.566C7.663 1.57 11.382 0 15.863 0c5.019 0 9.365 2.04 13.04 6.12 3.674 4.079 5.511 9.033 5.511 14.86 0 17.484-9.768 31.157-29.306 41.02L0 52.317zm38.586 0c11.023-5.38 16.535-11.7 16.535-18.963-4.75-.538-8.649-2.444-11.696-5.716-3.047-3.273-4.57-7.061-4.57-11.365 0-4.572 1.5-8.428 4.503-11.566C46.36 1.57 50.102 0 54.583 0c5.019 0 9.343 2.04 12.973 6.12C71.186 10.198 73 15.152 73 20.98 73 38.465 63.276 52.138 43.828 62l-5.242-9.683z" fill="#DFDFDF"/></svg>