<svg width="1050" height="23" fill="none" xmlns="http://www.w3.org/2000/svg"><path d="M1050 23c-8.22 0-12.51-4.6-15.98-8.3-3.1-3.3-5.39-5.7-10.22-5.7-4.93 0-7.13 2.4-10.23 5.7-3.47 3.7-7.76 8.3-15.979 8.3-8.217 0-12.508-4.6-15.978-8.3-3.104-3.3-5.387-5.7-10.226-5.7-4.839 0-7.122 2.4-10.226 5.7-3.47 3.7-7.761 8.3-15.978 8.3-8.218 0-12.509-4.6-15.979-8.3-3.104-3.3-5.387-5.7-10.226-5.7-4.93 0-7.121 2.4-10.226 5.7-3.469 3.7-7.761 8.3-15.978 8.3-8.217 0-12.509-4.6-15.978-8.3-3.105-3.3-5.387-5.7-10.226-5.7-4.931 0-7.122 2.4-10.226 5.7-3.835 3.7-8.127 8.3-16.344 8.3s-12.509-4.6-15.978-8.3c-3.105-3.3-5.387-5.7-10.226-5.7-4.931 0-7.122 2.4-10.226 5.7-3.47 3.7-7.761 8.3-15.979 8.3-8.217 0-12.508-4.6-15.978-8.3-3.104-3.3-5.387-5.7-10.226-5.7-4.93 0-7.122 2.4-10.226 5.7-3.652 3.7-7.944 8.3-16.161 8.3-8.217 0-12.509-4.6-15.978-8.3-3.105-3.3-5.387-5.7-10.226-5.7-4.931 0-7.122 2.4-10.226 5.7-3.47 3.7-7.761 8.3-15.979 8.3-8.217 0-12.508-4.6-15.978-8.3-3.104-3.3-5.387-5.7-10.226-5.7-4.839 0-7.122 2.4-10.226 5.7C642.6 18.4 638.217 23 630 23c-8.217 0-12.509-4.6-15.978-8.3-3.105-3.3-5.387-5.7-10.226-5.7-4.931 0-7.122 2.4-10.226 5.7-3.47 3.7-7.761 8.3-15.979 8.3-8.217 0-12.508-4.6-15.978-8.3-3.104-3.3-5.387-5.7-10.226-5.7-4.93 0-7.122 2.4-10.226 5.7-3.47 3.7-7.761 8.3-15.978 8.3-8.218 0-12.509-4.6-15.979-8.3-3.104-3.3-5.387-5.7-10.226-5.7-4.839 0-7.121 2.4-10.226 5.7-3.469 3.7-7.761 8.3-15.978 8.3-8.217 0-12.509-4.6-15.978-8.3-3.105-3.3-5.387-5.7-10.226-5.7-4.931 0-7.122 2.4-10.227 5.7-3.469 3.7-7.76 8.3-15.978 8.3-8.217 0-12.508-4.6-15.978-8.3C401.283 11.4 399 9 394.161 9c-4.931 0-7.122 2.4-10.226 5.7-3.47 3.7-7.761 8.3-15.978 8.3-8.218 0-12.509-4.6-15.979-8.3-3.104-3.3-5.387-5.7-10.226-5.7-4.93 0-7.122 2.4-10.226 5.7-3.469 3.7-7.761 8.3-15.978 8.3-8.218 0-12.509-4.6-15.978-8.3-3.105-3.3-5.387-5.7-10.227-5.7-4.839 0-7.121 2.4-10.226 5.7-3.469 3.7-7.76 8.3-15.978 8.3-8.217 0-12.509-4.6-15.978-8.3-3.104-3.3-5.387-5.7-10.226-5.7-4.931 0-7.122 2.4-10.226 5.7-3.47 3.7-7.761 8.3-15.979 8.3-8.217 0-12.508-4.6-15.978-8.3-3.104-3.3-5.387-5.7-10.226-5.7-4.93 0-7.122 2.4-10.226 5.7-3.47 3.7-7.761 8.3-15.978 8.3-8.218 0-12.509-4.6-15.979-8.3-3.104-3.3-5.386-5.7-10.226-5.7-4.93 0-7.121 2.4-10.226 5.7C117.6 18.4 113.217 23 105 23c-8.217 0-12.509-4.6-15.978-8.3C85.917 11.4 83.635 9 78.796 9c-4.93 0-7.122 2.4-10.226 5.7-3.47 3.7-7.761 8.3-15.98 8.3-8.217 0-12.508-4.6-15.978-8.3C33.417 11.4 31.135 9 26.296 9c-4.93 0-7.122 2.4-10.226 5.7C12.509 18.4 8.217 23 0 23v-9c4.93 0 7.122-2.4 10.226-5.7 3.47-3.7 7.761-8.3 16.07-8.3 8.217 0 12.508 4.6 15.978 8.3C45.378 11.6 47.66 14 52.5 14c4.93 0 7.122-2.4 10.226-5.7 3.47-3.7 7.852-8.3 16.07-8.3 8.217 0 12.508 4.6 15.978 8.3C97.878 11.6 100.16 14 105 14c4.93 0 7.122-2.4 10.226-5.7 3.47-3.7 7.761-8.3 15.978-8.3 8.218 0 12.509 4.6 15.979 8.3 3.104 3.3 5.387 5.7 10.226 5.7 4.93 0 7.121-2.4 10.226-5.7 3.469-3.7 7.761-8.3 15.978-8.3 8.217 0 12.509 4.6 15.978 8.3 3.105 3.3 5.387 5.7 10.226 5.7 4.931 0 7.122-2.4 10.226-5.7 3.47-3.7 7.761-8.3 15.979-8.3C244.239 0 248.53 4.6 252 8.3c3.104 3.3 5.387 5.7 10.226 5.7 4.931 0 7.122-2.4 10.226-5.7 3.47-3.7 7.761-8.3 15.978-8.3 8.218 0 12.509 4.6 15.979 8.3 3.104 3.3 5.387 5.7 10.226 5.7 4.93 0 7.122-2.4 10.226-5.7 3.469-3.7 7.761-8.3 15.978-8.3 8.218 0 12.509 4.6 15.978 8.3 3.105 3.3 5.387 5.7 10.226 5.7 4.84 0 7.122-2.4 10.227-5.7 3.469-3.7 7.76-8.3 15.978-8.3 8.217 0 12.509 4.6 15.978 8.3 3.104 3.3 5.387 5.7 10.226 5.7 4.931 0 7.122-2.4 10.226-5.7 3.47-3.7 7.761-8.3 15.979-8.3 8.217 0 12.508 4.6 15.978 8.3 3.104 3.3 5.387 5.7 10.226 5.7 4.93 0 7.122-2.4 10.226-5.7 3.47-3.7 7.761-8.3 15.978-8.3 8.218 0 12.509 4.6 15.979 8.3 3.104 3.3 5.386 5.7 10.226 5.7 4.93 0 7.121-2.4 10.226-5.7 3.469-3.7 7.761-8.3 15.978-8.3 8.217 0 12.509 4.6 15.978 8.3 3.105 3.3 5.387 5.7 10.226 5.7 4.931 0 7.122-2.4 10.226-5.7 3.47-3.7 7.761-8.3 15.979-8.3 8.217 0 12.508 4.6 15.978 8.3 3.104 3.3 5.387 5.7 10.226 5.7 4.93 0 7.122-2.4 10.226-5.7 3.47-3.7 7.761-8.3 15.978-8.3 8.218 0 12.509 4.6 15.979 8.3 3.104 3.3 5.387 5.7 10.226 5.7 4.93 0 7.121-2.4 10.226-5.7C695.191 4.6 699.483 0 707.7 0c8.217 0 12.509 4.6 15.978 8.3 3.105 3.3 5.387 5.7 10.226 5.7 4.931 0 7.122-2.4 10.226-5.7 4.566-3.7 8.857-8.3 17.166-8.3 8.217 0 12.508 4.6 15.978 8.3 3.104 3.3 5.387 5.7 10.226 5.7 4.839 0 7.122-2.4 10.226-5.7 3.47-3.7 7.761-8.3 15.978-8.3 8.218 0 12.509 4.6 15.979 8.3 3.104 3.3 5.387 5.7 10.226 5.7 4.839 0 7.121-2.4 10.226-5.7 3.561-3.7 7.852-8.3 16.161-8.3 8.308 0 12.508 4.6 15.978 8.3 3.104 3.3 5.387 5.7 10.226 5.7 4.839 0 7.122-2.4 10.226-5.7 3.47-3.7 7.761-8.3 15.978-8.3 8.218 0 12.509 4.6 15.979 8.3 3.104 3.3 5.387 5.7 10.226 5.7 4.93 0 7.121-2.4 10.226-5.7 3.469-3.7 7.761-8.3 15.978-8.3 8.217 0 12.509 4.6 15.978 8.3 3.105 3.3 5.387 5.7 10.226 5.7 4.843 0 7.123-2.4 10.223-5.7 3.47-3.7 7.76-8.3 15.98-8.3s12.51 4.6 15.98 8.3c3.1 3.3 5.39 5.7 10.23 5.7v9h.27z" fill="#F1F1F1"/></svg>