<?xml version="1.0" encoding="utf-8"?><svg xmlns="http://www.w3.org/2000/svg" xmlns:xlink="http://www.w3.org/1999/xlink"><symbol viewBox="0 0 1024 1024" id="arrow-circle-right" xmlns="http://www.w3.org/2000/svg"><path d="M706 476L561 331q-15-15-36-15t-36 15q-15 15-15 36t15 36l57 58H333q-21 0-36 15t-15 36q0 21 15 36t36 15h213l-57 58q-15 15-15 36t15 36 36 15 36-15l145-145q15-15 15-36t-15-36zm62-407Q676 16 575 4T379.5 17.5 203 104q-81 60-134 152T4 449t13.5 195.5T104 821q60 81 152 134t193 65 195.5-13.5T821 920q81-60 134-152t65-193-13.5-195.5T920 203q-60-81-152-134zm99 648q-43 73-108 122-65 48-141 68.5T461 918q-80-9-154-51-73-43-122-108-48-65-68.5-141T105 461q10-80 52-154 43-73 108-122 65-48 141-68.5T563 105q80 10 154 52 73 43 122 108 48 65 68.5 141T918 563q-9 80-51 154z"/></symbol><symbol viewBox="0 0 512 512" id="arrow-thin" xmlns="http://www.w3.org/2000/svg"><path d="M160 128.4L192.3 96 352 256 192.3 416 160 383.6 287.3 256z"/></symbol><symbol viewBox="0 0 1024 1024" id="chevron-down" xmlns="http://www.w3.org/2000/svg"><path d="M316 355l196 196 196-196 60 60-256 256-256-256z"/></symbol><symbol class="dsvg-inline--fa dfa-chevron-right dfa-w-10" viewBox="0 0 320 512" id="chevron-right" xmlns="http://www.w3.org/2000/svg"><path d="M285.476 272.971L91.132 467.314c-9.373 9.373-24.569 9.373-33.941 0l-22.667-22.667c-9.357-9.357-9.375-24.522-.04-33.901L188.505 256 34.484 101.255c-9.335-9.379-9.317-24.544.04-33.901l22.667-22.667c9.373-9.373 24.569-9.373 33.941 0L285.475 239.03c9.373 9.372 9.373 24.568.001 33.941z"/></symbol><symbol viewBox="0 0 1024 1024" id="clock" xmlns="http://www.w3.org/2000/svg"><path d="M512 48q-96 0-180 37-85 36-148 99T85 332q-37 84-37 180t37 180q36 85 99 148t148 99q84 37 180 37t180-37q85-36 148-99t99-148q37-84 37-180t-37-180q-36-85-99-148T692 85q-84-37-180-37zm0 829q-76 0-142-28-67-29-116.5-78.5T175 654q-28-66-28-142t28-142q29-67 78.5-116.5T370 175q66-28 142-28t142 28q67 29 116.5 78.5T849 370q28 66 28 142t-28 142q-29 67-78.5 116.5T654 849q-66 28-142 28zm242-379H545V247q0-16-11-27t-27-11-27 11-11 27v289q0 16 11 27t27 11h247q16 0 27-11t11-27-11-27-27-11z"/></symbol><symbol viewBox="0 0 16 16" id="close" xmlns="http://www.w3.org/2000/svg"><path d="M8.884 8.001l6.933-6.933a.625.625 0 10-.884-.884L8 7.117 1.067.184a.625.625 0 10-.884.884L7.116 8 .183 14.934a.625.625 0 10.884.884L8 8.885l6.933 6.933a.623.623 0 00.884 0 .625.625 0 000-.884L8.884 8.001z"/></symbol><symbol viewBox="0 0 1136 1024" id="cogwheel" xmlns="http://www.w3.org/2000/svg"><path d="M576 765q0 10-7 17t-17 7q-34 0-67.5-8.5T421 756q-66-36-104.5-101T278 515q0-57 21-107 22-50 59.5-87t86.5-59q50-21 107-21 44 0 85 13t75 37.5 60 58.5q25 35 40 76 3 10-1.5 19T796 457q-9 3-18-1.5T766 442q-23-69-82-111t-132-42q-47 0-88 18t-71.5 48.5T344 427t-18 88q0 62 32 115.5t86 82.5q25 14 52.5 21t55.5 7q10-1 17 6.5t7 17.5zm135-250q0 65-46.5 112T552 674t-112.5-47T393 515q0-66 46.5-113T552 355t112.5 47T711 515zm-48 0q0-46-32.5-78.5T552 404t-78.5 32.5T441 515q0 45 32.5 77.5T552 625t78.5-32.5T663 515zM505 976q-15-3-23.5-6.5T471 964l-11-106q-1-7-5.5-12.5T443 838q-32-11-61.5-28T326 770q-5-5-12-6t-14 2l-97 43q-7-2-22.5-17.5T148 747t-22-50.5-4-28.5l86-62q5-4 8-11t1-14q-3-16-5-33t-2-34 2-34 5-34q2-7-1-13.5t-8-10.5l-86-63q-2-7 3.5-28t22.5-50 33-44.5 23-17.5l97 43q6 3 13.5 2t12.5-6q26-22 55-39t61-28q7-2 11.5-7.5T460 171l11-107q5-4 26.5-10t54.5-6q34 0 55 6t26 10l11 107q1 7 5.5 12.5T661 191q32 11 61.5 28t54.5 39q6 5 13 6t13-2l98-43q7 2 22.5 17.5T956 281q16 29 21.5 50.5T982 360l-86 62q-6 5-8.5 11.5T886 447q1 5 2 11t2 11q2 10 9.5 16t17.5 5q10-2 16-9.5t5-17.5q0-3-.5-5.5t-.5-4.5l74-54q28-18 18.5-60.5T998 257q-12-20-25-36.5T946 192q-22-20-38-21t-26 4l-84 37q-25-19-51.5-34.5T691 151l-9-92q-2-33-44-46T552 0q-48 0-88 14t-41 45l-10 92q-29 11-55.5 26T307 212l-85-38q-28-15-60.5 15T107 257q-12 20-20 40t-11 37q-6 30 1 44.5T93 399l75 54q-3 15-4 30.5t-1 31.5q0 15 1 30.5t4 30.5l-75 54q-9 6-16 20.5T76 694q3 17 11 37t20 40q22 39 54.5 68.5T223 854l83-38q25 20 51.5 35.5T414 878l9 91q0 12 13.5 28.5T496 1023q1 1 2.5 1h2.5q8 0 15-5.5t8-14.5q2-9-3.5-17.5T505 976zm355 24q-10 0-17.5-7.5T835 974V621q0-11 7.5-18.5T860 595q11 0 18.5 7.5T886 621v353q0 11-7.5 18.5T860 1000zm203-202q0 11-7.5 18.5T1037 824H684q-11 0-18.5-7.5T658 798q0-11 7.5-18.5T684 772h353q11 0 18.5 7.5t7.5 18.5z"/></symbol><symbol viewBox="0 0 1024 1024" id="coupon" xmlns="http://www.w3.org/2000/svg"><path d="M971 0H598q-10 0-20 4t-17 11L16 560Q1 576 1 597.5T16 635l372 372q16 16 37.5 16t37.5-16l545-545q7-7 11-17t4-20V53q0-22-15.5-37.5T971 0zm17 425q0 3-1.5 6.5T983 437L438 982q-5 5-12.5 5t-12.5-5L41 610q-5-5-5-12.5t5-12.5L586 40q2-2 5.5-3.5T598 35h373q7 0 12 5t5 13v372zM795 141q-37 0-62.5 25.5T707 229q0 36 25.5 61.5T795 316q36 0 62-25.5t26-61.5q0-37-26-62.5T795 141zm0 140q-22 0-37.5-15.5T742 229q0-22 15.5-37.5T795 176t37 15.5 15 37.5q0 21-15 36.5T795 281zm90 343L691 980q-3 6-10 8t-14-1v-1l-92-52-18 30 92 53q6 3 13 5t13 2q4 0 7.5-.5t7.5-1.5q10-3 18.5-9.5T722 996l194-355-31-17zM360 346l25-24 35 35-24 25zm71 71l25-25 35 35-25 25zm70 70l25-25 35 35-25 25-35-35zm70 70l25-25 35 36-24 24zm71 71l25-25 35 35-25 25zM508 751q20-20 20-48t-20-47l-35-36q-20-19-47.5-19T378 620l-35 36q-10 9-23 9t-23-9l-35-36q-9-9-9-22.5t9-22.5l35-35q10-9 23-9t23 9l25-25q-20-20-48-20t-47 20l-6 5-22-23-25 25 23 23-6 5q-19 20-19 47.5t19 47.5l36 35q19 20 47 20t48-20l35-35q9-9 22.5-9t22.5 9l36 35q9 10 9 23t-9 23l-36 35q-9 9-22.5 9t-22.5-9l-25 25q20 20 47.5 20t47.5-20l5-5 23 22 25-24-23-23 5-5zm-77-465l105-105 25 25-105 105-25-25zm70 71l106-106 24 25-105 105-25-24zm70 70l106-106 25 25-106 106zm71 70l105-105 25 25-105 105-25-25zm70 71l105-106 25 25-105 105z"/></symbol><symbol viewBox="0 0 26 26" id="double-arrow" xmlns="http://www.w3.org/2000/svg"><path d="M.046 24.418l2.084 2.084 10.837-10.836 10.836 10.836 2.084-2.084-12.92-12.92z"/><path d="M.046 13.418l2.084 2.084L12.967 4.666l10.836 10.836 2.084-2.084L12.967.498z"/></symbol><symbol viewBox="0 0 1024 1024" id="email" xmlns="http://www.w3.org/2000/svg"><path d="M906 118H118q-40 0-69 29t-29 70v590q0 41 29 70t69 29h788q40 0 69-29t29-70V217q0-41-29-70t-69-29zm0 197L512 561 118 315v-98l394 246 394-246v98z"/></symbol><symbol viewBox="0 0 1040 1024" id="map-mark" xmlns="http://www.w3.org/2000/svg"><path d="M856 255q-3-10-7.5-21t-8.5-20q-25-59-63-100-37-41-81-66t-91-37Q559 0 515 0q-58 0-116 20-59 19-107.5 58.5T209 178q-33 59-42 140v43q0 2 .5 11.5T169 388q5 38 21 77t38 78.5 47 79.5q25 39 47 77 24 41 49 82 25 40 49.5 80.5T470 943q25 41 50 81 31-53 61.5-105.5T642 815q8-15 17-30l18-30q5-9 13.5-18.5T704 718q24-44 54-89 29-44 54.5-88.5T855 452q18-45 18-89v-48q0-10-8-34t-9-26zM518 474q-34 0-67.5-19T398 389q-3-8-3-19.5V329q0-60 41.5-88.5T522 212q55 0 92 38.5t37 92.5q0 55-39 93t-94 38z"/></symbol><symbol viewBox="0 0 1024 1024" id="operator" xmlns="http://www.w3.org/2000/svg"><path d="M773 278q-7-7-16-11t-18-4h-24l2-43 4-55q2-31-8.5-60T681 53q-22-23-50-35T572 6H452q-31 0-59 12t-50 35q-21 23-31.5 52t-8.5 60l5 82 1 16h-26q-9 0-18 4t-16 11q-6 7-9.5 16.5T237 314l8 90q1 14 9.5 24.5T275 444v84q0 9 6 15t15 6q8 0 14-6t6-15v-81h6q5 46 31 84t67 61q21 12 44.5 18t47.5 6 47.5-6 44.5-18 38-27.5 30-34.5q10-1 20-4t19-8q44-24 55-67.5t11-46.5l8-90q1-10-2.5-19.5T773 278zM291 406q-2 0-3.5-1.5T285 401l-7-91q0-1 .5-2.5l.5-1.5q1-1 2-1.5t2-.5h29l7 102h-28zm53-243q-2-23 5.5-44T373 81q16-16 36.5-25t42.5-9h127l-31 84q-4 7-46.5 44.5T348 223zm319 270q-1 15-5 29t-10 27q-13-1-28-6t-32-13q1-3 1.5-5.5t.5-5.5q0-21-15-36t-36-15q-22 0-36.5 15T488 459t14.5 36 36.5 15q7 0 13-2t12-5q16 8 30.5 14t28.5 9q-8 9-17.5 16.5T585 556q-34 19-73 19t-73-19-54.5-51.5T361 433l-11-169q86-8 136-34t73-49q6 8 15 14.5t20 11.5q12 7 32.5 13.5T676 234l-13 199zm-114 26q0 4-3 7t-7 3q-5 0-8-3t-3-7 3-7 8-3q4 0 7 3t3 7zm131-296l-2 30q-28-7-43-12.5t-22-9.5q-17-8-22.5-14.5T585 147l34-89q9 4 17 10t15 13q16 17 23.5 38t5.5 44zm15 317q3-8 4.5-16.5T702 447h21q-4 9-11 18t-17 15zm41-79q0 2-1.5 3.5T731 406h-26l7-102h27q1 0 2 .5t2 1.5l.5 1.5.5 2.5zm288 593l-20-109q-8-46-29.5-86.5T920 725q-32-32-72.5-53.5T762 642q-14-3-28-4.5t-28-1.5h-59q-4 0-8 1.5t-7 4.5L512 763 392 642q-3-3-7-4.5t-8-1.5h-59q-14 0-28 1.5t-28 4.5q-45 8-85.5 29.5T104 725q-33 33-54.5 73.5T20 885L0 994q0 5 1 9t4 8q3 3 7 5t8 2h984q4 0 8-2t7-5q3-4 4-8t1-9zM526 806l129-129h59L512 879l-29-29zM318 677h51l114 114-29 30-144-144h8zM45 977l15-85q14-77 68.5-134T259 684l240 240q6 4 13 4t13-4l240-240q76 17 130.5 74T964 892l15 85H45zm251-408q-9 0-15 6t-6 15v8q0 8 6 14t15 6q8 0 14-6t6-14v-8q0-9-6-15t-14-6z"/></symbol><symbol viewBox="0 0 1024 1024" id="operator-man" xmlns="http://www.w3.org/2000/svg"><path d="M973 850q-77-41-137.5-64T723 754l7-10q3-2 4-6t0-8l-16-64 8-12 8-13q48-16 72.5-44t28.5-68q21-1 36.5-17t15.5-38V346q0-21-14.5-37T836 292q-1-37-13-87-12-51-46.5-96T679 32 512 0 345 32t-97.5 77-46.5 96q-12 50-13 87-21 1-36 16.5T137 346v128q0 22 16.5 38.5T193 529h25q8 0 14.5-2t12.5-5q7 38 22.5 75t38.5 69l-16 64q0 3 .5 6.5t3.5 7.5l7 10q-52 9-112.5 32T51 850q-24 11-37.5 34T0 934v73q0 8 4.5 12.5T17 1024h990q8 0 12.5-4.5t4.5-12.5v-73q0-26-14-48.5T973 850zm-461-39l41 94h-83zm-54 128h108l10 51H448l10-51zm233-239l7 30-17 24-2 2-1 2-71 98-23 31-46-104q42-5 79-25t67-51l3.5-3.5zm67-106q7-18 12.5-36t8.5-37q5 3 10.5 5t11.5 3q-2 18-11.5 34.5T758 594zm94-249v128q0 7-6 13.5t-15 6.5h-25q-8 0-14.5-5.5T785 473V345q0-8 6-14.5t15-6.5h25q8 0 14.5 6t6.5 15zM512 34q39 0 89 9 49 9 92.5 36.5T768 157q31 51 34 135-6 1-11 2.5t-9 3.5q-8-48-32-90t-60-73-82-49q-45-18-96-18t-96 18q-46 18-82 49t-60 73-32 90q-4-2-9-3.5t-11-2.5q3-84 34-135 31-50 74.5-77.5T423 43q50-9 89-9zM237 473q0 7-5.5 13.5T217 493h-26q-8 0-14-5.5t-6-14.5V345q0-8 5.5-14.5T191 324h26q7 0 13.5 6t6.5 15v128zm36-132q0-49 19-92 19-44 51.5-76.5T419 121q44-19 93-19t93 19q43 19 75.5 51.5T732 249q19 43 19 92v120q0 42-10.5 80.5T712 613q-30 8-75 13t-108 5q-8 0-12.5 5t-4.5 13q0 7 4.5 12t12.5 5q46 0 85-3t70-9l-3 3q-6 9-13 16.5T654 688q-30 28-65 44.5T520 751q-2-1-4-1.5t-4-.5-4 .5-3 1.5q-21-1-42.5-7.5T420 725t-40-29-37-39l-5-5h-1q-29-38-46.5-86.5T273 461V341zm213 442l-46 104-23-31-71-98q0-1-.5-1t-.5-1l-19-26 7-30 7 7q30 31 67 51t79 25zM34 934q0-17 8.5-31.5T67 881q81-44 142.5-66.5T323 785l102 140-13 65H34v-56zm956 56H612l-13-65 103-141q52 8 114 30.5T957 879q16 9 24.5 23.5T990 934v56z"/></symbol><symbol viewBox="0 0 1024 1024" id="phone" xmlns="http://www.w3.org/2000/svg"><path d="M896 680q-43 0-86.5-7T723 651q-11-3-24 0t-24 10L570 766q-51-25-96-59-46-33-86-73.5T314 546q-34-46-61-96l105-106q11-11 14-24t-4-24q-11-40-17.5-82.5T344 128q0-22-13-35t-35-13H128q-22 0-35 13t-13 35q0 169 64 318 64 148 174.5 259T578 880t318 64q22 0 35-13t13-35V728q0-22-13-35t-35-13zm-48-168h96q0-90-34-169-33-79-91.5-137.5T681 114q-79-34-169-34v96q70 0 131 26 62 26 107.5 71.5T822 381q26 61 26 131zm-192 0h96q0-50-19-94-18-44-50.5-76.5T606 291q-44-19-94-19v96q61 0 102.5 41.5T656 512z"/></symbol><symbol viewBox="0 0 512 512" class="osvg-inline--fa ofa-search ofa-w-16 ofa-fw" id="search" xmlns="http://www.w3.org/2000/svg"><path d="M505 442.7L405.3 343c-4.5-4.5-10.6-7-17-7H372c27.6-35.3 44-79.7 44-128C416 93.1 322.9 0 208 0S0 93.1 0 208s93.1 208 208 208c48.3 0 92.7-16.4 128-44v16.3c0 6.4 2.5 12.5 7 17l99.7 99.7c9.4 9.4 24.6 9.4 33.9 0l28.3-28.3c9.4-9.4 9.4-24.6.1-34zM208 336c-70.7 0-128-57.2-128-128 0-70.7 57.2-128 128-128 70.7 0 128 57.2 128 128 0 70.7-57.2 128-128 128z"/></symbol><symbol viewBox="0 0 1511 1024" id="uniE903" xmlns="http://www.w3.org/2000/svg"><path d="M1511 361v4q-9 9-18.5 17.5T1474 400q-18 19-25 20t-30-13q-10-6-20.5-14.5T1380 386q-21 5-43 10t-37 26q-30 40-60 81-31 40-61 80.5t-60 80.5l-60 82q-17 23-37.5 40.5T973 812H344q-36-15-47.5-32.5T285 723v-83q0-32-13-51t-44-30q-43-17-87-34t-88-33q-17-6-31-16.5T0 448v-33q14-51 27-101.5T54 212h4l18 9q72 26 143.5 53T363 327q11 4 15.5 10.5T382 356q-1 8 0 16.5t2 16.5h149v-75h-69v-88h244v86h-78v77q35 0 70 1t69-2q30-2 52 7.5t37 33.5q7 10 15 11t19-2q63-19 126-39 64-19 127.5-38t126.5-38q63-20 127-39 10-3 17.5-1.5t15.5 8.5q19 18 39 35.5t40 34.5zM290 491v-58q0-35-5.5-43T247 370q-27-10-53.5-20T140 331q-20-8-28-3.5T100 352q-2 8-4 15.5T93 382q-6 22-2 29.5t25 15.5q27 10 54 19.5t54 19.5q16 7 32 12.5t34 12.5zm1153-12q-5 4-11 7t-10 8q-14 18-27.5 36.5T1370 569q-15 25-14 51.5t11 52.5q6 17 17.5 28.5T1415 716t34.5-5 27.5-23q20-25 21-57t-18-62q-13-20-24.5-40t-6.5-47q-1-1-3-1.5t-3-1.5z"/></symbol><symbol viewBox="0 0 1072 1024" id="uniE906" xmlns="http://www.w3.org/2000/svg"><path d="M536 0Q430 0 337 40q-93 41-162.5 110.5T64 313q-40 93-40 199t40 199q41 93 110.5 162.5T337 984q93 40 199 40t199-40q93-41 162.5-110.5T1008 711q40-93 40-199t-40-199q-41-93-110.5-162.5T735 40Q642 0 536 0zm0 876q-75 0-142-29-66-29-115-78t-78-115q-29-67-29-142t29-142q29-66 78-115t115-78q67-29 142-29t142 29q66 29 115 78t78 115q29 67 29 142t-29 142q-29 66-78 115t-115 78q-67 29-142 29zm0-681q-65 0-123 25t-101 68-68 101-25 123 25 123 68 101 101 68 123 25 123-25 101-68 68-101 25-123-25-123-68-101-101-68-123-25zm276 297H658q-2-15-7.5-28T637 439l108-108q29 33 46.5 74t20.5 87zM556 236q46 3 87 20.5t74 46.5L608 411q-11-8-24.5-13.5T556 389V236zm-40 0v153q-14 3-27.5 8.5T464 411L355 303q33-29 74-46.5t87-20.5zm-189 95l108 108q-8 12-13.5 25t-7.5 28H260q3-46 20.5-87t46.5-74zm-67 201h154q2 14 7.5 27.5T435 584L327 693q-29-33-46.5-74T260 532zm256 256q-46-3-87-20.5T355 721l109-109q11 9 24.5 14.5T516 634v154zm0-195v1q-6-2-12-4.5t-12-5.5v-1q-8-5-15-12t-13-16q-3-5-5.5-11t-4.5-12q-1-5-1.5-10t-.5-10 .5-10 1.5-10q2-7 4.5-13t5.5-11q6-9 13-16t15-12q6-4 12-6.5t12-3.5q5-1 10-1.5t10-.5 10 .5 10 1.5q6 1 12 3.5t12 6.5q8 5 15 12t13 16q3 5 5.5 11t4.5 13q1 5 1.5 10t.5 10-.5 10-1.5 10q-2 6-4.5 12t-5.5 11q-6 9-13 16t-15 12v1q-6 3-12 5.5t-12 4.5v-1l-10 2-10 1-10-1zm40 195V634q14-2 27.5-7.5T608 612l109 109q-33 29-74 46.5T556 788zm189-95L637 584q8-11 13.5-24.5T658 532h154q-3 46-20.5 87T745 693z"/></symbol><symbol viewBox="0 0 1024 1024" id="uniE907" xmlns="http://www.w3.org/2000/svg"><path d="M545 66h-19.5L507 67v100q0 18-12.5 31T464 212q-25 2-48.5 7.5T370 235t-42 24-38 31q-17 18-31 38t-24 42-15.5 45.5T212 464q-1 18-14 30.5T167 507H67q-1 9-1 18.5V545q0 99 37 186 38 88 103 153t152 102q88 38 187 38t186-38q88-37 153-102t102-153q38-87 38-186t-38-187q-37-87-102-152T731 103q-87-37-186-37zm206 685q-42 41-95 63t-111 22q-59 0-112-22t-94-63q-41-42-63-95t-22-111q0-59 22-112t63-94 94-63 112-22q58 0 111 22t95 63q41 41 63 94t22 112q0 58-22 111t-63 95zM545 310q-49 0-92 18-42 19-74 51t-51 74q-18 43-18 92 0 48 18 91 19 43 51 75t74 50q43 19 92 19 48 0 91-19 43-18 75-50t50-75q19-43 19-91 0-49-19-92-18-42-50-74t-75-51q-43-18-91-18zm0 51q11 0 18.5 7.5T571 387t-7.5 18.5T545 413t-19-7.5-8-18.5 8-18.5 19-7.5zM385 573q-11 0-18.5-8t-7.5-19 7.5-18.5T385 520t19 7.5 8 18.5-8 19-19 8zm160 159q-11 0-19-7.5t-8-18.5 8-18.5 19-7.5 18.5 7.5T571 706t-7.5 18.5T545 732zm0-103q-35 0-59.5-24.5T461 545t24.5-59.5T545 461t59.5 24.5T629 545t-24.5 59.5T545 629zm186-83q0 11-8 19t-19 8-18.5-8-7.5-19 7.5-18.5T704 520t19 7.5 8 18.5zM18 479h149q7 0 12-5t5-12q4-54 26-103.5t60-88.5q39-38 88.5-60T462 184q7 0 12-5t5-12V18q0-8-5.5-13T461 0h-1q-93 4-176 41-82 37-144 99T41 284Q4 367 0 460q0 8 5 13.5t13 5.5z"/></symbol><symbol viewBox="0 0 1424 1024" id="uniE92C" xmlns="http://www.w3.org/2000/svg"><path d="M1210 633q-9 33-23 51.5t-26 18.5q-18 0-38.5-39T1102 561q0-63 20-102t37-40v-1h116q-1-2-2.5-4t-2.5-5q-18-32-46-54t-65-22H490q-31 1-59 21t-47 55q-4 7-7.5 14.5T370 438h-83v-78q0-52-37-89t-89-37H64q-26 0-45 18.5T0 298t19 45.5T64 362h95v78q0 53 37 90t89 37h63q1 40 10 77.5t26 67.5q18 33 47 55.5t66 20.5h664q32 0 60.5-20t48.5-56q10-17 17-37t11-42h-88zm186-171h-195q-11 0-19.5 19t-8.5 46q0 26 8.5 45t19.5 19h195q12 0 20-19t8-45q0-27-8-46t-20-19z"/></symbol><symbol viewBox="0 0 1120 1024" id="uniE92D" xmlns="http://www.w3.org/2000/svg"><path d="M768 326l-62-55H605v-49h32v-74H378v74h33v49H305l-62 55h-97v181H73v-93H0v259h73v-93h73v182h159l128 114h432V326h-97zm313 57l-10-18H938v469h133l10-18q3-5 21-55.5t18-161.5-18-161.5-21-54.5z"/></symbol><symbol viewBox="0 0 1024 1024" id="uniE92E" xmlns="http://www.w3.org/2000/svg"><path d="M896 775V249q37-13 61-46t24-75q0-53-37.5-90.5T853 0t-90.5 37.5T725 128q0 42 24 75t62 46v220H555V249q37-13 61-46t24-75q0-53-37.5-90.5T512 0t-90.5 37.5T384 128q0 42 24 75t61 46v220H213V249q38-13 62-46t24-75q0-53-37.5-90.5T171 0 80.5 37.5 43 128q0 42 24 75t61 46v263q0 18 12.5 30.5T171 555h298v220q-37 13-61 46t-24 75q0 53 37.5 90.5T512 1024t90.5-37.5T640 896q0-42-24-75t-61-46V555h256v220q-38 13-62 46t-24 75q0 53 37.5 90.5T853 1024t90.5-37.5T981 896q0-42-24-75t-61-46zM853 85q18 0 30.5 12.5T896 128t-12.5 30.5T853 171q-17 0-29.5-12.5T811 128t12.5-30.5T853 85zm-341 0q18 0 30.5 12.5T555 128t-12.5 30.5T512 171t-30.5-12.5T469 128t12.5-30.5T512 85zm-341 0q17 0 29.5 12.5T213 128t-12.5 30.5T171 171q-18 0-30.5-12.5T128 128t12.5-30.5T171 85zm341 854q-18 0-30.5-12.5T469 896t12.5-30.5T512 853t30.5 12.5T555 896t-12.5 30.5T512 939zm341 0q-17 0-29.5-12.5T811 896t12.5-30.5T853 853q18 0 30.5 12.5T896 896t-12.5 30.5T853 939z"/></symbol><symbol viewBox="0 0 1024 1024" id="vent" xmlns="http://www.w3.org/2000/svg"><path d="M991 331V116q0-35-24-59t-59-24H693q-42-16-87.5-24.5T512 0t-93.5 8.5T331 33H116q-35 0-59 24t-24 59v215q-16 42-24.5 87.5T0 512t8.5 93.5T33 693v215q0 35 24 59t59 24h215q42 16 87.5 24.5t93.5 8.5 93.5-8.5T693 991h215q35 0 59-24t24-59V693q16-42 24.5-87.5t8.5-93.5-8.5-93.5T991 331zM908 66q21 0 35.5 14.5T958 116v145q-35-61-84.5-110.5T763 66h145zM66 116q0-21 14.5-35.5T116 66h145q-61 35-110.5 84.5T66 261V116zm50 842q-21 0-35.5-14.5T66 908V763q35 61 84.5 110.5T261 958H116zm842-50q0 21-14.5 35.5T908 958H763q61-35 110.5-84.5T958 763v145zm-446 83q-99 0-186-38-87-37-152.5-102.5T71 698q-38-87-38-186t38-186q37-87 102.5-152.5T326 71q87-38 186-38t186 38q87 37 152.5 102.5T953 326q38 87 38 186t-38 186q-37 87-102.5 152.5T698 953q-87 38-186 38zm91-408l118 53q9 4 19 6t21 2q40 0 69-28.5t29-69.5V380q0-27-19.5-46.5T792 314q-19 0-36 10.5T731 353l-18 42q-13 30-37 50.5T622 476q-6-17-15.5-30.5T583 421l53-118q4-9 6-19t2-21q0-40-29-69t-69-29H380q-27 0-46.5 19.5T314 232q0 19 10.5 36t28.5 25l42 18q30 13 50.5 37t30.5 54q-17 6-30.5 15.5T421 441l-118-53q-9-4-19-6t-21-2q-40 0-69 28.5T165 478v166q0 27 19.5 46.5T232 710q19 0 36-10.5t25-28.5l18-42q13-30 37-50.5t54-30.5q6 17 15.5 30.5T441 603l-53 118q-4 9-6 19t-2 21q0 40 28.5 69t69.5 29h166q27 0 46.5-19.5T710 792q0-19-10.5-36T671 731l-42-18q-30-13-50.5-37T548 622q17-6 30.5-15.5T603 583zm25-71q0-1-.5-2t-.5-2q39-11 69.5-37t46.5-62l19-42q4-9 12-14.5t18-5.5q14 0 24 10t10 23v166q0 27-19 46t-46 19q-7 0-14-1.5t-13-4.5l-115-51q4-9 6.5-20t2.5-22zm-232 0q0 1 .5 2t.5 2q-39 11-69.5 37T281 615l-19 42q-4 9-12 14.5t-18 5.5q-14 0-24-10t-10-23V478q0-27 19-46t46-19q7 0 14 1.5t13 4.5l115 51q-4 9-6.5 20t-2.5 22zm13-231l-42-19q-9-4-14.5-12t-5.5-18q0-14 10-24t23-10h166q27 0 46 19t19 46q0 7-1.5 14t-3.5 13l-51 115q-10-4-21-6.5t-22-2.5q-1 0-2 .5t-2 .5q-11-39-37-69.5T409 281zm206 462l42 19q9 4 14.5 12t5.5 18q0 14-10 24t-23 10H478q-27 0-46-19t-19-46q0-7 1.5-14t4.5-13l50-115q10 4 21 6.5t22 2.5q1 0 2-.5t2-.5q11 39 37 69.5t62 46.5zM512 595q-34 0-58.5-24.5T429 512t24.5-58.5T512 429t58.5 24.5T595 512t-24.5 58.5T512 595zm0-529q-92 0-173 35-82 35-142.5 95.5T101 339q-35 81-35 173t35 173q35 82 95.5 142.5T339 923q81 35 173 35 73 0 141-22.5T779 869l-20-26q-54 40-117 61t-130 21q-85 0-161-33-75-32-131-88t-88-131q-33-76-33-161t33-161q32-75 88-131t131-88q76-33 161-33t161 33q75 32 131 88t88 131q33 76 33 161 0 44-9 87-10 42-27.5 81.5T846 755q-26 36-59 65l22 24q36-31 63-69 28-38 47-80.5t29-88.5 10-94q0-92-35-173-35-82-95.5-142.5T685 101q-81-35-173-35zM99 99h33v33H99V99zm793 0h33v33h-33V99zM99 892h33v33H99v-33zm793 0h33v33h-33v-33z"/></symbol><symbol class="wsvg-inline--fa wfa-whatsapp wfa-w-14" viewBox="0 0 448 512" id="whatsapp" xmlns="http://www.w3.org/2000/svg"><path d="M380.9 97.1C339 55.1 283.2 32 223.9 32c-122.4 0-222 99.6-222 222 0 39.1 10.2 77.3 29.6 111L0 480l117.7-30.9c32.4 17.7 68.9 27 106.1 27h.1c122.3 0 224.1-99.6 224.1-222 0-59.3-25.2-115-67.1-157zm-157 341.6c-33.2 0-65.7-8.9-94-25.7l-6.7-4-69.8 18.3L72 359.2l-4.4-7c-18.5-29.4-28.2-63.3-28.2-98.2 0-101.7 82.8-184.5 184.6-184.5 49.3 0 95.6 19.2 130.4 54.1 34.8 34.9 56.2 81.2 56.1 130.5 0 101.8-84.9 184.6-186.6 184.6zm101.2-138.2c-5.5-2.8-32.8-16.2-37.9-18-5.1-1.9-8.8-2.8-12.5 2.8-3.7 5.6-14.3 18-17.6 21.8-3.2 3.7-6.5 4.2-12 1.4-32.6-16.3-54-29.1-75.5-66-5.7-9.8 5.7-9.1 16.3-30.3 1.8-3.7.9-6.9-.5-9.7-1.4-2.8-12.5-30.1-17.1-41.2-4.5-10.8-9.1-9.3-12.5-9.5-3.2-.2-6.9-.2-10.6-.2-3.7 0-9.7 1.4-14.8 6.9-5.1 5.6-19.4 19-19.4 46.3 0 27.3 19.9 53.7 22.6 57.4 2.8 3.7 39.1 59.7 94.8 83.8 35.2 15.2 49 16.5 66.6 13.9 10.7-1.6 32.8-13.4 37.4-26.4 4.6-13 4.6-24.1 3.2-26.4-1.3-2.5-5-3.9-10.5-6.6z"/></symbol><symbol viewBox="0 0 1136 1024" id="wrench" xmlns="http://www.w3.org/2000/svg"><path d="M1001 624q-9 0-15.5 6.5T979 646v272H798V540h203q9 0 15.5-6.5t6.5-15.5-6.5-15.5-15.5-6.5H777q-10 0-16 6.5t-6 15.5v11L615 390q-16-16-37-20t-41 3q34-33 52.5-76t18.5-91q0-63-32.5-118T487 3q-5-3-11-3t-11 3-7.5 8-2.5 11v195H298V22q0-6-3-11t-8-8-10.5-3T265 3q-55 30-87.5 85T145 206q0 52 21.5 98t60.5 79v57h-39q-31 0-53 22t-22 53v1q0 15 6 28.5t16 23.5q-10 10-16 23.5t-6 29.5v1q0 15 6 28.5t16 23.5q-10 10-16 23.5t-6 29.5v1q0 15 6 28.5t16 23.5q-10 11-16 24.5t-6 28.5v1q0 31 22 52.5t53 21.5h43q11 51 51.5 83.5T375 1024h2q53 0 93.5-33t51.5-83h174q9 0 15.5-6t6.5-15-6.5-15.5T696 865H525V684q0-9-6.5-15.5T503 662t-15 6.5-6 15.5v192q0 43-30.5 73.5T377 980h-2q-34 0-61.5-20T276 908h34q31 0 53-21.5t22-52.5v-1q0-15-6-28.5T363 780q10-10 16-23.5t6-28.5v-1q0-16-6-29.5T363 674q10-10 16-23.5t6-28.5v-1q0-16-6-29.5T363 568q10-10 16-23.5t6-28.5v-1q0-31-22-53t-53-22h-39v-67q0-5-2.5-10t-6.5-8q-35-27-54.5-66T188 206q0-42 17.5-79T254 63v176q0 9 6.5 15t15.5 6h200q10 0 16-6t6-15V63q31 27 48.5 64t17.5 79q0 44-19.5 83T490 355q-4 3-6 8t-2 10v46l-59 58q-10 10-16 24t-6 28q0 15 6 29t16 24l1 1q11 11 24.5 16.5T477 605q14 0 27.5-5.5T529 583l44-44q6-6 6-15t-6-16q-7-6-16-6t-15 6l-44 44q-9 9-21.5 9t-21.5-9l-1-1q-4-4-6.5-9.5T445 529q0-6 2.5-11.5t6.5-9.5l87-87q9-9 21.5-9t21.5 9l171 170v349q0 9 6 15t16 6h224q9 0 15.5-6t6.5-15V646q0-9-6.5-15.5T1001 624zm-660-3v1q0 12-9 21t-22 9H188q-13 0-22-9t-9-21v-1q0-13 9-22t22-9h122q13 0 22 9t9 22zm0 106v1q0 13-9 22t-22 9H188q-13 0-22-9t-9-22v-1q0-13 9-22t22-9h122q13 0 22 9t9 22zm0 107q0 13-9 22t-22 9H188q-13 0-22-9t-9-22v-1q0-13 9-22t22-9h122q13 0 22 9t9 22v1zm0-319v1q0 12-9 21t-22 9H188q-13 0-22-9t-9-21v-1q0-13 9-22t22-9h122q13 0 22 9t9 22z"/></symbol></svg>