<?xml version="1.0" encoding="utf-8"?><svg xmlns="http://www.w3.org/2000/svg" xmlns:xlink="http://www.w3.org/1999/xlink"><symbol viewBox="0 0 30 30" id="arrow-right" xmlns="http://www.w3.org/2000/svg"><path d="M15 0C6.716 0 0 6.716 0 15c0 8.284 6.716 15 15 15 8.284 0 15-6.716 15-15 0-8.284-6.716-15-15-15zm-1.733 20.121a.787.787 0 01-1.117-.002.79.79 0 01.002-1.117l4.03-4.012-4.04-4.178a.79.79 0 011.135-1.097l5.121 5.296-5.131 5.11z"/><defs><linearGradient id="apaint0_linear_1_16019" x1="43.714" y1="32.571" x2="0" y2="0" gradientUnits="userSpaceOnUse"><stop stop-color="#CB8A1B"/><stop offset=".464" stop-color="#DDA440"/><stop offset=".74" stop-color="#E9C005"/><stop offset="1" stop-color="#E9C104"/></linearGradient></defs></symbol><symbol viewBox="0 0 16 16" id="close" xmlns="http://www.w3.org/2000/svg"><path d="M8.884 8.001l6.933-6.933a.625.625 0 10-.884-.884L8 7.117 1.067.184a.625.625 0 10-.884.884L7.116 8 .183 14.934a.625.625 0 10.884.884L8 8.885l6.933 6.933a.623.623 0 00.884 0 .625.625 0 000-.884L8.884 8.001z"/></symbol><symbol viewBox="0 0 26 26" id="double-arrow" xmlns="http://www.w3.org/2000/svg"><path d="M.046 24.418l2.084 2.084 10.837-10.836 10.836 10.836 2.084-2.084-12.92-12.92z"/><path d="M.046 13.418l2.084 2.084L12.967 4.666l10.836 10.836 2.084-2.084L12.967.498z"/></symbol><symbol viewBox="0 0 448 512" id="insta" xmlns="http://www.w3.org/2000/svg"><path d="M224.1 141c-63.6 0-114.9 51.3-114.9 114.9s51.3 114.9 114.9 114.9S339 319.5 339 255.9 287.7 141 224.1 141zm0 189.6c-41.1 0-74.7-33.5-74.7-74.7s33.5-74.7 74.7-74.7 74.7 33.5 74.7 74.7-33.6 74.7-74.7 74.7zm146.4-194.3c0 14.9-12 26.8-26.8 26.8-14.9 0-26.8-12-26.8-26.8s12-26.8 26.8-26.8 26.8 12 26.8 26.8zm76.1 27.2c-1.7-35.9-9.9-67.7-36.2-93.9-26.2-26.2-58-34.4-93.9-36.2-37-2.1-147.9-2.1-184.9 0-35.8 1.7-67.6 9.9-93.9 36.1s-34.4 58-36.2 93.9c-2.1 37-2.1 147.9 0 184.9 1.7 35.9 9.9 67.7 36.2 93.9s58 34.4 93.9 36.2c37 2.1 147.9 2.1 184.9 0 35.9-1.7 67.7-9.9 93.9-36.2 26.2-26.2 34.4-58 36.2-93.9 2.1-37 2.1-147.8 0-184.8zM398.8 388c-7.8 19.6-22.9 34.7-42.6 42.6-29.5 11.7-99.5 9-132.1 9s-102.7 2.6-132.1-9c-19.6-7.8-34.7-22.9-42.6-42.6-11.7-29.5-9-99.5-9-132.1s-2.6-102.7 9-132.1c7.8-19.6 22.9-34.7 42.6-42.6 29.5-11.7 99.5-9 132.1-9s102.7-2.6 132.1 9c19.6 7.8 34.7 22.9 42.6 42.6 11.7 29.5 9 99.5 9 132.1s2.7 102.7-9 132.1z"/></symbol><symbol viewBox="0 0 13 21" id="ok" xmlns="http://www.w3.org/2000/svg"><path d="M4.129 15.332c-.98-.453-1.927-.872-2.85-1.325a1.362 1.362 0 01-.775-1.133c-.063-.598.152-1.089.653-1.418.52-.34 1.07-.34 1.597-.015.992.623 2.13.975 3.3 1.02 1.342.047 2.57-.32 3.733-.995.975-.566 2.02-.107 2.27.95.14.601-.129 1.259-.78 1.597-.902.47-1.845.864-2.824 1.315.08.095.186.244.314.372.797.806 1.606 1.606 2.398 2.411.667.678.701 1.628.09 2.221-.592.578-1.524.526-2.175-.125a765.126 765.126 0 01-2.287-2.295c-.495-.496-.497-.496-.975-.018-.738.74-1.505 1.453-2.204 2.229-.75.831-1.82.686-2.311.204-.479-.464-.651-1.57.177-2.317.801-.722 1.534-1.52 2.296-2.287.131-.134.252-.279.353-.391z"/><circle cx="6.35" cy="5.746" r="3.704"/></symbol><symbol viewBox="0 0 21 17" id="teleg" xmlns="http://www.w3.org/2000/svg"><path d="M20.28 1.163c-.048.707-.454 3.186-.86 5.867l-1.268 7.94s-.098 1.162-.959 1.365c-.861.203-2.275-.707-2.528-.91-.202-.154-3.794-2.43-5.11-3.543-.358-.301-.757-.91.049-1.617a189.771 189.771 0 005.314-5.062c.609-.61 1.21-2.024-1.317-.301L6.467 9.705s-.812.504-2.325.049C2.623 9.299.852 8.689.852 8.689s-1.211-.756.861-1.568l11.79-4.859c1.162-.504 5.111-2.121 5.111-2.121s1.82-.7 1.667 1.022z"/></symbol><symbol viewBox="0 0 23 14" id="vk" xmlns="http://www.w3.org/2000/svg"><path d="M12.39 13.158c.562 0 .791-.375.785-.844-.029-1.769.659-2.72 1.9-1.48 1.372 1.373 1.656 2.324 3.323 2.324h2.951c.745 0 1.039-.24 1.039-.617 0-.796-1.311-2.2-2.422-3.232-1.555-1.443-1.628-1.477-.288-3.215 1.66-2.157 3.834-4.922 1.912-4.922h-3.672c-.712 0-.764.402-1.017 1-.918 2.164-2.662 4.968-3.325 4.54-.692-.448-.375-2.22-.322-4.853.013-.696.01-1.173-1.053-1.42A7.444 7.444 0 0010.533.25c-2.097 0-3.543.879-2.721 1.032 1.449.27 1.31 3.405.972 4.76-.589 2.357-2.8-1.867-3.722-3.971-.222-.506-.29-.899-1.084-.899H.976c-.454 0-.726.148-.726.476 0 .556 2.73 6.199 5.337 9.012 2.542 2.744 5.054 2.498 6.803 2.498z"/></symbol></svg>