<?xml version="1.0" encoding="utf-8"?><svg xmlns="http://www.w3.org/2000/svg" xmlns:xlink="http://www.w3.org/1999/xlink"><symbol viewBox="0 0 25 20" id="baby" xmlns="http://www.w3.org/2000/svg"><path d="M2.6 7.422h-.541A2.06 2.06 0 000 9.47c0 1.129.927 2.053 2.059 2.053h.434c.891 4.506 5.035 7.909 9.991 7.909 4.956 0 9.1-3.403 9.992-7.909h.469A2.06 2.06 0 0025 9.471c0-1.13-.924-2.05-2.055-2.05h-.573C21.387 3.526 17.943.55 13.714.06c.251.351.403.776.403 1.231v2.075a2.081 2.081 0 01-4.163-.003l.007-1.252c-.003-.327.162-.53.289-.678a1.266 1.266 0 011.772-.147c.526.444.593 1.243.148 1.767-.359.424-.996-.114-.637-.537a.415.415 0 00-.05-.595c-.181-.154-.43-.09-.6.016-.055.034-.085.075-.089.17l-.005 1.259a1.233 1.233 0 001.248 1.243c.699 0 1.246-.546 1.246-1.243V1.29c0-.697-.542-1.288-1.26-1.291-4.588.202-8.381 3.298-9.424 7.422zm5.719-.436c.692 0 1.262.567 1.262 1.257s-.57 1.259-1.262 1.259a1.268 1.268 0 01-1.264-1.259c0-.69.572-1.257 1.264-1.257zm8.334 0c.693 0 1.261.567 1.261 1.257s-.569 1.259-1.26 1.259a1.266 1.266 0 01-1.262-1.259c0-.69.57-1.257 1.261-1.257zm-7.947 5.839h7.535c.229 0 .414.187.415.415 0 1.019-.766 1.752-1.615 2.203-.849.45-1.822.675-2.557.675-.735 0-1.707-.224-2.556-.675-.849-.451-1.618-1.184-1.618-2.203a.42.42 0 01.396-.415z"/></symbol><symbol viewBox="0 0 11 20" id="fb" xmlns="http://www.w3.org/2000/svg"><path fill-rule="evenodd" clip-rule="evenodd" d="M7.517 5.264V7.5h3.305l-.53 3.448h-2.78v8.374H3.789v-8.374H.76V7.5h3.028V4.873c0-2.99 1.779-4.64 4.502-4.64 1.307 0 2.67.233 2.67.233V3.4H9.458c-1.483.005-1.94.925-1.94 1.865z"/></symbol><symbol viewBox="0 0 18 18" id="inst" xmlns="http://www.w3.org/2000/svg"><path d="M9.212 4.68a4.313 4.313 0 00-4.31 4.312 4.313 4.313 0 004.31 4.31 4.313 4.313 0 004.311-4.31 4.312 4.312 0 00-4.31-4.311zm0 7.111a2.8 2.8 0 010-5.599 2.8 2.8 0 010 5.599zm5.492-7.284a1.01 1.01 0 01-1.007 1.008 1.01 1.01 0 01-1.008-1.008A1.01 1.01 0 0113.697 3.5a1.01 1.01 0 011.008 1.008zm2.856 1.025c-.04-.896-.185-1.506-.392-2.038a4.14 4.14 0 00-.969-1.49 4.092 4.092 0 00-1.489-.968c-.532-.207-1.142-.347-2.038-.392-.896-.04-1.181-.05-3.46-.05-2.278 0-2.564.01-3.46.05-.896.04-1.506.185-2.038.392a4.139 4.139 0 00-1.489.969 4.092 4.092 0 00-.968 1.489c-.208.532-.348 1.142-.392 2.038-.04.896-.05 1.181-.05 3.46 0 2.278.01 2.564.05 3.46.039.896.184 1.506.392 2.038a4.14 4.14 0 00.968 1.489c.465.465.935.756 1.49.968.531.207 1.141.348 2.037.392.896.04 1.182.05 3.46.05 2.279 0 2.564-.01 3.46-.05.896-.039 1.506-.184 2.038-.392a4.14 4.14 0 001.49-.968c.464-.465.755-.935.968-1.49.207-.531.347-1.142.392-2.037.039-.896.05-1.182.05-3.46 0-2.279-.011-2.564-.05-3.46zm-1.512 6.852c-.04.818-.173 1.266-.291 1.563a2.589 2.589 0 01-.627.963 2.52 2.52 0 01-.963.627c-.297.117-.739.252-1.562.29-.885.04-1.153.051-3.393.051-2.24 0-2.508-.011-3.393-.05-.817-.04-1.265-.174-1.562-.291a2.587 2.587 0 01-.963-.628 2.588 2.588 0 01-.627-.963c-.117-.296-.252-.739-.29-1.562-.04-.884-.051-1.153-.051-3.392 0-2.245.011-2.508.05-3.393.04-.817.174-1.265.291-1.562.152-.392.336-.672.627-.963.297-.291.571-.476.963-.627.297-.118.74-.252 1.562-.291.885-.04 1.154-.05 3.393-.05 2.245 0 2.508.01 3.393.05.817.039 1.265.173 1.562.29a2.6 2.6 0 01.963.628c.297.291.476.571.627.963.118.297.252.739.291 1.562.04.885.05 1.153.05 3.393 0 2.24-.01 2.508-.05 3.392z"/></symbol><symbol viewBox="0 0 18 18" id="inst-1" xmlns="http://www.w3.org/2000/svg"><circle cx="9.279" cy="10.061" r="2.656"/><path d="M2.195 2.093h14.168v14.168H2.195z"/><path d="M9.212 4.68a4.313 4.313 0 00-4.31 4.312 4.313 4.313 0 004.31 4.31 4.313 4.313 0 004.311-4.31 4.312 4.312 0 00-4.31-4.311zm0 7.111a2.8 2.8 0 010-5.599 2.8 2.8 0 010 5.599zm5.492-7.284a1.01 1.01 0 01-1.007 1.008 1.01 1.01 0 01-1.008-1.008A1.01 1.01 0 0113.697 3.5a1.01 1.01 0 011.008 1.008zm2.856 1.025c-.04-.896-.185-1.506-.392-2.038a4.14 4.14 0 00-.969-1.49 4.092 4.092 0 00-1.489-.968c-.532-.207-1.142-.347-2.038-.392-.896-.04-1.181-.05-3.46-.05-2.278 0-2.564.01-3.46.05-.896.04-1.506.185-2.038.392a4.139 4.139 0 00-1.489.969 4.092 4.092 0 00-.968 1.489c-.208.532-.348 1.142-.392 2.038-.04.896-.05 1.181-.05 3.46 0 2.278.01 2.564.05 3.46.039.896.184 1.506.392 2.038a4.14 4.14 0 00.968 1.489c.465.465.935.756 1.49.968.531.207 1.141.348 2.037.392.896.04 1.182.05 3.46.05 2.279 0 2.564-.01 3.46-.05.896-.039 1.506-.184 2.038-.392a4.14 4.14 0 001.49-.968c.464-.465.755-.935.968-1.49.207-.531.347-1.142.392-2.037.039-.896.05-1.182.05-3.46 0-2.279-.011-2.564-.05-3.46zm-1.512 6.852c-.04.818-.173 1.266-.291 1.563a2.589 2.589 0 01-.627.963 2.52 2.52 0 01-.963.627c-.297.117-.739.252-1.562.29-.885.04-1.153.051-3.393.051-2.24 0-2.508-.011-3.393-.05-.817-.04-1.265-.174-1.562-.291a2.587 2.587 0 01-.963-.628 2.588 2.588 0 01-.627-.963c-.117-.296-.252-.739-.29-1.562-.04-.884-.051-1.153-.051-3.392 0-2.245.011-2.508.05-3.393.04-.817.174-1.265.291-1.562.152-.392.336-.672.627-.963.297-.291.571-.476.963-.627.297-.118.74-.252 1.562-.291.885-.04 1.154-.05 3.393-.05 2.245 0 2.508.01 3.393.05.817.039 1.265.173 1.562.29a2.6 2.6 0 01.963.628c.297.291.476.571.627.963.118.297.252.739.291 1.562.04.885.05 1.153.05 3.393 0 2.24-.01 2.508-.05 3.392z"/></symbol><symbol viewBox="0 0 19 16" id="teleg" xmlns="http://www.w3.org/2000/svg"><path d="M18.4 1.368c-.044.644-.414 2.903-.784 5.346L16.46 13.95s-.09 1.06-.874 1.244c-.785.185-2.074-.644-2.303-.829-.185-.14-3.458-2.214-4.658-3.228-.325-.275-.689-.83.045-1.474a173.027 173.027 0 004.842-4.613c.555-.555 1.104-1.844-1.2-.274l-6.5 4.376s-.74.46-2.119.045C2.31 8.781.696 8.226.696 8.226s-1.104-.689.784-1.429L12.225 2.37c1.059-.46 4.657-1.934 4.657-1.934s1.659-.638 1.518.932z"/></symbol><symbol viewBox="0 0 20 20" id="time" xmlns="http://www.w3.org/2000/svg"><path d="M10 0C4.511 0 .045 4.467 0 9.933a9.85 9.85 0 002.89 7.089c1.866 1.91 4.377 2.955 7.043 2.977H10c5.489 0 9.955-4.466 10-9.933C20.044 4.556 15.578.044 10 0zm4.711 11.022h-4.8a.645.645 0 01-.644-.645v-6.4a.645.645 0 011.289 0v5.756h4.155a.645.645 0 010 1.289z"/></symbol><symbol viewBox="0 0 20 22" id="viber" xmlns="http://www.w3.org/2000/svg"><path d="M5.57 20.974v-3.5h3l-3 3.5z"/><path d="M17.35 2.588C16.848 2.115 14.825.61 10.308.59c0 0-5.32-.332-7.918 2.105C.948 4.176.437 6.34.386 9.026.336 11.71.265 16.738 5 18.103h.006v2.08s-.032.842.51 1.014c.658.211 1.04-.433 1.666-1.122.344-.377.817-.938 1.174-1.36 3.241.281 5.73-.357 6.01-.452.657-.217 4.351-.702 4.957-5.73.62-5.187-.306-8.466-1.971-9.946zm.562 9.57c-.51 4.198-3.509 4.466-4.064 4.644-.236.077-2.424.632-5.174.454l-2.98 3.304v-3.808l-.025-.007c-4.007-1.142-3.873-5.41-3.828-7.65.044-2.24.46-4.077 1.678-5.314 2.195-2.036 6.718-1.73 6.718-1.73 3.822.02 5.646 1.194 6.074 1.59 1.41 1.23 2.125 4.185 1.601 8.517zm-3.285 1.627v.006a4.318 4.318 0 01-.81 1.027l-.007.007c-.447.383-.88.497-1.295.363-1.614-.65-3.248-1.588-4.76-3.158-1.525-1.588-2.552-3.369-3.081-5.046l-.051-.243c-.103-.606.274-1.014 1.32-1.723l.02-.012c.363-.224.727-.115.956.083.217.153.823.957.823.957.122.178.957 1.212.76 1.703-.064.287-.555.58-.817.83l-.02.019c-.114.185-.159.312-.12.587l.012.044c.14.664.524 1.308 1.155 1.92.625.607 1.244.97 1.819 1.117.082.02.389.058.586-.197l.39-.505c.185-.248.644-.408 1.09-.153.25.14.696.428.97.638.294.224.9.74.906.74.281.243.345.607.154.996zm-4.052-6.38c.472.025.836.172 1.085.44s.389.65.415 1.148c0 .07-.051.128-.115.128h-.007a.124.124 0 01-.12-.115c-.02-.434-.141-.766-.345-.989-.211-.223-.524-.344-.926-.364a.13.13 0 01-.114-.127c.006-.077.057-.128.127-.121zm2.45 1.997c.02-.83-.223-1.538-.72-2.093a2.582 2.582 0 00-.894-.65 3.76 3.76 0 00-1.206-.288.122.122 0 01-.108-.134c.006-.07.064-.121.127-.115.964.07 1.723.415 2.259 1.015.542.606.804 1.365.785 2.265a.12.12 0 01-.122.12.117.117 0 01-.12-.12zm-3.337-4.39c0-.07.058-.121.122-.121 1.32.013 2.437.466 3.324 1.352.446.447.784.977 1.008 1.59.223.605.338 1.3.344 2.066 0 .07-.05.122-.121.122a.126.126 0 01-.121-.122c-.007-.733-.115-1.403-.332-1.978a4.106 4.106 0 00-.957-1.499c-.421-.421-.9-.74-1.423-.95a4.642 4.642 0 00-1.735-.326.127.127 0 01-.109-.134z"/></symbol><symbol viewBox="0 0 19 12" id="vk" xmlns="http://www.w3.org/2000/svg"><path d="M10.14 11.19c.449 0 .633-.3.627-.676-.022-1.414.527-2.176 1.52-1.183 1.098 1.098 1.325 1.859 2.658 1.859h2.362c.596 0 .83-.192.83-.493 0-.637-1.048-1.76-1.936-2.586-1.245-1.155-1.303-1.182-.231-2.572C17.299 3.813 19.037 1.6 17.5 1.6h-2.938c-.57 0-.611.321-.814.8-.734 1.731-2.13 3.975-2.66 3.631-.554-.357-.3-1.775-.258-3.882.011-.556.008-.937-.842-1.135a5.955 5.955 0 00-1.335-.15c-1.677 0-2.834.703-2.176.825 1.159.216 1.047 2.725.777 3.808-.47 1.886-2.24-1.494-2.977-3.177-.178-.404-.232-.719-.867-.719H1.008c-.363 0-.58.118-.58.381 0 .444 2.184 4.959 4.269 7.21 2.033 2.195 4.043 1.998 5.442 1.998z"/></symbol><symbol viewBox="0 0 18 18" id="whatsapp" xmlns="http://www.w3.org/2000/svg"><path fill-rule="evenodd" clip-rule="evenodd" d="M8.997.75C4.455.75.77 4.423.77 8.95c0 1.553.431 2.999 1.182 4.238l-1.484 4.4L5.02 16.13a8.256 8.256 0 003.977 1.022c4.543 0 8.228-3.674 8.228-8.201C17.231 4.423 13.545.75 8.997.75zm0 15.101a6.899 6.899 0 01-3.808-1.139l-2.661.849.863-2.563a6.842 6.842 0 01-1.317-4.042c0-3.801 3.103-6.894 6.918-6.894 3.814 0 6.917 3.093 6.917 6.894.011 3.802-3.092 6.895-6.912 6.895zm4.156-5.008c.05.084.05.486-.117.955-.168.469-.992.921-1.361.955-.37.033-.37.301-2.42-.503S5.91 9.347 5.81 9.213c-.1-.134-.823-1.088-.823-2.076 0-.989.52-1.474.706-1.675a.742.742 0 01.537-.252c.135 0 .27.017.387.017.117 0 .285-.067.453.335.169.402.572 1.39.622 1.49.05.101.084.218.017.352-.067.134-.1.218-.202.335-.1.118-.212.263-.302.352-.1.1-.207.207-.09.408.118.2.521.86 1.12 1.39.773.686 1.423.899 1.625.999.202.1.32.084.437-.05.117-.134.504-.586.638-.787.135-.201.27-.168.454-.1.185.066 1.176.552 1.378.652.201.106.336.157.386.24z"/></symbol><symbol viewBox="0 0 24 24" id="youtube" xmlns="http://www.w3.org/2000/svg"><path d="M21.582 6.186a2.506 2.506 0 00-1.768-1.768C18.254 4 12 4 12 4s-6.254 0-7.814.418c-.86.23-1.538.908-1.768 1.768C2 7.746 2 12 2 12s0 4.254.418 5.814c.23.86.908 1.538 1.768 1.768C5.746 20 12 20 12 20s6.254 0 7.814-.418a2.504 2.504 0 001.768-1.768C22 16.254 22 12 22 12s0-4.254-.418-5.814zM10 14.598V9.402a.5.5 0 01.75-.433l4.5 2.598a.5.5 0 010 .866l-4.5 2.598a.5.5 0 01-.75-.433z"/></symbol></svg>